<?xml version="1.0" encoding="utf-8"?>
<!-- Generator: Adobe Illustrator 25.0.0, SVG Export Plug-In . SVG Version: 6.00 Build 0)  -->
<svg version="1.1" id="Capa_1" xmlns="http://www.w3.org/2000/svg" xmlns:xlink="http://www.w3.org/1999/xlink" x="0px" y="0px"
	 viewBox="0 0 36 36.02" style="enable-background:new 0 0 36 36.02;" xml:space="preserve">
<g>
	<path d="M2.39,36.02c0-0.38,0-0.77,0-1.19c1.34,0,2.64,0,3.95,0c0.02-0.03,0.04-0.06,0.07-0.1c-0.1-0.07-0.2-0.14-0.29-0.22
		c-5.61-5.09-6.54-13.53-2.19-19.74c0.13-0.18,0.21-0.45,0.2-0.67c-0.09-2.63-0.18-5.27-0.32-7.9c-0.1-1.79,0.31-3.37,1.62-4.65
		c1.03-1.01,2.29-1.54,3.74-1.54C13.85,0,18.53,0,23.22,0.01c3.03,0.01,5.45,2.48,5.38,5.5c-0.06,2.51-0.17,5.01-0.31,7.52
		c-0.05,0.9,0.1,1.65,0.61,2.45c2.34,3.73,2.88,7.75,1.73,12c-0.03,0.1-0.06,0.2-0.1,0.34c0.53,0.22,1.05,0.44,1.58,0.66
		c0.32,0.14,0.65,0.26,0.97,0.41c1.1,0.54,1.68,1.44,1.72,2.65c0.03,1.07,0.01,2.15,0.01,3.26c0.36,0,0.78,0,1.2,0
		c0,0.4,0,0.8,0,1.2C24.8,36.02,13.59,36.02,2.39,36.02z M29.4,27.36c0.03-0.1,0.05-0.15,0.07-0.21c1.06-3.92,0.53-7.61-1.58-11.07
		c-0.9-0.88-0.87-1.97-0.8-3.12c0.15-2.48,0.23-4.96,0.31-7.45c0.07-2.35-1.8-4.3-4.13-4.3c-4.71-0.02-9.42-0.01-14.13,0
		c-0.87,0-1.66,0.26-2.36,0.77C5.39,3,4.92,4.4,5.01,6.07c0.15,2.8,0.24,5.6,0.33,8.39c0.01,0.23-0.08,0.52-0.22,0.71
		c-2.03,2.79-2.96,5.91-2.66,9.35c0.37,4.25,2.32,7.62,5.76,10.14c0.14,0.1,0.34,0.15,0.52,0.15c4.01,0.01,8.01,0.01,12.02,0.01
		c0.1,0,0.2-0.01,0.37-0.02c-0.16-0.14-0.26-0.23-0.37-0.32c-4.09-3.44-8.18-6.87-12.27-10.31c-0.89-0.75-0.97-1.91-0.16-2.72
		c2.65-2.67,5.32-5.32,7.98-7.98c0.35-0.35,0.65-0.35,1,0c0.55,0.54,1.11,1.08,1.63,1.65c0.14,0.15,0.25,0.41,0.26,0.62
		c0.09,2.23,1.61,4.11,3.8,4.55c0.71,0.14,1.47,0.1,2.2,0.12c0.68,0.02,0.8,0.1,0.97,0.76c0.43,1.71,0.85,3.43,1.29,5.14
		c0.03,0.12,0.11,0.28,0.21,0.32C28.22,26.88,28.79,27.11,29.4,27.36z M16.87,14.69c-0.96,0.96-1.87,1.87-2.8,2.8
		c0.03,0.03,0.07,0.1,0.12,0.16c0.98,1.29,1.49,2.74,1.4,4.35c-0.04,0.8-0.24,1.59-0.41,2.38c-0.07,0.32-0.01,0.5,0.24,0.71
		c2.65,2.2,5.3,4.4,7.94,6.61c0.14,0.12,0.28,0.23,0.43,0.35c0.57-1.1,1.41-1.77,2.58-1.99c0.34-0.06,0.7-0.04,1.05-0.11
		c0.81-0.15,1.38-0.62,1.72-1.41c-0.66-0.28-1.27-0.57-1.91-0.79c-0.55-0.19-0.88-0.5-0.93-1.08c-0.02-0.22-0.13-0.28-0.35-0.28
		c-1.11,0.01-2.23,0.01-3.34,0c-0.12,0-0.25-0.01-0.39-0.02c0-0.4,0-0.77,0-1.18c1.23,0,2.44,0,3.7,0c-0.07-0.32-0.15-0.59-0.2-0.86
		C25.68,24.1,25.57,24,25.28,24c-1.1,0.02-2.2,0.01-3.3,0.01c-0.12,0-0.25-0.01-0.36-0.02c0-0.41,0-0.78,0-1.18
		c1.24,0,2.45,0,3.71,0c-0.11-0.42-0.2-0.8-0.3-1.2c-0.34,0-0.65,0.01-0.97,0c-0.42-0.02-0.85-0.04-1.25-0.12
		c-2.65-0.56-4.48-2.62-4.79-5.38c-0.01-0.11-0.03-0.24-0.1-0.32C17.57,15.4,17.2,15.04,16.87,14.69z M9.65,21.83
		c-0.1,0.1-0.17,0.16-0.24,0.22c-0.6,0.59-0.59,0.82,0.04,1.36c4.43,3.72,8.86,7.44,13.29,11.17c0.2,0.17,0.4,0.24,0.66,0.23
		c3.09-0.01,6.19,0,9.28,0c0.09,0,0.19,0,0.28,0c0.38-0.02,0.61-0.24,0.64-0.61c0.01-0.18,0-0.37,0-0.59c-0.17,0-0.31,0-0.45,0
		c-2.96,0-5.93,0-8.89,0c-0.32,0-0.58-0.09-0.83-0.3c-3.87-3.23-7.74-6.45-11.61-9.68C11.11,23.05,10.39,22.45,9.65,21.83z
		 M33.6,32.41c0-0.25,0-0.45,0-0.66c0-0.88-0.4-1.49-1.21-1.83c-0.38-0.16-0.75-0.31-1.13-0.47c-0.33-0.14-0.66-0.27-0.99-0.41
		c-0.72,1.5-1.9,2.18-3.5,2.21c-0.64,0.01-1.15,0.35-1.56,0.84c-0.08,0.09-0.13,0.2-0.21,0.33C27.89,32.41,30.72,32.41,33.6,32.41z
		 M13.23,18.36c-0.9,0.89-1.79,1.77-2.69,2.66c1.15,0.96,2.32,1.93,3.5,2.92C14.69,21.9,14.51,20.03,13.23,18.36z"/>
	<path d="M0,36.02c0-0.38,0-0.77,0-1.17c0.4,0,0.77,0,1.2,0c0,0.39,0,0.78,0,1.17C0.8,36.02,0.4,36.02,0,36.02z"/>
	<path d="M33.51,25.27c-0.37-0.03-0.71-0.05-1.04-0.11c-0.06-0.01-0.12-0.19-0.12-0.3c-0.02-1.1,0.04-2.21-0.07-3.3
		c-0.25-2.6-1.16-4.98-2.61-7.15c-0.05-0.07-0.09-0.14-0.16-0.24c0.32-0.22,0.63-0.44,0.98-0.69
		C32.92,17.05,33.91,20.96,33.51,25.27z"/>
	<path d="M6.76,6.11C6.73,4.41,8,3.04,9.69,3.03C14.03,3,18.38,3,22.72,3.03c1.74,0.01,3.03,1.5,2.92,3.23
		c-0.12,1.78-0.22,3.55-0.34,5.33c-0.02,0.22-0.1,0.47-0.23,0.63c-0.2,0.25-0.49,0.21-0.85-0.04c-1.13-0.81-2.35-1.46-3.68-1.87
		c-4.34-1.34-8.41-0.78-12.2,1.76c-0.09,0.06-0.17,0.12-0.26,0.18c-0.47,0.29-0.94,0.05-0.98-0.5c-0.08-1.13-0.14-2.27-0.21-3.4
		C6.85,7.6,6.8,6.86,6.76,6.11z M24.13,10.64c0.02-0.06,0.03-0.1,0.04-0.13c0.09-1.47,0.2-2.94,0.27-4.42
		c0.05-1.02-0.74-1.87-1.77-1.87c-4.31-0.01-8.62-0.01-12.93,0c-1.05,0-1.82,0.83-1.78,1.89C7.97,6.45,8,6.79,8.02,7.13
		c0.07,1.17,0.15,2.33,0.23,3.52C13.55,7.66,18.83,7.65,24.13,10.64z"/>
	<path d="M6.02,18.29C5.2,19.93,4.8,21.64,4.8,23.43c0,1.78,0.4,3.48,1.22,5.11c-0.36,0.18-0.7,0.35-1.04,0.53
		c-1.83-3.32-1.83-8,0-11.31C5.31,17.93,5.64,18.09,6.02,18.29z"/>
	<path d="M7.52,30.84c-0.3,0.26-0.59,0.5-0.91,0.78c-0.32-0.43-0.63-0.83-0.95-1.26c0.35-0.23,0.67-0.44,1-0.66
		C6.95,30.08,7.23,30.45,7.52,30.84z"/>
</g>
</svg>
