<?xml version="1.0" encoding="utf-8"?>
<!-- Generator: Adobe Illustrator 25.0.0, SVG Export Plug-In . SVG Version: 6.00 Build 0)  -->
<svg version="1.1" id="Capa_1" xmlns="http://www.w3.org/2000/svg" xmlns:xlink="http://www.w3.org/1999/xlink" x="0px" y="0px"
	 viewBox="0 0 9.88 9.88" style="enable-background:new 0 0 9.88 9.88;" xml:space="preserve">
<style type="text/css">
	.st0{fill:#FFFFFF;}
</style>
<g>
	<path class="st0" d="M7.36,3.1C7.31,2.96,7.24,2.86,7.13,2.75C7.02,2.64,6.92,2.57,6.77,2.51C6.66,2.47,6.5,2.42,6.2,2.41
		C5.87,2.39,5.77,2.39,4.94,2.39c-0.83,0-0.93,0-1.26,0.02C3.38,2.42,3.21,2.47,3.1,2.51C2.96,2.57,2.86,2.64,2.75,2.75
		C2.64,2.86,2.57,2.96,2.51,3.1C2.47,3.21,2.42,3.38,2.41,3.68C2.39,4.01,2.39,4.11,2.39,4.94c0,0.83,0,0.93,0.02,1.26
		c0.01,0.3,0.06,0.47,0.11,0.58c0.06,0.15,0.12,0.25,0.23,0.36C2.86,7.24,2.96,7.31,3.1,7.36c0.11,0.04,0.27,0.09,0.58,0.11
		c0.33,0.01,0.43,0.02,1.26,0.02c0.83,0,0.93,0,1.26-0.02c0.3-0.01,0.47-0.06,0.58-0.11c0.15-0.06,0.25-0.12,0.36-0.23
		c0.11-0.11,0.18-0.21,0.23-0.36C7.41,6.66,7.46,6.5,7.47,6.2c0.01-0.33,0.02-0.43,0.02-1.26c0-0.83,0-0.93-0.02-1.26
		C7.46,3.38,7.41,3.21,7.36,3.1z M4.94,6.54c-0.88,0-1.6-0.71-1.6-1.6s0.71-1.6,1.6-1.6c0.88,0,1.6,0.71,1.6,1.6
		S5.82,6.54,4.94,6.54z M6.6,3.65c-0.21,0-0.37-0.17-0.37-0.37S6.39,2.91,6.6,2.91c0.21,0,0.37,0.17,0.37,0.37S6.8,3.65,6.6,3.65z"
		/>
	<path class="st0" d="M4.94,0C2.21,0,0,2.21,0,4.94c0,2.73,2.21,4.94,4.94,4.94c2.73,0,4.94-2.21,4.94-4.94C9.88,2.21,7.67,0,4.94,0
		z M8.03,6.22C8.01,6.55,7.96,6.78,7.89,6.98C7.81,7.18,7.7,7.35,7.53,7.53C7.35,7.7,7.18,7.81,6.98,7.89
		c-0.2,0.08-0.42,0.13-0.75,0.14C5.89,8.05,5.78,8.05,4.94,8.05c-0.84,0-0.95,0-1.28-0.02C3.33,8.01,3.1,7.96,2.9,7.89
		C2.7,7.81,2.52,7.7,2.35,7.53C2.18,7.35,2.07,7.18,1.99,6.98c-0.08-0.2-0.13-0.42-0.14-0.75C1.83,5.89,1.83,5.78,1.83,4.94
		c0-0.84,0-0.95,0.02-1.28C1.86,3.33,1.92,3.1,1.99,2.9c0.08-0.2,0.19-0.38,0.36-0.55C2.52,2.18,2.7,2.07,2.9,1.99
		c0.2-0.08,0.42-0.13,0.75-0.14c0.33-0.02,0.44-0.02,1.28-0.02c0.84,0,0.95,0,1.28,0.02c0.33,0.02,0.56,0.07,0.75,0.14
		c0.2,0.08,0.38,0.19,0.55,0.36C7.7,2.52,7.81,2.7,7.89,2.9c0.08,0.2,0.13,0.42,0.14,0.75c0.02,0.33,0.02,0.44,0.02,1.28
		C8.05,5.78,8.05,5.89,8.03,6.22z"/>
	<path class="st0" d="M4.94,3.9C4.37,3.9,3.9,4.37,3.9,4.94s0.46,1.04,1.04,1.04c0.57,0,1.04-0.46,1.04-1.04S5.51,3.9,4.94,3.9z"/>
</g>
</svg>
