<?xml version="1.0" encoding="utf-8"?>
<!-- Generator: Adobe Illustrator 25.0.0, SVG Export Plug-In . SVG Version: 6.00 Build 0)  -->
<svg version="1.1" id="Capa_1" xmlns="http://www.w3.org/2000/svg" xmlns:xlink="http://www.w3.org/1999/xlink" x="0px" y="0px"
	 viewBox="0 0 61.5 71.36" style="enable-background:new 0 0 61.5 71.36;" xml:space="preserve">
<style type="text/css">
	.st0{fill:#FFFFFF;}
	.st1{fill:url(#XMLID_2_);}
	.st2{fill:#E52D18;}
	.st3{fill:#585758;}
</style>
<g id="XMLID_69_">
	<g id="XMLID_100_">
		<path class="st0" d="M5.38,62.27c-0.38,0-0.7-0.3-0.72-0.68c-0.02-0.39,0.28-0.73,0.67-0.76c2.37-0.17,4.37-1.23,6.11-3.24
			c0.75-0.86,1.39-1.88,1.9-3.04c0.6-1.64,0.9-3.89,0.87-6.63l-0.06-35.84c0-1.53-0.5-2.69-1.54-3.54c-0.42-0.39-0.92-0.67-1.5-0.85
			c-0.34-0.11-0.55-0.45-0.5-0.8c0.05-0.35,0.36-0.61,0.71-0.61c0,0,13.8,0.05,13.8,0.05c0.36,0,0.66,0.26,0.71,0.62
			c0.05,0.35-0.17,0.69-0.51,0.79c-0.78,0.23-1.53,1.05-2.24,2.42c-0.29,0.58-0.56,1.26-0.79,2.02v35.78c0,2.95-1.63,6.07-4.85,9.27
			c-3.21,3.19-7.26,4.89-12.05,5.04C5.4,62.26,5.39,62.27,5.38,62.27z"/>
		<linearGradient id="XMLID_2_" gradientUnits="userSpaceOnUse" x1="7.1921" y1="8.9732" x2="21.4585" y2="53.7753">
			<stop  offset="0" style="stop-color:#A81916"/>
			<stop  offset="0.3292" style="stop-color:#D32717"/>
			<stop  offset="0.5" style="stop-color:#E52D18"/>
			<stop  offset="0.5992" style="stop-color:#DB2A17"/>
			<stop  offset="0.7559" style="stop-color:#BF2317"/>
			<stop  offset="0.9438" style="stop-color:#981915"/>
		</linearGradient>
		<path id="XMLID_101_" class="st1" d="M14.87,12.07c0-1.75-0.6-3.11-1.8-4.09C12.6,7.54,12.02,7.22,11.33,7l13.8,0.05
			c-0.98,0.29-1.87,1.22-2.67,2.78c-0.33,0.65-0.62,1.4-0.87,2.24v35.89c0,2.76-1.55,5.68-4.64,8.75C13.86,59.79,10,61.4,5.38,61.54
			c2.55-0.18,4.75-1.34,6.6-3.49c0.8-0.91,1.47-1.98,2.02-3.22c0.66-1.78,0.96-4.09,0.93-6.93L14.87,12.07z"/>
	</g>
	<g id="XMLID_90_">
		<path id="XMLID_97_" class="st0" d="M30.5,52.18l-12.3-31.56c-0.34-0.88-0.81-1.6-1.41-2.15c-0.26-0.25-0.53-0.46-0.81-0.62
			l8.64,0.01c-1.14,0.19-1.71,0.83-1.71,1.9c0,0.17,0.01,0.32,0.04,0.46l7.94,20.38l4.32-5.54L30.5,52.18z M35.89,20.22
			c-0.11-1.46,0.45-2.25,1.68-2.36l-8.71,0c1.17,0.5,1.96,1.47,2.36,2.91l8.86,31.59l10.99-31.13c0.72-1.74,1.5-2.86,2.33-3.36
			l-5.74,0c1.01,0.44,1.51,1.09,1.51,1.95c0,0.25-0.06,0.53-0.17,0.83l-7.35,18.96L35.89,20.22z"/>
		<path id="XMLID_94_" class="st0" d="M31.04,51.97l-12.3-31.56c-0.37-0.96-0.9-1.76-1.56-2.37c-0.28-0.27-0.59-0.51-0.91-0.7
			c0.23,0.13,0.34,0.4,0.27,0.65c-0.07,0.25-0.3,0.43-0.56,0.43l8.64,0.01c-0.3,0-0.55-0.23-0.58-0.53
			c-0.03-0.3,0.18-0.57,0.48-0.62c-1.42,0.24-2.2,1.12-2.2,2.48c0,0.2,0.02,0.39,0.05,0.57c0.01,0.03,0.02,0.06,0.03,0.09
			l7.94,20.38c0.08,0.2,0.25,0.33,0.46,0.36c0.21,0.03,0.41-0.05,0.54-0.22l4.32-5.55c-0.17,0.22-0.47,0.29-0.72,0.16
			c-0.25-0.12-0.37-0.41-0.3-0.67l-4.72,17.14c0.07-0.24,0.28-0.41,0.53-0.43C30.72,51.59,30.95,51.74,31.04,51.97z M34.76,34.69
			l-4.32,5.54c0.13-0.16,0.34-0.25,0.54-0.22c0.21,0.03,0.38,0.17,0.46,0.36L23.5,20c0.01,0.03,0.02,0.06,0.03,0.09
			c-0.02-0.1-0.03-0.21-0.03-0.34c0-0.79,0.37-1.19,1.23-1.33c0.3-0.05,0.51-0.32,0.48-0.62c-0.02-0.3-0.28-0.53-0.58-0.53
			l-8.64-0.01c-0.26,0-0.49,0.18-0.56,0.43c-0.07,0.25,0.04,0.52,0.27,0.65c0.24,0.14,0.48,0.32,0.7,0.54
			c0.54,0.5,0.96,1.15,1.27,1.95c0,0,12.3,31.57,12.3,31.57c0.09,0.23,0.32,0.38,0.57,0.37c0.25-0.01,0.46-0.19,0.53-0.43
			l4.72-17.14c0.07-0.27-0.05-0.55-0.3-0.67C35.23,34.4,34.93,34.47,34.76,34.69z"/>
		<path id="XMLID_91_" class="st0" d="M36.47,20.17c-0.11-1.43,0.49-1.68,1.16-1.73c0.31-0.03,0.54-0.29,0.53-0.61
			c-0.01-0.31-0.27-0.56-0.58-0.56l-8.71-0.01c-0.28,0-0.51,0.19-0.57,0.47c-0.06,0.27,0.09,0.54,0.34,0.65
			c1.01,0.43,1.67,1.26,2.03,2.53c0,0,8.86,31.59,8.86,31.59c0.07,0.24,0.29,0.42,0.54,0.42c0.25,0.01,0.48-0.15,0.57-0.39
			l10.99-31.13c0,0.01-0.01,0.02-0.01,0.03c0.67-1.62,1.38-2.65,2.1-3.08c0.22-0.13,0.33-0.4,0.26-0.65
			c-0.07-0.25-0.3-0.43-0.56-0.43l-5.74,0c-0.28,0-0.51,0.19-0.57,0.46c-0.06,0.27,0.08,0.54,0.33,0.65
			c1.04,0.46,1.16,1.03,1.16,1.41c0,0.18-0.05,0.39-0.14,0.62c0,0-7.34,18.96-7.34,18.96c0.09-0.23,0.32-0.38,0.57-0.37
			c0.25,0.01,0.46,0.18,0.53,0.42l-5.77-19.39C36.46,20.09,36.47,20.13,36.47,20.17z M42.21,39.82l7.35-18.97
			c0.14-0.37,0.21-0.72,0.21-1.04c0-0.76-0.32-1.8-1.85-2.48c0.25,0.11,0.39,0.38,0.34,0.65c-0.06,0.27-0.29,0.46-0.57,0.46l5.74,0
			c-0.26,0-0.49-0.17-0.56-0.43c-0.07-0.25,0.04-0.52,0.26-0.65c-0.96,0.57-1.8,1.76-2.58,3.63c0,0.01-0.01,0.02-0.01,0.03
			L39.53,52.16c0.08-0.24,0.31-0.4,0.57-0.39c0.25,0.01,0.47,0.18,0.54,0.42l-8.86-31.59c-0.45-1.61-1.35-2.72-2.69-3.29
			c0.25,0.11,0.4,0.38,0.34,0.65c-0.06,0.27-0.29,0.47-0.57,0.47l8.72,0c-0.31,0-0.57-0.24-0.58-0.56
			c-0.01-0.31,0.22-0.58,0.53-0.61c-0.91,0.08-2.4,0.57-2.21,2.98c0,0.04,0.01,0.08,0.02,0.12l5.77,19.39
			c0.07,0.24,0.29,0.4,0.53,0.41C41.89,40.2,42.12,40.05,42.21,39.82z"/>
	</g>
	<path id="XMLID_87_" class="st2" d="M30.5,52.18l-12.3-31.56c-0.34-0.88-0.81-1.6-1.41-2.15c-0.26-0.25-0.53-0.46-0.81-0.62
		l8.64,0.01c-1.14,0.19-1.71,0.83-1.71,1.9c0,0.17,0.01,0.32,0.04,0.46l7.94,20.38l4.32-5.54L30.5,52.18z M35.89,20.22
		c-0.11-1.46,0.45-2.25,1.68-2.36l-8.71,0c1.17,0.5,1.96,1.47,2.36,2.91l8.86,31.59l10.99-31.13c0.72-1.74,1.5-2.86,2.33-3.36
		l-5.74,0c1.01,0.44,1.51,1.09,1.51,1.95c0,0.25-0.06,0.53-0.17,0.83l-7.35,18.96L35.89,20.22z"/>
	<g id="XMLID_70_">
		<path id="XMLID_85_" class="st3" d="M23.04,54.47l-0.24,0.54c-0.04-0.01-0.08-0.03-0.12-0.04c-0.04-0.01-0.09-0.02-0.14-0.02
			c-0.11,0-0.21,0.04-0.27,0.12c-0.07,0.08-0.11,0.18-0.11,0.29v0.51h0.59v0.57h-0.59v2.62h-0.59v-2.62h-0.39v-0.57h0.39v-0.47
			c0-0.28,0.08-0.52,0.24-0.7c0.19-0.21,0.45-0.31,0.78-0.31c0.08,0,0.16,0,0.25,0.02C22.91,54.42,22.98,54.44,23.04,54.47z"/>
		<path id="XMLID_82_" class="st3" d="M24.92,54.73c0,0.1-0.03,0.17-0.09,0.24c-0.06,0.06-0.14,0.1-0.24,0.1
			c-0.09,0-0.17-0.03-0.23-0.1c-0.07-0.07-0.1-0.15-0.1-0.24c0-0.09,0.03-0.17,0.09-0.24c0.06-0.06,0.14-0.1,0.24-0.1
			c0.09,0,0.17,0.03,0.23,0.1C24.89,54.56,24.92,54.64,24.92,54.73z M24.89,58.1h-0.59v-2.8h0.59V58.1z"/>
		<path id="XMLID_80_" class="st3" d="M27.98,57.7l-0.27,0.48c-0.33-0.16-0.55-0.31-0.67-0.44c-0.14-0.16-0.22-0.38-0.22-0.66v-1.21
			h-0.34V55.3h0.34v-0.74l0.59-0.17v0.91h0.47v0.57h-0.47v1.1c0,0.15,0.02,0.27,0.05,0.35c0.04,0.08,0.1,0.14,0.19,0.2L27.98,57.7z"
			/>
		<path id="XMLID_78_" class="st3" d="M32.03,58.1h-0.59v-1.56c0-0.25-0.06-0.43-0.17-0.54c-0.12-0.12-0.28-0.17-0.49-0.17
			c-0.2,0-0.36,0.06-0.49,0.18c-0.13,0.12-0.19,0.3-0.19,0.52v1.57h-0.59v-2.8h0.59v0.35c0.09-0.13,0.2-0.24,0.35-0.32
			c0.15-0.08,0.31-0.11,0.5-0.11c0.3,0,0.55,0.11,0.76,0.34c0.21,0.22,0.31,0.51,0.31,0.85V58.1z"/>
		<path id="XMLID_75_" class="st3" d="M36.66,56.91h-2.3c0,0.21,0.09,0.38,0.26,0.52c0.17,0.14,0.36,0.21,0.58,0.21
			c0.32,0,0.58-0.14,0.8-0.43l0.5,0.28c-0.17,0.21-0.36,0.38-0.58,0.5c-0.22,0.12-0.46,0.18-0.7,0.18c-0.46,0-0.84-0.15-1.12-0.46
			c-0.27-0.28-0.4-0.62-0.4-1.02c0-0.39,0.13-0.73,0.4-1.01c0.29-0.31,0.66-0.46,1.12-0.46c0.34,0,0.65,0.13,0.93,0.37
			c0.33,0.3,0.5,0.7,0.5,1.2V56.91z M35.97,56.41c-0.07-0.21-0.17-0.37-0.31-0.49c-0.14-0.11-0.31-0.16-0.51-0.16
			c-0.19,0-0.36,0.06-0.5,0.17c-0.14,0.11-0.24,0.27-0.29,0.48H35.97z"/>
		<path id="XMLID_73_" class="st3" d="M40.48,57.23c0,0.24-0.09,0.45-0.27,0.62c-0.22,0.21-0.52,0.32-0.91,0.32
			c-0.23,0-0.44-0.04-0.65-0.13c-0.21-0.08-0.4-0.2-0.59-0.37l0.4-0.41c0.11,0.12,0.25,0.21,0.41,0.29
			c0.16,0.08,0.31,0.12,0.46,0.12c0.16,0,0.29-0.04,0.4-0.11c0.1-0.07,0.15-0.15,0.15-0.24c0-0.09-0.03-0.16-0.09-0.21
			c-0.06-0.06-0.15-0.09-0.27-0.11l-0.34-0.06c-0.37-0.07-0.63-0.17-0.78-0.3c-0.14-0.12-0.21-0.28-0.21-0.5
			c0-0.25,0.09-0.46,0.28-0.63c0.21-0.19,0.48-0.28,0.81-0.28c0.19,0,0.38,0.03,0.55,0.09c0.17,0.06,0.35,0.16,0.55,0.3l-0.34,0.42
			c-0.13-0.11-0.26-0.19-0.39-0.25c-0.13-0.05-0.25-0.07-0.36-0.07c-0.14,0-0.26,0.03-0.36,0.09c-0.1,0.06-0.15,0.15-0.15,0.26
			c0,0.15,0.12,0.25,0.36,0.29l0.6,0.12C40.24,56.58,40.48,56.83,40.48,57.23z"/>
		<path id="XMLID_71_" class="st3" d="M44.2,57.23c0,0.24-0.09,0.45-0.27,0.62c-0.22,0.21-0.52,0.32-0.9,0.32
			c-0.23,0-0.44-0.04-0.65-0.13c-0.21-0.08-0.4-0.2-0.59-0.37l0.4-0.41c0.11,0.12,0.24,0.21,0.41,0.29
			c0.16,0.08,0.32,0.12,0.47,0.12c0.16,0,0.29-0.04,0.39-0.11c0.1-0.07,0.15-0.15,0.15-0.24c0-0.09-0.03-0.16-0.09-0.21
			c-0.06-0.06-0.15-0.09-0.27-0.11l-0.34-0.06c-0.37-0.07-0.63-0.17-0.78-0.3c-0.14-0.12-0.21-0.28-0.21-0.5
			c0-0.25,0.09-0.46,0.28-0.63c0.21-0.19,0.47-0.28,0.81-0.28c0.19,0,0.38,0.03,0.55,0.09c0.17,0.06,0.35,0.16,0.55,0.3l-0.34,0.42
			c-0.13-0.11-0.26-0.19-0.39-0.25c-0.13-0.05-0.25-0.07-0.36-0.07c-0.14,0-0.26,0.03-0.36,0.09c-0.1,0.06-0.15,0.15-0.15,0.26
			c0,0.15,0.12,0.25,0.36,0.29l0.6,0.12C43.96,56.58,44.2,56.83,44.2,57.23z"/>
	</g>
</g>
</svg>
