<svg id="Capa_1" data-name="Capa 1" xmlns="http://www.w3.org/2000/svg" xmlns:xlink="http://www.w3.org/1999/xlink" viewBox="0 0 612 377.94"><defs><style>.cls-1{fill:#dadada;}.cls-2,.cls-6{fill:#fff;}.cls-2,.cls-3{stroke:#000;stroke-miterlimit:10;}.cls-3{fill:none;}.cls-4{fill:url(#Degradado_sin_nombre_20);}.cls-5{fill:#a70f08;}.cls-7{fill:url(#linear-gradient);}.cls-8{fill:#e52a12;}.cls-9{fill:#575757;}</style><linearGradient id="Degradado_sin_nombre_20" x1="107.55" y1="51.84" x2="587.04" y2="51.84" gradientUnits="userSpaceOnUse"><stop offset="0" stop-color="#a70f08"/><stop offset="1" stop-color="#e52a12"/></linearGradient><linearGradient id="linear-gradient" x1="54.52" y1="24.82" x2="68.78" y2="69.63" gradientUnits="userSpaceOnUse"><stop offset="0" stop-color="#a70f08"/><stop offset="0.04" stop-color="#ad1209"/><stop offset="0.34" stop-color="#d5230f"/><stop offset="0.5" stop-color="#e52a12"/><stop offset="0.59" stop-color="#dd2711"/><stop offset="0.73" stop-color="#c6200d"/><stop offset="0.9" stop-color="#a11307"/><stop offset="0.94" stop-color="#971005"/></linearGradient></defs><rect class="cls-1" y="322.24" width="612" height="55.71"/><rect class="cls-2" width="612" height="317.26"/><line class="cls-3" x2="612" y2="317.26"/><line class="cls-3" x1="612" y2="317.26"/><path class="cls-4" d="M107.55,38.43h475A4.47,4.47,0,0,1,587,42.9V60.78a4.47,4.47,0,0,1-4.47,4.47h-475a0,0,0,0,1,0,0V38.43A0,0,0,0,1,107.55,38.43Z"/><path class="cls-5" d="M26,38.43H49.5a0,0,0,0,1,0,0V65.25a0,0,0,0,1,0,0H26a4.47,4.47,0,0,1-4.47-4.47V42.9A4.47,4.47,0,0,1,26,38.43Z"/><path class="cls-6" d="M52.71,78.12a.72.72,0,0,1-.05-1.44,8.65,8.65,0,0,0,6.11-3.25,11.65,11.65,0,0,0,1.9-3,19.35,19.35,0,0,0,.87-6.63l-.06-35.85a4.26,4.26,0,0,0-1.54-3.53,3.84,3.84,0,0,0-1.5-.85.72.72,0,0,1,.22-1.41l13.8.05a.74.74,0,0,1,.71.62.72.72,0,0,1-.51.79A4.44,4.44,0,0,0,70.42,26a14.29,14.29,0,0,0-.79,2V63.81c0,3-1.63,6.07-4.85,9.27a17.29,17.29,0,0,1-12.05,5Z"/><path class="cls-7" d="M62.2,27.92a5,5,0,0,0-1.8-4.09,4.62,4.62,0,0,0-1.74-1l13.8,0a5,5,0,0,0-2.68,2.79,15.73,15.73,0,0,0-.87,2.23V63.81q0,4.16-4.64,8.76A16.54,16.54,0,0,1,52.71,77.4a9.47,9.47,0,0,0,6.6-3.49,12.68,12.68,0,0,0,2-3.22,19.94,19.94,0,0,0,.93-6.93Z"/><path class="cls-6" d="M77.83,68,65.53,36.47a5.6,5.6,0,0,0-1.41-2.15,3.64,3.64,0,0,0-.81-.62H72a1.79,1.79,0,0,0-1.71,1.91,2.15,2.15,0,0,0,0,.45l7.94,20.38,4.32-5.54Zm5.39-32c-.12-1.46.45-2.25,1.68-2.36H76.19a4.15,4.15,0,0,1,2.36,2.91l8.86,31.59,11-31.13a6.88,6.88,0,0,1,2.34-3.36H95a2.1,2.1,0,0,1,1.51,1.94,2.26,2.26,0,0,1-.18.83L89,55.46Z"/><path class="cls-6" d="M78.37,67.83,66.07,36.26a6.23,6.23,0,0,0-1.55-2.37,4.76,4.76,0,0,0-.92-.7.58.58,0,0,1-.29,1.09H72a.58.58,0,0,1-.1-1.15,2.37,2.37,0,0,0-2.19,2.48,2.63,2.63,0,0,0,0,.57l0,.09,7.94,20.39a.58.58,0,0,0,1,.14L83,51.26a.58.58,0,0,1-1-.51L77.27,67.88a.58.58,0,0,1,1.1,0Zm3.72-17.29-4.33,5.55a.58.58,0,0,1,.55-.22.58.58,0,0,1,.45.36L70.82,35.85l0,.09a1.69,1.69,0,0,1,0-.33c0-.79.37-1.19,1.22-1.33a.6.6,0,0,0,.49-.63.59.59,0,0,0-.58-.53H63.31A.58.58,0,0,0,63,34.2a3.46,3.46,0,0,1,.7.54A5.16,5.16,0,0,1,65,36.68l12.3,31.57a.58.58,0,0,0,1.1-.06L83.1,51.05a.58.58,0,0,0-1-.51Z"/><path class="cls-6" d="M83.8,36c-.11-1.42.49-1.67,1.16-1.73a.58.58,0,0,0-.06-1.16H76.19A.58.58,0,0,0,76,34.24a3.55,3.55,0,0,1,2,2.53l8.87,31.59a.58.58,0,0,0,1.11,0L99,37.27v0A6.41,6.41,0,0,1,101,34.22a.58.58,0,0,0-.29-1.08H95a.58.58,0,0,0-.24,1.11c1,.46,1.17,1,1.17,1.41a1.85,1.85,0,0,1-.14.63l-7.34,19a.58.58,0,0,1,1.1,0L83.78,35.91A.36.36,0,0,1,83.8,36Zm5.73,19.65,7.35-19a3,3,0,0,0,.21-1,2.65,2.65,0,0,0-1.86-2.48A.58.58,0,0,1,95,34.3h5.74a.56.56,0,0,1-.56-.42.59.59,0,0,1,.26-.66,7.4,7.4,0,0,0-2.58,3.63,0,0,0,0,1,0,0L86.86,68a.57.57,0,0,1,.57-.38.58.58,0,0,1,.54.42L79.11,36.46a4.74,4.74,0,0,0-2.69-3.29.58.58,0,0,1-.23,1.12H84.9a.58.58,0,0,1-.58-.55.59.59,0,0,1,.53-.61c-.91.08-2.4.58-2.21,3a.5.5,0,0,0,0,.12l5.77,19.38a.58.58,0,0,0,1.1.05Z"/><path class="cls-8" d="M77.83,68,65.53,36.47a5.6,5.6,0,0,0-1.41-2.15,3.64,3.64,0,0,0-.81-.62H72a1.79,1.79,0,0,0-1.71,1.91,2.15,2.15,0,0,0,0,.45l7.94,20.38,4.32-5.54Zm5.39-32c-.12-1.46.45-2.25,1.68-2.36H76.19a4.15,4.15,0,0,1,2.36,2.91l8.86,31.59,11-31.13a6.88,6.88,0,0,1,2.34-3.36H95a2.1,2.1,0,0,1,1.51,1.94,2.26,2.26,0,0,1-.18.83L89,55.46Z"/><path class="cls-9" d="M70.37,70.32l-.25.55-.12,0-.14,0a.33.33,0,0,0-.27.12.41.41,0,0,0-.11.29v.51h.59v.57h-.59v2.62h-.6V72.3h-.39v-.57h.39v-.47a1,1,0,0,1,.25-.7,1,1,0,0,1,.78-.31h.25A.83.83,0,0,1,70.37,70.32Z"/><path class="cls-9" d="M72.25,70.58a.3.3,0,0,1-.1.24.29.29,0,0,1-.23.1.32.32,0,0,1-.33-.34.36.36,0,0,1,.09-.24.32.32,0,0,1,.24-.09.33.33,0,0,1,.23.09A.37.37,0,0,1,72.25,70.58Zm0,3.37h-.59V71.16h.59Z"/><path class="cls-9" d="M75.3,73.55,75,74a2.56,2.56,0,0,1-.68-.44,1,1,0,0,1-.21-.66v-1.2h-.34v-.57h.34v-.74l.59-.17v.91h.47v.57h-.47v1.1a.94.94,0,0,0,.05.34.52.52,0,0,0,.19.2Z"/><path class="cls-9" d="M79.36,74h-.6V72.4a.74.74,0,0,0-.17-.54.74.74,0,0,0-1,0,.7.7,0,0,0-.18.52V74h-.6V71.16h.6v.35a.91.91,0,0,1,.35-.32,1.12,1.12,0,0,1,.5-.11,1,1,0,0,1,.76.33,1.22,1.22,0,0,1,.32.86Z"/><path class="cls-9" d="M84,72.77h-2.3a.64.64,0,0,0,.26.51.88.88,0,0,0,.58.21,1,1,0,0,0,.8-.43l.51.28a1.75,1.75,0,0,1-.59.5,1.37,1.37,0,0,1-.7.19,1.44,1.44,0,0,1-1.12-.46,1.49,1.49,0,0,1,0-2,1.44,1.44,0,0,1,1.12-.46,1.38,1.38,0,0,1,.94.37,1.55,1.55,0,0,1,.5,1.2Zm-.7-.51a.92.92,0,0,0-.31-.48.79.79,0,0,0-.5-.16.77.77,0,0,0-.5.16.85.85,0,0,0-.29.48Z"/><path class="cls-9" d="M87.81,73.09a.86.86,0,0,1-.27.62,1.25,1.25,0,0,1-.9.32A1.57,1.57,0,0,1,86,73.9a1.92,1.92,0,0,1-.6-.37l.41-.41a1.53,1.53,0,0,0,.4.29,1.21,1.21,0,0,0,.47.12.61.61,0,0,0,.39-.12.27.27,0,0,0,.15-.24.25.25,0,0,0-.09-.21.57.57,0,0,0-.26-.11l-.34-.06a1.8,1.8,0,0,1-.79-.3.63.63,0,0,1-.21-.5.84.84,0,0,1,.28-.63,1.16,1.16,0,0,1,.81-.28,1.67,1.67,0,0,1,.55.09,2.34,2.34,0,0,1,.55.3l-.34.43a1.22,1.22,0,0,0-.39-.25,1,1,0,0,0-.36-.07.68.68,0,0,0-.35.09.3.3,0,0,0-.15.26c0,.16.12.25.36.29l.6.12C87.57,72.43,87.81,72.68,87.81,73.09Z"/><path class="cls-9" d="M91.53,73.09a.86.86,0,0,1-.27.62,1.25,1.25,0,0,1-.9.32,1.57,1.57,0,0,1-.65-.13,2,2,0,0,1-.6-.37l.41-.41a1.53,1.53,0,0,0,.4.29,1.21,1.21,0,0,0,.47.12.59.59,0,0,0,.39-.12.29.29,0,0,0,.16-.24.26.26,0,0,0-.1-.21.57.57,0,0,0-.26-.11l-.34-.06a1.8,1.8,0,0,1-.79-.3.63.63,0,0,1-.21-.5.84.84,0,0,1,.28-.63,1.16,1.16,0,0,1,.81-.28,1.63,1.63,0,0,1,.55.09,2.34,2.34,0,0,1,.55.3l-.34.43a1.22,1.22,0,0,0-.39-.25,1,1,0,0,0-.35-.07.69.69,0,0,0-.36.09.3.3,0,0,0-.15.26c0,.16.12.25.36.29l.6.12C91.29,72.43,91.53,72.68,91.53,73.09Z"/><path class="cls-6" d="M308.59,53.32h-.89v1.59h-1.11V49.47h2a1.69,1.69,0,0,1,1.94,1.88,2,2,0,0,1-.49,1.46A1.93,1.93,0,0,1,308.59,53.32Zm-.89-.94h.88c.55,0,.83-.34.83-1a1.09,1.09,0,0,0-.2-.72.81.81,0,0,0-.63-.22h-.88Z"/><path class="cls-6" d="M312.41,53.08v1.83H311.3V49.47h2.12c1.28,0,1.92.59,1.92,1.79a1.73,1.73,0,0,1-.8,1.57l.77,2.08H314.1l-.63-1.83ZM314,51.9a1,1,0,0,0,.19-.63.9.9,0,0,0-.21-.63.74.74,0,0,0-.58-.23h-1v1.73h1A.72.72,0,0,0,314,51.9Z"/><path class="cls-6" d="M320,54.33a2.62,2.62,0,0,1-3.5,0,3.54,3.54,0,0,1-.51-2.12,3.65,3.65,0,0,1,.51-2.14,2.54,2.54,0,0,1,3.5,0,3.65,3.65,0,0,1,.51,2.14A3.54,3.54,0,0,1,320,54.33Zm-2.63-.71a1.13,1.13,0,0,0,1.76,0,3,3,0,0,0,.24-1.41,3.2,3.2,0,0,0-.24-1.43,1.09,1.09,0,0,0-1.76,0,3.2,3.2,0,0,0-.24,1.43A3,3,0,0,0,317.4,53.62Z"/><path class="cls-6" d="M323.74,53V52h1.59v2.83a12.55,12.55,0,0,1-1.86.18,2,2,0,0,1-1.75-.68,3.89,3.89,0,0,1-.47-2.16,3.58,3.58,0,0,1,.49-2.13,2,2,0,0,1,1.69-.66,8.65,8.65,0,0,1,1.61.17l.29.05,0,.86a14.92,14.92,0,0,0-1.58-.1,1.83,1.83,0,0,0-.86.14.9.9,0,0,0-.36.53,5.07,5.07,0,0,0-.12,1.33,2.61,2.61,0,0,0,.24,1.32c.15.25.47.37,1,.37l.66,0V53Z"/><path class="cls-6" d="M327.47,53.08v1.83h-1.1V49.47h2.11c1.28,0,1.92.59,1.92,1.79a1.73,1.73,0,0,1-.8,1.57l.78,2.08h-1.21l-.63-1.83Zm1.61-1.18a1,1,0,0,0,.19-.63,1,1,0,0,0-.2-.63.76.76,0,0,0-.59-.23h-1v1.73h1A.7.7,0,0,0,329.08,51.9Z"/><path class="cls-6" d="M330.81,54.91,332,49.47h2.1l1.22,5.44h-1.1l-.22-1h-1.9l-.22,1Zm2.08-4.53L332.34,53h1.48l-.55-2.58Z"/><path class="cls-6" d="M336.08,54.91V49.47H338l1,4,1-4h1.88v5.44h-1.1V50.7h-.12l-1.07,4h-1.1l-1.07-4h-.12v4.21Z"/><path class="cls-6" d="M342.49,54.91l1.22-5.44h2.1L347,54.91h-1.1l-.22-1h-1.9l-.22,1Zm2.08-4.53L344,53h1.48L345,50.38Z"/><path class="cls-6" d="M349.38,50.33c-.59,0-.88.19-.88.58a.44.44,0,0,0,.22.39,5.51,5.51,0,0,0,1,.39,2.81,2.81,0,0,1,1.12.58,1.4,1.4,0,0,1,.32,1,1.61,1.61,0,0,1-.52,1.29,2.06,2.06,0,0,1-1.36.44,7.37,7.37,0,0,1-1.53-.19l-.29-.06.11-.85a14.51,14.51,0,0,0,1.64.14c.57,0,.85-.23.85-.7a.46.46,0,0,0-.19-.4,2.82,2.82,0,0,0-.79-.31,3.26,3.26,0,0,1-1.3-.63,1.31,1.31,0,0,1-.38-1,1.47,1.47,0,0,1,.49-1.22,2.1,2.1,0,0,1,1.36-.4,8.72,8.72,0,0,1,1.51.16l.28.06-.08.87A15.48,15.48,0,0,0,349.38,50.33Z"/><path class="cls-6" d="M383.25,54.91V49.47h3.52v1h-2.42V51.7h1.94v.94h-1.94V54h2.42v1Z"/><path class="cls-6" d="M387.24,55.47v-1a.7.7,0,0,0,.46-.12.55.55,0,0,0,.15-.45V49.47h1.09V54a1.42,1.42,0,0,1-.39,1.17A2.2,2.2,0,0,1,387.24,55.47Z"/><path class="cls-6" d="M390.09,54.91V49.47h3.52v1H391.2V51.7h1.93v.94H391.2V54h2.41v1Z"/><path class="cls-6" d="M395.63,53.08v1.83h-1.1V49.47h2.11c1.28,0,1.92.59,1.92,1.79a1.73,1.73,0,0,1-.8,1.57l.77,2.08h-1.2l-.64-1.83Zm1.61-1.18a1,1,0,0,0,.19-.63,1,1,0,0,0-.2-.63.78.78,0,0,0-.59-.23h-1v1.73h1A.71.71,0,0,0,397.24,51.9Z"/><path class="cls-6" d="M402.93,54.82a7.34,7.34,0,0,1-1.52.18,2.74,2.74,0,0,1-1.09-.17,1.34,1.34,0,0,1-.64-.53,2.38,2.38,0,0,1-.32-.87,7.08,7.08,0,0,1-.09-1.24,4,4,0,0,1,.44-2.2,1.9,1.9,0,0,1,1.64-.62,6.63,6.63,0,0,1,1.59.22l0,.88a9.15,9.15,0,0,0-1.32-.12,1.38,1.38,0,0,0-.74.14.89.89,0,0,0-.34.53,5.84,5.84,0,0,0-.1,1.33,2.7,2.7,0,0,0,.22,1.31,1,1,0,0,0,.88.37,8.83,8.83,0,0,0,1.4-.12Z"/><path class="cls-6" d="M403.83,54.91V49.47h1.1v5.44Z"/><path class="cls-6" d="M409.57,54.82A7.51,7.51,0,0,1,408,55a2.74,2.74,0,0,1-1.09-.17,1.34,1.34,0,0,1-.64-.53,2.57,2.57,0,0,1-.32-.87,7.08,7.08,0,0,1-.09-1.24,3.92,3.92,0,0,1,.45-2.2,1.88,1.88,0,0,1,1.63-.62,6.63,6.63,0,0,1,1.59.22l0,.88a9,9,0,0,0-1.31-.12,1.42,1.42,0,0,0-.75.14.84.84,0,0,0-.33.53,5.19,5.19,0,0,0-.11,1.33,2.7,2.7,0,0,0,.22,1.31,1,1,0,0,0,.88.37,8.73,8.73,0,0,0,1.4-.12Z"/><path class="cls-6" d="M410.46,54.91V49.47h1.11v5.44Z"/><path class="cls-6" d="M416.51,54.33a2.61,2.61,0,0,1-3.49,0,3.54,3.54,0,0,1-.51-2.12,3.65,3.65,0,0,1,.51-2.14,2.53,2.53,0,0,1,3.49,0,3.65,3.65,0,0,1,.51,2.14A3.54,3.54,0,0,1,416.51,54.33Zm-2.63-.71a1.14,1.14,0,0,0,1.77,0,3,3,0,0,0,.24-1.41,3.2,3.2,0,0,0-.24-1.43.91.91,0,0,0-.88-.45.9.9,0,0,0-.88.45,3.2,3.2,0,0,0-.24,1.43A3,3,0,0,0,413.88,53.62Z"/><path class="cls-6" d="M419.64,50.33c-.58,0-.87.19-.87.58a.44.44,0,0,0,.21.39,5.85,5.85,0,0,0,1,.39,2.74,2.74,0,0,1,1.12.58,1.4,1.4,0,0,1,.32,1,1.58,1.58,0,0,1-.52,1.29,2.06,2.06,0,0,1-1.36.44,7.37,7.37,0,0,1-1.53-.19l-.29-.06.12-.85a14.33,14.33,0,0,0,1.64.14c.56,0,.84-.23.84-.7a.46.46,0,0,0-.19-.4,2.6,2.6,0,0,0-.78-.31,3.24,3.24,0,0,1-1.31-.63,1.34,1.34,0,0,1-.38-1,1.48,1.48,0,0,1,.5-1.22,2.08,2.08,0,0,1,1.36-.4,8.72,8.72,0,0,1,1.5.16l.29.06-.09.87A15.07,15.07,0,0,0,419.64,50.33Z"/><path class="cls-6" d="M451.14,53.32h-.89v1.59h-1.11V49.47h2a1.69,1.69,0,0,1,1.94,1.88,2,2,0,0,1-.5,1.46A1.89,1.89,0,0,1,451.14,53.32Zm-.89-.94h.88c.55,0,.83-.34.83-1a1.09,1.09,0,0,0-.2-.72.81.81,0,0,0-.63-.22h-.88Z"/><path class="cls-6" d="M457,54.91h-3.1V49.47H455v4.46h2Z"/><path class="cls-6" d="M457.17,54.91l1.23-5.44h2.09l1.23,5.44h-1.11l-.21-1h-1.91l-.21,1Zm2.08-4.53L458.7,53h1.49l-.55-2.58Z"/><path class="cls-6" d="M462.44,54.91V49.47h1.87L465.62,54h.08V49.47h1.1v5.44H465l-1.36-4.48h-.08v4.48Z"/><path class="cls-6" d="M468,54.91V49.47h3.52v1h-2.42V51.7H471v.94h-1.94V54h2.42v1Z"/><path class="cls-6" d="M474.09,50.33c-.58,0-.87.19-.87.58a.43.43,0,0,0,.22.39,5.51,5.51,0,0,0,1,.39,2.69,2.69,0,0,1,1.11.58,1.35,1.35,0,0,1,.32,1,1.58,1.58,0,0,1-.52,1.29A2,2,0,0,1,474,55a7.36,7.36,0,0,1-1.52-.19l-.29-.06.11-.85a14.33,14.33,0,0,0,1.64.14c.57,0,.85-.23.85-.7a.47.47,0,0,0-.2-.4,2.6,2.6,0,0,0-.78-.31A3.31,3.31,0,0,1,472.5,52a1.34,1.34,0,0,1-.38-1,1.48,1.48,0,0,1,.5-1.22,2.08,2.08,0,0,1,1.36-.4,8.53,8.53,0,0,1,1.5.16l.29.06-.09.87A15.07,15.07,0,0,0,474.09,50.33Z"/><path class="cls-6" d="M502.08,54.91V49.47h3.47v1h-2.37V52h1.94v1h-1.94v1.92Z"/><path class="cls-6" d="M505.7,54.91l1.23-5.44H509l1.23,5.44h-1.11l-.21-1H507l-.21,1Zm2.08-4.53L507.23,53h1.49l-.55-2.58Z"/><path class="cls-6" d="M512.91,55a2,2,0,0,1-1.75-.67,3.52,3.52,0,0,1-.51-2.12,3.65,3.65,0,0,1,.51-2.14,2.54,2.54,0,0,1,3.5,0,3.66,3.66,0,0,1,.51,2.15,2.81,2.81,0,0,1-.84,2.39l.66,1.07-1,.47L513.26,55A2.18,2.18,0,0,1,512.91,55ZM512,53.63a1.15,1.15,0,0,0,1.76,0,3,3,0,0,0,.24-1.41,3.22,3.22,0,0,0-.24-1.44,1.09,1.09,0,0,0-1.76,0,3.22,3.22,0,0,0-.24,1.44A3,3,0,0,0,512,53.63Z"/><path class="cls-6" d="M561,49.94a1.05,1.05,0,0,0-.23-.36,1.23,1.23,0,0,0-.36-.23,1.93,1.93,0,0,0-.58-.11h-2.51a2,2,0,0,0-.58.11,1,1,0,0,0-.59.59,2,2,0,0,0-.11.58c0,.33,0,.43,0,1.26s0,.92,0,1.25a1.93,1.93,0,0,0,.11.58,1.11,1.11,0,0,0,.23.36,1.05,1.05,0,0,0,.36.23,2,2,0,0,0,.58.11c.33,0,.43,0,1.26,0s.92,0,1.25,0a1.93,1.93,0,0,0,.58-.11,1.05,1.05,0,0,0,.36-.23,1,1,0,0,0,.23-.36,1.93,1.93,0,0,0,.11-.58c0-.33,0-.42,0-1.25s0-.93,0-1.26A2,2,0,0,0,561,49.94Zm-2.42,3.43a1.6,1.6,0,1,1,1.59-1.59A1.59,1.59,0,0,1,558.6,53.37Zm1.66-2.88a.38.38,0,1,1,.37-.37A.38.38,0,0,1,560.26,50.49Z"/><path class="cls-6" d="M558.6,46.84a4.94,4.94,0,1,0,4.93,4.94A4.94,4.94,0,0,0,558.6,46.84Zm3.09,6.22a2.24,2.24,0,0,1-.15.75,1.61,1.61,0,0,1-.91.91,2.3,2.3,0,0,1-.75.15c-.33,0-.44,0-1.28,0s-1,0-1.29,0a2.3,2.3,0,0,1-.75-.15,1.61,1.61,0,0,1-.91-.91,2.24,2.24,0,0,1-.15-.75c0-.33,0-.44,0-1.28s0-1,0-1.29a2.3,2.3,0,0,1,.15-.75,1.38,1.38,0,0,1,.36-.55,1.5,1.5,0,0,1,.55-.36,2.08,2.08,0,0,1,.75-.14c.34,0,.44,0,1.29,0s.95,0,1.28,0a2.08,2.08,0,0,1,.75.14,1.5,1.5,0,0,1,.55.36,1.38,1.38,0,0,1,.36.55,2.3,2.3,0,0,1,.15.75c0,.34,0,.44,0,1.29S561.7,52.73,561.69,53.06Z"/><path class="cls-6" d="M558.6,50.74a1,1,0,1,0,1,1A1,1,0,0,0,558.6,50.74Z"/><polygon class="cls-6" points="572.17 52.76 573.88 51.78 572.17 50.79 572.17 52.76"/><path class="cls-6" d="M572.83,46.84a4.94,4.94,0,1,0,4.94,4.94A4.94,4.94,0,0,0,572.83,46.84ZM576,53.36a.81.81,0,0,1-.58.58,23.66,23.66,0,0,1-5.14,0,.82.82,0,0,1-.59-.58,9,9,0,0,1-.13-1.58,9.08,9.08,0,0,1,.13-1.59.82.82,0,0,1,.59-.58,23.66,23.66,0,0,1,5.14,0,.81.81,0,0,1,.58.58,8.45,8.45,0,0,1,.14,1.59A8.36,8.36,0,0,1,576,53.36Z"/><path class="cls-6" d="M549.3,51.81a4.94,4.94,0,1,0-5.71,4.88V53.23h-1.25V51.81h1.25V50.72a1.74,1.74,0,0,1,1.87-1.92,8,8,0,0,1,1.1.09v1.22h-.62a.72.72,0,0,0-.81.77v.93h1.37l-.21,1.42h-1.16v3.46A5,5,0,0,0,549.3,51.81Z"/><rect class="cls-9" y="317.78" width="612" height="4.46"/><path class="cls-6" d="M195.15,367.86a.45.45,0,0,1-.44-.42.44.44,0,0,1,.41-.46,5.34,5.34,0,0,0,3.74-2,6.91,6.91,0,0,0,1.16-1.86,11.65,11.65,0,0,0,.53-4.05l0-21.92a2.64,2.64,0,0,0-.94-2.17,2.45,2.45,0,0,0-.92-.52.42.42,0,0,1-.3-.48.43.43,0,0,1,.43-.38l8.44,0a.46.46,0,0,1,.44.38.44.44,0,0,1-.31.49A2.66,2.66,0,0,0,206,336a8.51,8.51,0,0,0-.49,1.23v21.89c0,1.8-1,3.71-3,5.67a10.64,10.64,0,0,1-7.37,3.08Z"/><path class="cls-9" d="M201,337.16a3.08,3.08,0,0,0-1.1-2.51,3,3,0,0,0-1.07-.6l8.44,0a3,3,0,0,0-1.63,1.7,8.89,8.89,0,0,0-.54,1.37v21.95q0,2.53-2.83,5.35a10.12,10.12,0,0,1-7.08,3,5.79,5.79,0,0,0,4-2.14,7.48,7.48,0,0,0,1.23-2,11.85,11.85,0,0,0,.57-4.23Z"/><path class="cls-6" d="M210.52,361.69,203,342.38a3.42,3.42,0,0,0-.87-1.31,2.16,2.16,0,0,0-.49-.38h5.28a1.1,1.1,0,0,0-1,1.16,1.14,1.14,0,0,0,0,.28l4.86,12.47,2.64-3.39Zm3.3-19.55c-.08-.9.27-1.38,1-1.44h-5.33a2.56,2.56,0,0,1,1.45,1.78l5.42,19.33,6.72-19.05a4.2,4.2,0,0,1,1.43-2.05H221a1.28,1.28,0,0,1,.92,1.19,1.48,1.48,0,0,1-.1.51l-4.5,11.6Z"/><path class="cls-6" d="M210.85,361.56l-7.52-19.3a3.86,3.86,0,0,0-1-1.45,3.1,3.1,0,0,0-.56-.43.36.36,0,0,1,.16.4.35.35,0,0,1-.34.26h5.28a.36.36,0,0,1-.35-.33.35.35,0,0,1,.29-.38,1.45,1.45,0,0,0-1.34,1.51,1.9,1.9,0,0,0,0,.35l0,.06,4.86,12.47a.34.34,0,0,0,.28.22.36.36,0,0,0,.33-.13l2.64-3.39a.37.37,0,0,1-.44.1.36.36,0,0,1-.18-.42l-2.89,10.49a.36.36,0,0,1,.68,0ZM213.12,351l-2.64,3.39a.35.35,0,0,1,.33-.13.35.35,0,0,1,.28.22L206.23,342s0,0,0,.06a1.23,1.23,0,0,1,0-.2c0-.49.22-.73.75-.82a.36.36,0,0,0,.3-.38.37.37,0,0,0-.36-.33h-5.28a.38.38,0,0,0-.35.26.36.36,0,0,0,.17.4,2.6,2.6,0,0,1,.43.33,3.11,3.11,0,0,1,.77,1.19l7.53,19.31a.35.35,0,0,0,.67,0l2.88-10.49a.35.35,0,0,0-.18-.41A.37.37,0,0,0,213.12,351Z"/><path class="cls-6" d="M214.17,342.11c-.07-.87.3-1,.71-1.06a.36.36,0,0,0,0-.71h-5.33a.34.34,0,0,0-.34.28.35.35,0,0,0,.2.4,2.15,2.15,0,0,1,1.24,1.55L216,361.89a.36.36,0,0,0,.34.26.34.34,0,0,0,.34-.24l6.73-19v0a3.9,3.9,0,0,1,1.28-1.88.36.36,0,0,0,.16-.4.34.34,0,0,0-.34-.26H221a.36.36,0,0,0-.35.29.34.34,0,0,0,.21.39c.63.28.71.63.71.87a1,1,0,0,1-.09.38L217,353.87a.38.38,0,0,1,.35-.23.35.35,0,0,1,.32.26L214.16,342S214.17,342.09,214.17,342.11Zm3.51,12,4.49-11.61a1.92,1.92,0,0,0,.13-.63,1.64,1.64,0,0,0-1.14-1.52.36.36,0,0,1,.21.4.35.35,0,0,1-.35.28h3.51a.36.36,0,0,1-.18-.66,4.42,4.42,0,0,0-1.58,2.22v0l-6.73,19a.35.35,0,0,1,.35-.24.35.35,0,0,1,.33.26l-5.42-19.32a2.9,2.9,0,0,0-1.65-2,.36.36,0,0,1-.14.69h5.33a.36.36,0,0,1,0-.71c-.55.05-1.47.35-1.35,1.83,0,0,0,.05,0,.07L217,354.1a.36.36,0,0,0,.33.25A.36.36,0,0,0,217.68,354.13Z"/><path class="cls-9" d="M210.52,361.69,203,342.38a3.42,3.42,0,0,0-.87-1.31,2.16,2.16,0,0,0-.49-.38h5.28a1.1,1.1,0,0,0-1,1.16,1.14,1.14,0,0,0,0,.28l4.86,12.47,2.64-3.39Zm3.3-19.55c-.08-.9.27-1.38,1-1.44h-5.33a2.56,2.56,0,0,1,1.45,1.78l5.42,19.33,6.72-19.05a4.2,4.2,0,0,1,1.43-2.05H221a1.28,1.28,0,0,1,.92,1.19,1.48,1.48,0,0,1-.1.51l-4.5,11.6Z"/><path class="cls-9" d="M206,363.09l-.15.33-.07,0h-.09a.19.19,0,0,0-.16.07.24.24,0,0,0-.07.18V364h.36v.35h-.36v1.6h-.36v-1.6h-.24V364h.24v-.29a.64.64,0,0,1,.14-.42.63.63,0,0,1,.48-.2h.15A.4.4,0,0,1,206,363.09Z"/><path class="cls-9" d="M207.1,363.25a.18.18,0,0,1-.2.2.24.24,0,0,1-.14-.05.22.22,0,0,1,0-.3.17.17,0,0,1,.14-.06.18.18,0,0,1,.14.06A.2.2,0,0,1,207.1,363.25Zm0,2.06h-.36V363.6h.36Z"/><path class="cls-9" d="M209,365.06l-.16.3a1.43,1.43,0,0,1-.41-.27.57.57,0,0,1-.13-.4V364h-.21v-.35h.21v-.45l.36-.11v.56h.29V364h-.29v.67a.51.51,0,0,0,0,.21.23.23,0,0,0,.12.12Z"/><path class="cls-9" d="M211.45,365.31h-.36v-.95A.45.45,0,0,0,211,364a.41.41,0,0,0-.3-.11.4.4,0,0,0-.29.11.44.44,0,0,0-.12.32v1h-.36V363.6h.36v.22a.53.53,0,0,1,.22-.2.65.65,0,0,1,.77.14.71.71,0,0,1,.19.52Z"/><path class="cls-9" d="M214.29,364.58h-1.41a.39.39,0,0,0,.16.32.52.52,0,0,0,.36.13.62.62,0,0,0,.49-.26l.3.17a1.1,1.1,0,0,1-.35.3.88.88,0,0,1-.43.12.91.91,0,0,1-.69-1.53.88.88,0,0,1,.69-.28.85.85,0,0,1,.57.23,1,1,0,0,1,.31.73Zm-.43-.3a.58.58,0,0,0-.19-.3.48.48,0,0,0-.31-.1.44.44,0,0,0-.3.1.51.51,0,0,0-.18.3Z"/><path class="cls-9" d="M216.62,364.78a.51.51,0,0,1-.16.38.78.78,0,0,1-.56.2,1,1,0,0,1-.39-.08,1.33,1.33,0,0,1-.37-.23l.25-.25a.74.74,0,0,0,.25.17.63.63,0,0,0,.28.08.49.49,0,0,0,.25-.07.19.19,0,0,0,.09-.15.18.18,0,0,0-.06-.13.34.34,0,0,0-.16-.06l-.21,0a1,1,0,0,1-.48-.19.38.38,0,0,1-.13-.3.51.51,0,0,1,.18-.39.71.71,0,0,1,.49-.17,1,1,0,0,1,.34.06,1.84,1.84,0,0,1,.33.18l-.21.26a.65.65,0,0,0-.23-.15.64.64,0,0,0-.22,0,.48.48,0,0,0-.22.05.19.19,0,0,0-.09.16c0,.1.07.16.22.18l.37.07C216.47,364.38,216.62,364.53,216.62,364.78Z"/><path class="cls-9" d="M218.9,364.78a.52.52,0,0,1-.17.38.74.74,0,0,1-.55.2,1.1,1.1,0,0,1-.4-.08,1.45,1.45,0,0,1-.36-.23l.25-.25a.65.65,0,0,0,.25.17.6.6,0,0,0,.28.08.43.43,0,0,0,.24-.07c.06-.05.1-.09.1-.15a.18.18,0,0,0-.06-.13.34.34,0,0,0-.16-.06l-.21,0a.9.9,0,0,1-.48-.19.35.35,0,0,1-.13-.3.54.54,0,0,1,.17-.39.73.73,0,0,1,.49-.17.93.93,0,0,1,.34.06,1.61,1.61,0,0,1,.34.18l-.21.26a.79.79,0,0,0-.24-.15.6.6,0,0,0-.22,0,.46.46,0,0,0-.21.05.18.18,0,0,0-.1.16c0,.1.08.16.22.18l.37.07C218.75,364.38,218.9,364.53,218.9,364.78Z"/><path d="M238,336.5h-.67v1.19h-.83v-4.08H238a1.27,1.27,0,0,1,1.45,1.42,1.48,1.48,0,0,1-.37,1.09A1.41,1.41,0,0,1,238,336.5Zm-.67-.7H238c.42,0,.62-.26.62-.77a.79.79,0,0,0-.15-.54.61.61,0,0,0-.47-.17h-.66Z"/><path d="M240.89,336.32v1.37h-.83v-4.08h1.59q1.44,0,1.44,1.35a1.28,1.28,0,0,1-.6,1.17l.58,1.56h-.91l-.47-1.37Zm1.21-.88a.78.78,0,0,0,.14-.48.72.72,0,0,0-.15-.47.57.57,0,0,0-.44-.17h-.76v1.3h.77A.54.54,0,0,0,242.1,335.44Z"/><path d="M246.61,337.26a2,2,0,0,1-2.63,0,2.7,2.7,0,0,1-.38-1.59,2.75,2.75,0,0,1,.38-1.6,1.9,1.9,0,0,1,2.63,0,2.75,2.75,0,0,1,.38,1.6A2.7,2.7,0,0,1,246.61,337.26Zm-2-.53a.69.69,0,0,0,.66.31.7.7,0,0,0,.67-.31,2.29,2.29,0,0,0,.17-1.06,2.54,2.54,0,0,0-.17-1.07.7.7,0,0,0-.67-.34.67.67,0,0,0-.66.34,2.39,2.39,0,0,0-.17,1.07A2.29,2.29,0,0,0,244.63,336.73Z"/><path d="M249.39,336.23v-.72h1.19v2.12a9.27,9.27,0,0,1-1.39.13,1.49,1.49,0,0,1-1.31-.51,2.86,2.86,0,0,1-.36-1.62,2.75,2.75,0,0,1,.37-1.6,1.49,1.49,0,0,1,1.27-.49,5.85,5.85,0,0,1,1.2.13l.22,0,0,.64c-.48-.05-.88-.08-1.18-.08a1.43,1.43,0,0,0-.65.11.68.68,0,0,0-.27.4,3.81,3.81,0,0,0-.09,1,1.93,1.93,0,0,0,.18,1c.11.19.35.28.72.28l.5,0v-.79Z"/><path d="M252.19,336.32v1.37h-.83v-4.08h1.58q1.44,0,1.44,1.35a1.27,1.27,0,0,1-.59,1.17l.58,1.56h-.91l-.47-1.37Zm1.21-.88a.78.78,0,0,0,.14-.48.72.72,0,0,0-.15-.47.6.6,0,0,0-.45-.17h-.75v1.3H253A.54.54,0,0,0,253.4,335.44Z"/><path d="M254.69,337.69l.92-4.08h1.57l.92,4.08h-.83l-.16-.74h-1.43l-.16.74Zm1.56-3.39-.41,1.93H257l-.41-1.93Z"/><path d="M258.64,337.69v-4.08h1.41l.72,3,.72-3h1.41v4.08h-.82v-3.15H262l-.8,3h-.83l-.8-3h-.09v3.15Z"/><path d="M263.45,337.69l.92-4.08h1.57l.92,4.08H266l-.16-.74h-1.43l-.16.74ZM265,334.3l-.41,1.93h1.11l-.41-1.93Z"/><path d="M268.62,334.26c-.44,0-.66.14-.66.43a.35.35,0,0,0,.16.3,6,6,0,0,0,.76.29,2,2,0,0,1,.84.44,1,1,0,0,1,.24.74,1.19,1.19,0,0,1-.39,1,1.53,1.53,0,0,1-1,.33,5.47,5.47,0,0,1-1.15-.14l-.21,0,.08-.64a10.16,10.16,0,0,0,1.23.1c.43,0,.64-.17.64-.52a.34.34,0,0,0-.15-.3,2,2,0,0,0-.58-.24,2.34,2.34,0,0,1-1-.47,1,1,0,0,1-.29-.76,1.09,1.09,0,0,1,.37-.91,1.59,1.59,0,0,1,1-.3,6.8,6.8,0,0,1,1.13.12l.22,0-.07.66A10.8,10.8,0,0,0,268.62,334.26Z"/><path d="M291.7,337.76v-4.08h2.64v.72h-1.81v1H294v.71h-1.45v1h1.81v.72Z"/><path d="M294.69,338.18v-.72a.54.54,0,0,0,.35-.09.42.42,0,0,0,.11-.33v-3.36H296v3.39a1.08,1.08,0,0,1-.3.89A1.64,1.64,0,0,1,294.69,338.18Z"/><path d="M296.83,337.76v-4.08h2.64v.72h-1.81v1h1.45v.71h-1.45v1h1.81v.72Z"/><path d="M301,336.4v1.36h-.83v-4.08h1.58q1.44,0,1.44,1.35a1.28,1.28,0,0,1-.6,1.17l.58,1.56h-.9l-.48-1.36Zm1.2-.89a.73.73,0,0,0,.15-.48.67.67,0,0,0-.16-.46.54.54,0,0,0-.44-.18H301v1.3h.76A.52.52,0,0,0,302.19,335.51Z"/><path d="M306.46,337.7a5.52,5.52,0,0,1-1.14.14,2.31,2.31,0,0,1-.82-.13,1,1,0,0,1-.48-.4,2.09,2.09,0,0,1-.24-.65,6.08,6.08,0,0,1-.06-.94,3,3,0,0,1,.33-1.64,1.42,1.42,0,0,1,1.23-.47,5.67,5.67,0,0,1,1.19.16l0,.66a6.92,6.92,0,0,0-1-.09,1.1,1.1,0,0,0-.56.11.63.63,0,0,0-.25.4,3.93,3.93,0,0,0-.08,1,2.06,2.06,0,0,0,.16,1,.71.71,0,0,0,.66.27,6.72,6.72,0,0,0,1.06-.08Z"/><path d="M307.13,337.76v-4.08H308v4.08Z"/><path d="M311.44,337.7a5.69,5.69,0,0,1-1.15.14,2.21,2.21,0,0,1-.81-.13,1,1,0,0,1-.48-.4,1.69,1.69,0,0,1-.24-.65,4.94,4.94,0,0,1-.07-.94,3,3,0,0,1,.33-1.64,1.42,1.42,0,0,1,1.23-.47,5.67,5.67,0,0,1,1.19.16l0,.66a6.92,6.92,0,0,0-1-.09,1.1,1.1,0,0,0-.56.11.68.68,0,0,0-.25.4,4.47,4.47,0,0,0-.08,1,2,2,0,0,0,.17,1,.71.71,0,0,0,.66.27,6.51,6.51,0,0,0,1.05-.08Z"/><path d="M312.11,337.76v-4.08h.83v4.08Z"/><path d="M316.65,337.33a1.94,1.94,0,0,1-2.62,0,2.62,2.62,0,0,1-.38-1.59,2.68,2.68,0,0,1,.38-1.6,1.88,1.88,0,0,1,2.62,0,2.75,2.75,0,0,1,.38,1.6A2.7,2.7,0,0,1,316.65,337.33Zm-2-.53a.85.85,0,0,0,1.33,0,2.24,2.24,0,0,0,.18-1.05,2.39,2.39,0,0,0-.18-1.08.81.81,0,0,0-1.32,0,3.33,3.33,0,0,0,0,2.13Z"/><path d="M319,334.33c-.43,0-.65.15-.65.43a.33.33,0,0,0,.16.3,4.33,4.33,0,0,0,.76.29,1.91,1.91,0,0,1,.83.44,1,1,0,0,1,.24.74,1.21,1.21,0,0,1-.38,1,1.55,1.55,0,0,1-1,.33,5.41,5.41,0,0,1-1.14-.15l-.22,0,.09-.64a10.29,10.29,0,0,0,1.23.11c.42,0,.63-.18.63-.53a.36.36,0,0,0-.14-.3,2.44,2.44,0,0,0-.59-.24,2.29,2.29,0,0,1-1-.47,1,1,0,0,1-.28-.76,1.1,1.1,0,0,1,.37-.91,1.57,1.57,0,0,1,1-.3,6.9,6.9,0,0,1,1.13.12l.21,0-.06.66A11.11,11.11,0,0,0,319,334.33Z"/><path d="M343.57,336.58h-.67v1.18h-.83v-4.08h1.5A1.28,1.28,0,0,1,345,335.1a1.55,1.55,0,0,1-.37,1.1A1.47,1.47,0,0,1,343.57,336.58Zm-.67-.71h.67c.41,0,.62-.26.62-.77a.85.85,0,0,0-.15-.54.61.61,0,0,0-.47-.17h-.67Z"/><path d="M347.93,337.76h-2.32v-4.08h.82V337h1.5Z"/><path d="M348.1,337.76l.91-4.08h1.58l.91,4.08h-.82l-.17-.73h-1.42l-.17.73Zm1.56-3.39-.42,1.94h1.12l-.41-1.94Z"/><path d="M352.05,337.76v-4.08h1.4l1,3.36h.06v-3.36h.83v4.08H354l-1-3.36h-.06v3.36Z"/><path d="M356.21,337.76v-4.08h2.64v.72H357v1h1.45v.71H357v1h1.81v.72Z"/><path d="M360.79,334.33c-.44,0-.66.15-.66.43a.35.35,0,0,0,.16.3,4.71,4.71,0,0,0,.76.29,2,2,0,0,1,.84.44,1,1,0,0,1,.24.74,1.22,1.22,0,0,1-.39,1,1.53,1.53,0,0,1-1,.33,5.57,5.57,0,0,1-1.15-.15l-.21,0,.08-.64a10.64,10.64,0,0,0,1.23.11c.43,0,.64-.18.64-.53a.34.34,0,0,0-.15-.3,2.32,2.32,0,0,0-.58-.24,2.23,2.23,0,0,1-1-.47,1,1,0,0,1-.29-.76,1.1,1.1,0,0,1,.37-.91,1.59,1.59,0,0,1,1-.3,6.69,6.69,0,0,1,1.13.12l.22,0-.07.66A10.8,10.8,0,0,0,360.79,334.33Z"/><path d="M383.87,338.18V334.1h2.6v.72H384.7V336h1.45v.72H384.7v1.44Z"/><path d="M386.59,338.18l.91-4.08h1.58l.91,4.08h-.82l-.17-.73h-1.42l-.17.73Zm1.56-3.39-.42,1.94h1.12l-.42-1.94Z"/><path d="M392,338.26a1.53,1.53,0,0,1-1.31-.51,2.64,2.64,0,0,1-.38-1.58,2.77,2.77,0,0,1,.38-1.61,1.88,1.88,0,0,1,2.62,0,2.69,2.69,0,0,1,.38,1.61,2.1,2.1,0,0,1-.63,1.79l.5.81-.76.35-.53-.88A1.31,1.31,0,0,1,392,338.26Zm-.66-1a.7.7,0,0,0,.66.32.68.68,0,0,0,.66-.32,2.22,2.22,0,0,0,.18-1.05,2.39,2.39,0,0,0-.18-1.08.81.81,0,0,0-1.32,0,2.39,2.39,0,0,0-.18,1.08A2.22,2.22,0,0,0,391.33,337.22Z"/><path d="M265,346.92a1.53,1.53,0,0,1-1.17-.49,1.69,1.69,0,0,1-.46-1.19,1.65,1.65,0,0,1,.46-1.19,1.56,1.56,0,0,1,1.17-.48,1.48,1.48,0,0,1,1.16.49,1.8,1.8,0,0,1,0,2.38A1.51,1.51,0,0,1,265,346.92Zm-.93-2.64a1.36,1.36,0,0,0-.37,1,1.33,1.33,0,0,0,.37,1,1.18,1.18,0,0,0,.92.4,1.24,1.24,0,0,0,.93-.39,1.41,1.41,0,0,0,.37-1,1.38,1.38,0,0,0-.38-1,1.26,1.26,0,0,0-1.84,0Zm1,0a1.58,1.58,0,0,1,.47.07l0,.44a1.84,1.84,0,0,0-.39,0c-.12,0-.19,0-.23.1a.85.85,0,0,0-.06.38.93.93,0,0,0,.06.39.22.22,0,0,0,.22.12l.4,0,0,.41a1.3,1.3,0,0,1-.54.1.62.62,0,0,1-.52-.22,1.31,1.31,0,0,1-.17-.76,1.3,1.3,0,0,1,.17-.75A.73.73,0,0,1,265.07,344.28Z"/><path d="M269.9,347.85h-2.55v-.57l1-1a6,6,0,0,0,.63-.71,1,1,0,0,0,.18-.57.51.51,0,0,0-.18-.44.92.92,0,0,0-.57-.13,4.19,4.19,0,0,0-.82.08l-.15,0,0-.52a4.07,4.07,0,0,1,1.21-.18c.82,0,1.24.37,1.24,1.11a1.44,1.44,0,0,1-.19.75,3.83,3.83,0,0,1-.68.76l-.84.83h1.79Z"/><path d="M270.86,344.3a1.33,1.33,0,0,1,1.12-.48,1.35,1.35,0,0,1,1.13.48,2.69,2.69,0,0,1,.37,1.59,2.47,2.47,0,0,1-.38,1.56,1.35,1.35,0,0,1-1.12.46,1.37,1.37,0,0,1-1.12-.45,2.53,2.53,0,0,1-.38-1.57A2.66,2.66,0,0,1,270.86,344.3Zm1.74.43a.65.65,0,0,0-.62-.33.67.67,0,0,0-.62.33,2.56,2.56,0,0,0-.19,1.15,2.33,2.33,0,0,0,.2,1.14.68.68,0,0,0,.62.31.66.66,0,0,0,.61-.31,2.36,2.36,0,0,0,.19-1.14A2.43,2.43,0,0,0,272.6,344.73Z"/><path d="M276.62,347.85h-2.55v-.57l1-1a6,6,0,0,0,.63-.71,1,1,0,0,0,.18-.57.51.51,0,0,0-.18-.44.92.92,0,0,0-.57-.13,4.19,4.19,0,0,0-.82.08l-.15,0,0-.52a4.07,4.07,0,0,1,1.21-.18c.82,0,1.24.37,1.24,1.11a1.44,1.44,0,0,1-.19.75,3.83,3.83,0,0,1-.68.76l-.84.83h1.79Z"/><path d="M279.93,343.89v.59h-1.84l-.1,1a2,2,0,0,1,.8-.19c.85,0,1.28.4,1.28,1.19a1.43,1.43,0,0,1-.35,1,1.35,1.35,0,0,1-1,.36,3.48,3.48,0,0,1-.61-.05,4,4,0,0,1-.55-.1l-.2-.05.07-.5a7.3,7.3,0,0,0,1.21.11.7.7,0,0,0,.54-.19.72.72,0,0,0,.2-.54.66.66,0,0,0-.17-.51.6.6,0,0,0-.44-.16,2.19,2.19,0,0,0-.79.12l-.11,0-.42-.09.11-2.1Z"/><path d="M282.14,349.14V343.6h.64v5.54Z"/><path d="M284.66,347.85l1-4.11H287l1,4.11h-.68l-.22-.88h-1.58l-.22.88Zm1.53-3.55-.51,2.08H287l-.5-2.08Z"/><path d="M289.18,347.85h-.65v-3h.64V345a1.68,1.68,0,0,1,.83-.25.89.89,0,0,1,.82.34,2.12,2.12,0,0,1,.22,1.12v1.61h-.65v-1.59a1.61,1.61,0,0,0-.1-.69.44.44,0,0,0-.43-.21,1.48,1.48,0,0,0-.59.12l-.09,0Z"/><path d="M294.25,343.6v4.25h-.65v-.16a1.76,1.76,0,0,1-.8.22,1,1,0,0,1-.86-.35,2,2,0,0,1-.28-1.19,1.93,1.93,0,0,1,.31-1.21,1.13,1.13,0,0,1,.94-.38,5.16,5.16,0,0,1,.69.08V343.6Zm-.76,3.62.11,0V345.4a4.07,4.07,0,0,0-.67,0c-.4,0-.61.33-.61,1a1.42,1.42,0,0,0,.15.77.49.49,0,0,0,.44.21A1.4,1.4,0,0,0,293.49,347.22Z"/><path d="M295,347.85v-3h.65v.36a3,3,0,0,1,1-.43v.66a3.68,3.68,0,0,0-.88.26l-.13.05v2.1Z"/><path d="M299.32,347.31l.17,0v.48a5.69,5.69,0,0,1-1.21.14,1.15,1.15,0,0,1-1-.36,1.93,1.93,0,0,1-.29-1.17c0-1.07.43-1.6,1.3-1.6s1.26.46,1.26,1.37l0,.47H297.7a.84.84,0,0,0,.16.55.76.76,0,0,0,.58.17Zm-.36-1.19a1,1,0,0,0-.14-.62.56.56,0,0,0-.48-.18.6.6,0,0,0-.49.19,1,1,0,0,0-.16.61Z"/><path d="M299.91,344.85h.64l.64,2.44h.16l.63-2.44h.65l-1.14,4.29h-.64l.36-1.29h-.52Z"/><path d="M304.53,343.74h1.56a1.5,1.5,0,0,1,1,.25,1,1,0,0,1,.31.82,1.15,1.15,0,0,1-.12.57.9.9,0,0,1-.37.35.92.92,0,0,1,.59.95c0,.78-.44,1.17-1.31,1.17h-1.61Zm1.53.57h-.86v1.18h.88a.53.53,0,0,0,.59-.61C306.67,344.5,306.47,344.31,306.06,344.31Zm0,1.74h-.89v1.22h.91a.7.7,0,0,0,.49-.14.58.58,0,0,0,.17-.47.54.54,0,0,0-.2-.47A.78.78,0,0,0,306.09,346.05Z"/><path d="M308.16,347.85V343.6h.66v4.25Z"/><path d="M311.87,345.77v1.37a.22.22,0,0,0,.07.19.31.31,0,0,0,.19.09l0,.49a1.27,1.27,0,0,1-.8-.22,2.24,2.24,0,0,1-1,.22c-.6,0-.9-.31-.9-1a.82.82,0,0,1,.25-.66,1.29,1.29,0,0,1,.74-.25l.78-.06v-.22a.42.42,0,0,0-.11-.33.41.41,0,0,0-.31-.1,9.32,9.32,0,0,0-1,.05h-.19l0-.46a4.84,4.84,0,0,1,1.2-.16,1.08,1.08,0,0,1,.79.24A1,1,0,0,1,311.87,345.77Zm-1.35.75a.4.4,0,0,0-.41.45c0,.27.12.41.36.41a2.13,2.13,0,0,0,.64-.1l.11,0v-.8Z"/><path d="M313.34,347.85h-.65v-3h.65V345a1.61,1.61,0,0,1,.82-.25.89.89,0,0,1,.82.34,2.12,2.12,0,0,1,.22,1.12v1.61h-.65v-1.59a1.61,1.61,0,0,0-.1-.69.43.43,0,0,0-.43-.21,1.52,1.52,0,0,0-.59.12l-.09,0Z"/><path d="M317.09,344.78a4.57,4.57,0,0,1,.75.08l.15,0,0,.51c-.31,0-.55-.05-.7-.05a.72.72,0,0,0-.61.21,1.27,1.27,0,0,0-.16.77,1.42,1.42,0,0,0,.15.77c.1.15.31.22.63.22l.7-.05,0,.53a5.79,5.79,0,0,1-.92.1,1.13,1.13,0,0,1-1-.37,2,2,0,0,1-.28-1.2,1.86,1.86,0,0,1,.3-1.2A1.15,1.15,0,0,1,317.09,344.78Z"/><path d="M318.75,345.17a1.56,1.56,0,0,1,2.06,0,1.84,1.84,0,0,1,.31,1.17,2,2,0,0,1-.3,1.18,1.58,1.58,0,0,1-2.08,0,2,2,0,0,1-.3-1.18A1.84,1.84,0,0,1,318.75,345.17Zm.49,1.95a.73.73,0,0,0,1.08,0,1.66,1.66,0,0,0,.14-.78,1.48,1.48,0,0,0-.15-.78.73.73,0,0,0-1.06,0,1.48,1.48,0,0,0-.15.78A1.66,1.66,0,0,0,319.24,347.12Z"/><path d="M322.81,347.85l1-4.11h1.33l1,4.11h-.67l-.22-.88H323.7l-.22.88Zm1.53-3.55-.51,2.08h1.31l-.5-2.08Z"/><path d="M326.72,347.85V343.6h.65v4.25Z"/><path d="M329,345.4v2.45h-.64V345.4H328v-.55h.35v-.2a1.56,1.56,0,0,1,.18-.88.81.81,0,0,1,.66-.24l.65.06v.54l-.49,0a.3.3,0,0,0-.27.12.85.85,0,0,0-.08.43v.19h.8v.55Z"/><path d="M332.49,345.77v1.37a.3.3,0,0,0,.07.19.34.34,0,0,0,.2.09l0,.49a1.27,1.27,0,0,1-.8-.22,2.24,2.24,0,0,1-1,.22c-.6,0-.9-.31-.9-1a.82.82,0,0,1,.24-.66,1.36,1.36,0,0,1,.75-.25l.78-.06v-.22a.42.42,0,0,0-.11-.33.41.41,0,0,0-.31-.1,9.32,9.32,0,0,0-1,.05h-.19l0-.46a4.84,4.84,0,0,1,1.2-.16,1.1,1.1,0,0,1,.79.24A1,1,0,0,1,332.49,345.77Zm-1.34.75a.39.39,0,0,0-.41.45c0,.27.12.41.36.41a2.17,2.17,0,0,0,.64-.1l.11,0v-.8Z"/><path d="M333.32,347.85v-3H334v.36a3,3,0,0,1,1-.43v.66a3.82,3.82,0,0,0-.88.26l-.13.05v2.1Z"/><path d="M335.62,345.17a1.56,1.56,0,0,1,2.06,0,1.84,1.84,0,0,1,.31,1.17,2,2,0,0,1-.3,1.18,1.58,1.58,0,0,1-2.08,0,2,2,0,0,1-.3-1.18A1.9,1.9,0,0,1,335.62,345.17Zm.49,1.95a.73.73,0,0,0,1.08,0,1.66,1.66,0,0,0,.14-.78,1.48,1.48,0,0,0-.15-.78.58.58,0,0,0-.53-.23.6.6,0,0,0-.53.23,1.48,1.48,0,0,0-.15.78A1.66,1.66,0,0,0,336.11,347.12Z"/><path d="M340,349.14V343.6h.65v5.54Z"/><path d="M342.54,343.74h.7l.59,3.53H344l.78-3.52h.78l.78,3.52h.14l.58-3.53h.71l-.81,4.11h-1.08l-.71-3.3-.7,3.3h-1.08Z"/><path d="M349.76,347.85h-1.43v-4.11h1.43a1.49,1.49,0,0,1,1.29.48,2.59,2.59,0,0,1,.35,1.5,4.52,4.52,0,0,1-.07.89,2.36,2.36,0,0,1-.24.66A1.43,1.43,0,0,1,349.76,347.85Zm.95-2.13a2.22,2.22,0,0,0-.19-1.07.79.79,0,0,0-.76-.33H349v2.94h.76a.79.79,0,0,0,.79-.44,2.32,2.32,0,0,0,.13-.47A5.53,5.53,0,0,0,350.71,345.72Z"/><path d="M353.6,347.85h-1.42v-4.11h1.42a1.51,1.51,0,0,1,1.3.48,2.59,2.59,0,0,1,.35,1.5,5.44,5.44,0,0,1-.07.89,2.1,2.1,0,0,1-.25.66A1.42,1.42,0,0,1,353.6,347.85Zm1-2.13a2.35,2.35,0,0,0-.19-1.07.8.8,0,0,0-.77-.33h-.75v2.94h.75a.78.78,0,0,0,.79-.44,1.49,1.49,0,0,0,.13-.47A5.27,5.27,0,0,0,354.56,345.72Z"/><path d="M359.3,343.89v4h-.66v-3.21l-.93.6-.31-.49,1.29-.86Z"/><path d="M360.63,344a4,4,0,0,1,1.22-.19,1.5,1.5,0,0,1,1,.26,1,1,0,0,1,.3.8,1,1,0,0,1-.09.43.71.71,0,0,1-.19.28,1.83,1.83,0,0,1-.24.19,1.36,1.36,0,0,1,.46.32,1,1,0,0,1,.14.58,1.23,1.23,0,0,1-.31.93,1.43,1.43,0,0,1-1,.3,4.18,4.18,0,0,1-.59,0,3.44,3.44,0,0,1-.52-.1l-.19,0,.05-.52a6.62,6.62,0,0,0,1.16.12c.48,0,.72-.22.72-.64a.52.52,0,0,0-.18-.43.79.79,0,0,0-.5-.16H361v-.56h.79a.57.57,0,0,0,.41-.18.58.58,0,0,0,.19-.44.45.45,0,0,0-.16-.39.69.69,0,0,0-.45-.13,5.5,5.5,0,0,0-1,.09l-.16,0Z"/><path d="M366,343.89v4h-.66v-3.21l-.93.6-.31-.49,1.29-.86Z"/><rect x="281.72" y="355.2" width="66.59" height="10.39" rx="1.57"/><path class="cls-6" d="M293,360.61V362h-.83V357.9h1.58q1.44,0,1.44,1.35a1.28,1.28,0,0,1-.6,1.17l.59,1.56h-.91l-.47-1.37Zm1.2-.88a.73.73,0,0,0,.15-.48.72.72,0,0,0-.15-.47.6.6,0,0,0-.45-.17H293v1.3h.77A.51.51,0,0,0,294.18,359.73Z"/><path class="cls-6" d="M295.87,362V357.9h2.64v.72H296.7v1h1.45v.7H296.7v1h1.81V362Z"/><path class="cls-6" d="M299.19,362V357.9h2.61v.72H300v1.2h1.45v.72H300V362Z"/><path class="cls-6" d="M302.38,362V357.9H305v.72h-1.81v1h1.45v.7h-1.45v1H305V362Z"/><path class="cls-6" d="M306.53,360.61V362h-.83V357.9h1.59q1.44,0,1.44,1.35a1.28,1.28,0,0,1-.6,1.17l.58,1.56h-.91l-.47-1.37Zm1.21-.88a.78.78,0,0,0,.14-.48.72.72,0,0,0-.15-.47.57.57,0,0,0-.44-.17h-.76v1.3h.77A.53.53,0,0,0,307.74,359.73Z"/><path class="cls-6" d="M309.42,362V357.9h2.64v.72h-1.81v1h1.45v.7h-1.45v1h1.81V362Z"/><path class="cls-6" d="M312.75,362V357.9h1.4l1,3.36h.06V357.9H316V362h-1.36l-1-3.36h-.06V362Z"/><path class="cls-6" d="M319.49,361.92a5.46,5.46,0,0,1-1.14.13,2.29,2.29,0,0,1-.82-.12,1.1,1.1,0,0,1-.48-.4,1.69,1.69,0,0,1-.24-.65,5.93,5.93,0,0,1-.07-.94,2.86,2.86,0,0,1,.34-1.64,1.41,1.41,0,0,1,1.22-.47,5.09,5.09,0,0,1,1.2.16l0,.66a6.68,6.68,0,0,0-1-.09,1.07,1.07,0,0,0-.56.11.6.6,0,0,0-.25.4,3.93,3.93,0,0,0-.08,1,2.06,2.06,0,0,0,.16,1,.71.71,0,0,0,.66.27,7.9,7.9,0,0,0,1.05-.08Z"/><path class="cls-6" d="M320.16,362V357.9h2.64v.72H321v1h1.45v.7H321v1h1.81V362Z"/><path class="cls-6" d="M326.31,360.79h-.67V362h-.83V357.9h1.5a1.27,1.27,0,0,1,1.45,1.42,1.48,1.48,0,0,1-.37,1.09A1.42,1.42,0,0,1,326.31,360.79Zm-.67-.7h.66c.41,0,.62-.26.62-.77a.79.79,0,0,0-.15-.54.61.61,0,0,0-.47-.17h-.66Z"/><path class="cls-6" d="M327.89,362l.91-4.08h1.58l.91,4.08h-.82l-.17-.74h-1.42l-.17.74Zm1.56-3.39-.42,1.93h1.12l-.42-1.93Z"/><path class="cls-6" d="M333.48,360.52v-.72h1.19v2.12a9.39,9.39,0,0,1-1.4.13,1.5,1.5,0,0,1-1.31-.51,2.86,2.86,0,0,1-.35-1.62,2.68,2.68,0,0,1,.37-1.6,1.48,1.48,0,0,1,1.26-.49,5.87,5.87,0,0,1,1.21.13l.22,0,0,.64c-.48-.05-.87-.08-1.18-.08a1.38,1.38,0,0,0-.64.11.65.65,0,0,0-.28.4,4.47,4.47,0,0,0-.08,1,2.06,2.06,0,0,0,.17,1,.79.79,0,0,0,.72.28l.5,0v-.79Z"/><path class="cls-6" d="M335.45,362V357.9h2.64v.72h-1.82v1h1.46v.7h-1.46v1h1.82V362Z"/><path d="M39.35,185h-5v-8.84h1.8v7.25h3.24Z"/><path d="M40.65,179.25a2.72,2.72,0,0,1,2.3-.89,2.75,2.75,0,0,1,2.3.89,4,4,0,0,1,.69,2.5q0,3.42-3,3.42c-2,0-3-1.14-3-3.42A4,4,0,0,1,40.65,179.25Zm1.34,4a1,1,0,0,0,1,.47,1,1,0,0,0,.95-.47,3,3,0,0,0,.27-1.47,3,3,0,0,0-.27-1.45,1,1,0,0,0-.95-.46,1,1,0,0,0-1,.46,3,3,0,0,0-.27,1.45A3,3,0,0,0,42,183.22Z"/><path d="M47.21,185v-6.5h1.73v.69a6.49,6.49,0,0,1,2.08-.85v1.76a17.69,17.69,0,0,0-1.81.45l-.26.09V185Z"/><path d="M53.8,183.37a1.26,1.26,0,0,0,.87.27c.81,0,1.53,0,2.16-.08l.36,0,0,1.29a11.69,11.69,0,0,1-2.7.36,2.68,2.68,0,0,1-2.14-.78,3.89,3.89,0,0,1-.66-2.53q0-3.5,2.87-3.5c1.89,0,2.84,1,2.84,2.94l-.13,1.21H53.48A1.1,1.1,0,0,0,53.8,183.37Zm1.91-2.19a1.79,1.79,0,0,0-.24-1.08,1.36,1.36,0,0,0-1.74,0,1.79,1.79,0,0,0-.27,1.07Z"/><path d="M60.42,185H58.68v-6.5h1.73v.36a3.12,3.12,0,0,1,1.53-.52,2.1,2.1,0,0,1,1.62.61,4.86,4.86,0,0,1,2.19-.61,2,2,0,0,1,1.79.75,4.42,4.42,0,0,1,.5,2.38V185H66.29v-3.48a3.1,3.1,0,0,0-.18-1.22.71.71,0,0,0-.73-.4,3.65,3.65,0,0,0-1,.18l-.19.07c0,.65,0,1.14,0,1.48V185H62.49v-3.34a3.84,3.84,0,0,0-.17-1.36.72.72,0,0,0-.74-.4,3,3,0,0,0-1,.18l-.15.05Z"/><path d="M72.44,177.68v-1.76h1.75v1.76Zm0,7.34v-6.5h1.75V185Z"/><path d="M75.8,187.75v-9.23h1.73v.35a2.94,2.94,0,0,1,1.48-.51,2.33,2.33,0,0,1,1.94.79,4.4,4.4,0,0,1,.62,2.67,3.85,3.85,0,0,1-.69,2.62,3,3,0,0,1-2.26.73,5,5,0,0,1-.92-.08l-.16,0v2.68Zm2.87-7.83a2.59,2.59,0,0,0-1,.2l-.16.06v3.41a7.68,7.68,0,0,0,.95.07,1.1,1.1,0,0,0,1-.44,2.94,2.94,0,0,0,.28-1.51C79.8,180.52,79.42,179.92,78.67,179.92Z"/><path d="M87.54,180.14a20.65,20.65,0,0,0-2.26-.21,1.79,1.79,0,0,0-.83.12.4.4,0,0,0-.19.37.34.34,0,0,0,.25.35,9.9,9.9,0,0,0,1.3.29,2.76,2.76,0,0,1,1.49.62,1.83,1.83,0,0,1,.44,1.39q0,2.1-2.61,2.1a11.92,11.92,0,0,1-2.08-.23l-.42-.08.06-1.46a20.41,20.41,0,0,0,2.24.21,2.07,2.07,0,0,0,.86-.12.4.4,0,0,0,.23-.37.4.4,0,0,0-.25-.37,6.71,6.71,0,0,0-1.24-.28A3.18,3.18,0,0,1,83,181.9a1.81,1.81,0,0,1-.49-1.44,1.84,1.84,0,0,1,.7-1.56,3,3,0,0,1,1.81-.53,12.63,12.63,0,0,1,2.09.25l.43.08Z"/><path d="M92.84,178.52h1.74V185H92.85v-.37a3.4,3.4,0,0,1-1.62.52,2,2,0,0,1-1.82-.75,4.94,4.94,0,0,1-.47-2.5v-3.4h1.74V182a3.5,3.5,0,0,0,.16,1.31c.1.24.35.35.75.35a3.22,3.22,0,0,0,1.08-.18l.17-.05Z"/><path d="M97.94,185H96.19v-6.5h1.73v.36a3.18,3.18,0,0,1,1.54-.52,2.1,2.1,0,0,1,1.62.61,4.86,4.86,0,0,1,2.19-.61,2,2,0,0,1,1.78.75,4.33,4.33,0,0,1,.5,2.38V185h-1.74v-3.48a3.1,3.1,0,0,0-.18-1.22.71.71,0,0,0-.73-.4,3.59,3.59,0,0,0-1,.18l-.2.07c0,.65,0,1.14,0,1.48V185H100v-3.34a3.62,3.62,0,0,0-.17-1.36.71.71,0,0,0-.74-.4,2.89,2.89,0,0,0-1,.18l-.15.05Z"/><path d="M115.49,175.92V185h-1.73v-.28a3.76,3.76,0,0,1-1.58.43,2.2,2.2,0,0,1-2-.82,4.61,4.61,0,0,1-.56-2.59,4,4,0,0,1,.67-2.59,2.46,2.46,0,0,1,2-.81,6.86,6.86,0,0,1,1.16.13l.24,0v-2.62Zm-1.93,7.54.18,0V180a6.83,6.83,0,0,0-1.27-.13c-.7,0-1,.62-1,1.87a3.13,3.13,0,0,0,.23,1.44.8.8,0,0,0,.77.43A4.7,4.7,0,0,0,113.56,183.46Z"/><path d="M117.45,179.25a3.42,3.42,0,0,1,4.6,0,4,4,0,0,1,.69,2.5q0,3.42-3,3.42t-3-3.42A4,4,0,0,1,117.45,179.25Zm1.34,4a1,1,0,0,0,1,.47,1,1,0,0,0,1-.47,3,3,0,0,0,.27-1.47,3,3,0,0,0-.27-1.45,1,1,0,0,0-1-.46,1,1,0,0,0-1,.46,3.09,3.09,0,0,0-.26,1.45A3.19,3.19,0,0,0,118.79,183.22Z"/><path d="M124.09,185v-9.1h1.74V185Z"/><path d="M127.87,179.25a3.43,3.43,0,0,1,4.61,0,4,4,0,0,1,.69,2.5q0,3.42-3,3.42t-3-3.42A4,4,0,0,1,127.87,179.25Zm1.35,4a1.21,1.21,0,0,0,1.91,0,3,3,0,0,0,.27-1.47,3,3,0,0,0-.27-1.45,1.22,1.22,0,0,0-1.91,0,3,3,0,0,0-.27,1.45A3,3,0,0,0,129.22,183.22Z"/><path d="M134.44,185v-6.5h1.73v.69a6.49,6.49,0,0,1,2.08-.85v1.76a17.05,17.05,0,0,0-1.81.45l-.26.09V185Z"/><path d="M146.8,180.14a20.32,20.32,0,0,0-2.25-.21,1.87,1.87,0,0,0-.84.12.41.41,0,0,0-.18.37.34.34,0,0,0,.25.35,9.49,9.49,0,0,0,1.3.29,2.8,2.8,0,0,1,1.49.62,1.87,1.87,0,0,1,.44,1.39q0,2.1-2.61,2.1a11.72,11.72,0,0,1-2.08-.23l-.42-.08,0-1.46a20.53,20.53,0,0,0,2.25.21,2,2,0,0,0,.85-.12.4.4,0,0,0,.23-.37.39.39,0,0,0-.24-.37,6.9,6.9,0,0,0-1.25-.28,3.18,3.18,0,0,1-1.5-.57,1.77,1.77,0,0,1-.49-1.44,1.82,1.82,0,0,1,.7-1.56,3,3,0,0,1,1.81-.53,12.75,12.75,0,0,1,2.09.25l.43.08Z"/><path d="M148.27,177.68v-1.76H150v1.76Zm0,7.34v-6.5H150V185Z"/><path d="M155.23,180h-1.6v2.66a4,4,0,0,0,0,.56.47.47,0,0,0,.14.28.57.57,0,0,0,.38.11l1,0,.08,1.39a6.5,6.5,0,0,1-1.33.19,2,2,0,0,1-1.6-.52,3.28,3.28,0,0,1-.43-2V180h-.76v-1.48h.76v-1.81h1.75v1.81h1.6Z"/><path d="M39.14,196.14v2.71a1.07,1.07,0,0,0,.1.43c0,.09.16.14.33.18l0,1.31a4.9,4.9,0,0,1-1.06-.09,2.28,2.28,0,0,1-.8-.36,4.38,4.38,0,0,1-1.91.45c-1.35,0-2-.71-2-2.13a1.8,1.8,0,0,1,.56-1.48,3.1,3.1,0,0,1,1.71-.51l1.4-.1v-.41a.67.67,0,0,0-.19-.55.9.9,0,0,0-.58-.15l-2.44.11-.06-1.21a10.21,10.21,0,0,1,2.65-.38,2.59,2.59,0,0,1,1.81.52A2.23,2.23,0,0,1,39.14,196.14Zm-2.93,1.72a.71.71,0,0,0-.73.78c0,.48.22.71.64.71a4.37,4.37,0,0,0,1.08-.15l.2,0v-1.39Z"/><path d="M42.54,200.62H40.8v-6.5h1.73v.36a3.18,3.18,0,0,1,1.53-.52,2.11,2.11,0,0,1,1.63.61,4.82,4.82,0,0,1,2.18-.61,2,2,0,0,1,1.79.75,4.42,4.42,0,0,1,.5,2.38v3.53H48.42v-3.47a3.12,3.12,0,0,0-.18-1.23.72.72,0,0,0-.73-.4,3.54,3.54,0,0,0-1,.18l-.2.07c0,.65.05,1.14.05,1.48v3.37H44.61v-3.34a3.84,3.84,0,0,0-.17-1.36.71.71,0,0,0-.74-.4,2.89,2.89,0,0,0-1,.18l-.16.05Z"/><path d="M53.46,199a1.26,1.26,0,0,0,.87.27c.81,0,1.53,0,2.16-.08l.37,0,0,1.29a11.62,11.62,0,0,1-2.7.36,2.64,2.64,0,0,1-2.13-.78,3.83,3.83,0,0,1-.67-2.53q0-3.5,2.88-3.5c1.89,0,2.83,1,2.83,2.94L57,198.11H53.14A1.1,1.1,0,0,0,53.46,199Zm1.91-2.19a1.79,1.79,0,0,0-.24-1.08,1.36,1.36,0,0,0-1.74,0,1.73,1.73,0,0,0-.26,1.07Z"/><path d="M61.94,195.6h-1.6v2.66c0,.26,0,.45,0,.56a.47.47,0,0,0,.14.28.59.59,0,0,0,.39.11l1,0,.08,1.39a6.51,6.51,0,0,1-1.32.19,2,2,0,0,1-1.6-.52,3.2,3.2,0,0,1-.43-1.95v-2.7h-.77v-1.48h.77v-1.81h1.74v1.81h1.6Z"/><path d="M62.52,202.22l.65-3.38H65.1l-1.17,3.38Z"/><path d="M71.78,194a9.2,9.2,0,0,1,1.73.21l.35.08,0,1.37c-.69-.06-1.19-.1-1.52-.1a1.46,1.46,0,0,0-1.19.38,2.51,2.51,0,0,0-.29,1.45,2.61,2.61,0,0,0,.29,1.47,1.43,1.43,0,0,0,1.2.39l1.51-.1,0,1.39a12.08,12.08,0,0,1-2.12.27,2.46,2.46,0,0,1-2.07-.81,4.28,4.28,0,0,1-.63-2.61,4.07,4.07,0,0,1,.65-2.59A2.54,2.54,0,0,1,71.78,194Z"/><path d="M75.45,194.85a3.42,3.42,0,0,1,4.6,0,4,4,0,0,1,.69,2.5q0,3.42-3,3.42c-2,0-3-1.14-3-3.42A4,4,0,0,1,75.45,194.85Zm1.34,4a1,1,0,0,0,1,.47,1,1,0,0,0,1-.47,3,3,0,0,0,.27-1.47,3,3,0,0,0-.27-1.45,1,1,0,0,0-1-.46,1,1,0,0,0-1,.46,3,3,0,0,0-.27,1.45A3,3,0,0,0,76.79,198.82Z"/><path d="M83.75,200.62H82v-6.5h1.73v.36a3.22,3.22,0,0,1,1.63-.52,2,2,0,0,1,1.79.77,4.44,4.44,0,0,1,.49,2.36v3.53H85.91v-3.47a2.91,2.91,0,0,0-.19-1.23.78.78,0,0,0-.78-.4,3,3,0,0,0-1,.18l-.16.05Z"/><path d="M93.87,195.74a20.65,20.65,0,0,0-2.26-.21,1.82,1.82,0,0,0-.83.12.4.4,0,0,0-.19.37.35.35,0,0,0,.25.35,9.9,9.9,0,0,0,1.3.29,2.76,2.76,0,0,1,1.49.62,1.83,1.83,0,0,1,.45,1.39c0,1.4-.88,2.1-2.62,2.1a11.92,11.92,0,0,1-2.08-.23l-.41-.08L89,199a20.41,20.41,0,0,0,2.24.21,2.07,2.07,0,0,0,.86-.12.4.4,0,0,0,.23-.37.39.39,0,0,0-.24-.37,6.9,6.9,0,0,0-1.25-.28,3.18,3.18,0,0,1-1.5-.57,1.78,1.78,0,0,1-.5-1.44,1.84,1.84,0,0,1,.7-1.56,3,3,0,0,1,1.81-.53,12.63,12.63,0,0,1,2.09.25l.43.08Z"/><path d="M97.08,199a1.3,1.3,0,0,0,.88.27c.81,0,1.53,0,2.16-.08l.36,0,0,1.29a11.69,11.69,0,0,1-2.7.36,2.68,2.68,0,0,1-2.14-.78,3.89,3.89,0,0,1-.66-2.53q0-3.5,2.87-3.5c1.89,0,2.84,1,2.84,2.94l-.13,1.21H96.77A1.1,1.1,0,0,0,97.08,199ZM99,196.78a1.71,1.71,0,0,0-.25-1.08,1,1,0,0,0-.86-.31,1.06,1.06,0,0,0-.87.32,1.79,1.79,0,0,0-.27,1.07Z"/><path d="M104.4,194a9.29,9.29,0,0,1,1.73.21l.35.08-.06,1.37c-.68-.06-1.19-.1-1.52-.1a1.48,1.48,0,0,0-1.19.38,2.6,2.6,0,0,0-.29,1.45,2.7,2.7,0,0,0,.29,1.47,1.47,1.47,0,0,0,1.21.39l1.5-.1.06,1.39a12.19,12.19,0,0,1-2.12.27,2.48,2.48,0,0,1-2.08-.81,4.28,4.28,0,0,1-.63-2.61,4.13,4.13,0,0,1,.65-2.59A2.57,2.57,0,0,1,104.4,194Z"/><path d="M111.36,195.6h-1.59v2.66a4,4,0,0,0,0,.56.47.47,0,0,0,.14.28.57.57,0,0,0,.38.11l1,0,.08,1.39a6.59,6.59,0,0,1-1.33.19,2,2,0,0,1-1.6-.52,3.28,3.28,0,0,1-.43-1.95v-2.7h-.76v-1.48H108v-1.81h1.75v1.81h1.59Z"/><path d="M114.24,199a1.3,1.3,0,0,0,.88.27c.81,0,1.53,0,2.16-.08l.36,0,0,1.29a11.69,11.69,0,0,1-2.7.36,2.68,2.68,0,0,1-2.14-.78,3.89,3.89,0,0,1-.66-2.53q0-3.5,2.87-3.5c1.89,0,2.84,1,2.84,2.94l-.13,1.21h-3.82A1.1,1.1,0,0,0,114.24,199Zm1.92-2.19a1.71,1.71,0,0,0-.25-1.08,1,1,0,0,0-.86-.31,1.06,1.06,0,0,0-.87.32,1.79,1.79,0,0,0-.27,1.07Z"/><path d="M122.73,195.6h-1.6v2.66a4,4,0,0,0,0,.56.47.47,0,0,0,.14.28.57.57,0,0,0,.38.11l1,0,.08,1.39a6.5,6.5,0,0,1-1.33.19,2,2,0,0,1-1.6-.52,3.29,3.29,0,0,1-.42-1.95v-2.7h-.77v-1.48h.77v-1.81h1.74v1.81h1.6Z"/><path d="M127.69,194.12h1.74v6.5h-1.72v-.37a3.47,3.47,0,0,1-1.63.52,2,2,0,0,1-1.82-.75,4.94,4.94,0,0,1-.47-2.5v-3.4h1.74v3.43a3.73,3.73,0,0,0,.16,1.31c.1.24.36.35.75.35a3.14,3.14,0,0,0,1.08-.18l.17-.05Z"/><path d="M132.79,199a1.3,1.3,0,0,0,.88.27c.81,0,1.53,0,2.16-.08l.36,0,0,1.29a11.69,11.69,0,0,1-2.7.36,2.68,2.68,0,0,1-2.14-.78,3.89,3.89,0,0,1-.66-2.53q0-3.5,2.87-3.5c1.89,0,2.84,1,2.84,2.94l-.13,1.21h-3.82A1.1,1.1,0,0,0,132.79,199Zm1.92-2.19a1.79,1.79,0,0,0-.24-1.08,1.36,1.36,0,0,0-1.74,0,1.79,1.79,0,0,0-.27,1.07Z"/><path d="M137.68,200.62v-6.5h1.73v.69a6.4,6.4,0,0,1,2.08-.85v1.76a16.45,16.45,0,0,0-1.81.45l-.26.09v4.36Z"/><path d="M39.14,211.74v2.71a1.07,1.07,0,0,0,.1.43c0,.09.16.14.33.18l0,1.31a4.9,4.9,0,0,1-1.06-.09,2.28,2.28,0,0,1-.8-.36,4.38,4.38,0,0,1-1.91.45c-1.35,0-2-.71-2-2.13a1.78,1.78,0,0,1,.56-1.48,3.1,3.1,0,0,1,1.71-.51l1.4-.1v-.41a.67.67,0,0,0-.19-.55.9.9,0,0,0-.58-.15l-2.44.11-.06-1.21a10.21,10.21,0,0,1,2.65-.38,2.59,2.59,0,0,1,1.81.52A2.23,2.23,0,0,1,39.14,211.74Zm-2.93,1.72a.71.71,0,0,0-.73.78c0,.48.22.71.64.71a4.37,4.37,0,0,0,1.08-.15l.2-.05v-1.39Z"/><path d="M46.33,207.12v9.1H44.6v-.28a3.76,3.76,0,0,1-1.58.43,2.2,2.2,0,0,1-2-.82,4.69,4.69,0,0,1-.56-2.59,4,4,0,0,1,.67-2.59,2.47,2.47,0,0,1,2-.81,6.86,6.86,0,0,1,1.16.13l.24.05v-2.62Zm-1.93,7.54.18,0V211.2a6.83,6.83,0,0,0-1.27-.13c-.7,0-1.05.62-1.05,1.87a3.28,3.28,0,0,0,.23,1.44.82.82,0,0,0,.78.43A4.69,4.69,0,0,0,44.4,214.66Z"/><path d="M47.94,208.88v-1.76h1.74v1.76Zm0,7.34v-6.5h1.74v6.5Z"/><path d="M51.29,219v-9.23H53v.35a3,3,0,0,1,1.48-.51,2.31,2.31,0,0,1,1.94.79,4.33,4.33,0,0,1,.62,2.67,3.91,3.91,0,0,1-.68,2.62,3,3,0,0,1-2.27.73,5.13,5.13,0,0,1-.92-.08l-.16,0V219Zm2.88-7.83a2.84,2.84,0,0,0-1,.19l-.16.07v3.41a7.68,7.68,0,0,0,.95.07,1.12,1.12,0,0,0,1-.44,3,3,0,0,0,.28-1.51C55.3,211.72,54.92,211.12,54.17,211.12Z"/><path d="M58.36,208.88v-1.76h1.75v1.76Zm0,7.34v-6.5h1.75v6.5Z"/><path d="M66.39,211.34a20.65,20.65,0,0,0-2.26-.21,1.79,1.79,0,0,0-.83.12.4.4,0,0,0-.19.37.34.34,0,0,0,.25.35,9.49,9.49,0,0,0,1.3.29,2.76,2.76,0,0,1,1.49.62,1.83,1.83,0,0,1,.44,1.39q0,2.1-2.61,2.1a11.82,11.82,0,0,1-2.08-.23l-.42-.08.06-1.46a20.41,20.41,0,0,0,2.24.21,2.11,2.11,0,0,0,.86-.12.4.4,0,0,0,.22-.37.39.39,0,0,0-.24-.37,6.71,6.71,0,0,0-1.24-.28,3.29,3.29,0,0,1-1.51-.57,1.77,1.77,0,0,1-.49-1.44,1.82,1.82,0,0,1,.7-1.56,3,3,0,0,1,1.81-.53,12.63,12.63,0,0,1,2.09.25l.43.08Z"/><path d="M70.28,209.56a9.11,9.11,0,0,1,1.73.21l.35.08,0,1.37c-.68-.07-1.19-.1-1.52-.1a1.47,1.47,0,0,0-1.19.38,2.6,2.6,0,0,0-.29,1.45,2.7,2.7,0,0,0,.29,1.47,1.46,1.46,0,0,0,1.2.39l1.51-.1,0,1.39a12,12,0,0,1-2.11.27,2.47,2.47,0,0,1-2.08-.81,4.28,4.28,0,0,1-.63-2.61,4.13,4.13,0,0,1,.65-2.59A2.54,2.54,0,0,1,70.28,209.56Z"/><path d="M73.65,208.88v-1.76h1.74v1.76Zm0,7.34v-6.5h1.74v6.5Z"/><path d="M78.75,216.22H77v-6.5h1.72v.36a3.25,3.25,0,0,1,1.63-.52,2,2,0,0,1,1.79.77,4.43,4.43,0,0,1,.5,2.36v3.53H80.91v-3.48a2.87,2.87,0,0,0-.2-1.22.78.78,0,0,0-.78-.4,3,3,0,0,0-1,.18l-.15,0Z"/><path d="M90.08,217a1.79,1.79,0,0,1-.85,1.64,4.35,4.35,0,0,1-2.32.54,5.16,5.16,0,0,1-2.25-.39,1.44,1.44,0,0,1-.79-1.42,2,2,0,0,1,.94-1.55,1.08,1.08,0,0,1-.49-1,1.92,1.92,0,0,1,.39-.85l.12-.19A2.15,2.15,0,0,1,84,212a2.09,2.09,0,0,1,.75-1.8,3.15,3.15,0,0,1,2-.56,4.53,4.53,0,0,1,1.1.13l.21,0,2.09-.06v1.39l-1-.08a1.63,1.63,0,0,1,.28.89,2.11,2.11,0,0,1-.66,1.79,3.48,3.48,0,0,1-2.08.49,2.12,2.12,0,0,1-.53,0,1.57,1.57,0,0,0-.13.56.29.29,0,0,0,.22.29,4.51,4.51,0,0,0,1,.09,4.28,4.28,0,0,1,2.24.43A1.8,1.8,0,0,1,90.08,217Zm-4.49.19c0,.37.45.56,1.37.56s1.37-.22,1.37-.65q0-.36-.24-.45a3.09,3.09,0,0,0-1-.11l-1.17-.09A1,1,0,0,0,85.59,217.22Zm.1-5.33a.86.86,0,0,0,1,1c.67,0,1-.32,1-1s-.33-.95-1-.95S85.69,211.26,85.69,211.89Z"/><path d="M95.75,214.57a1.26,1.26,0,0,0,.87.27c.81,0,1.53,0,2.16-.08l.36,0,0,1.29a11.69,11.69,0,0,1-2.7.36,2.68,2.68,0,0,1-2.14-.78,3.89,3.89,0,0,1-.66-2.53q0-3.5,2.87-3.5c1.89,0,2.84,1,2.84,2.94l-.13,1.21H95.43A1.1,1.1,0,0,0,95.75,214.57Zm1.91-2.19a1.79,1.79,0,0,0-.24-1.08,1.36,1.36,0,0,0-1.74,0,1.79,1.79,0,0,0-.27,1.07Z"/><path d="M100.7,216.22v-9.1h1.75v9.1Z"/><path d="M104.14,208.88v-1.76h1.74v1.76Zm0,7.34v-6.5h1.74v6.5Z"/><path d="M111.09,211.2h-1.6v2.66c0,.26,0,.45,0,.56a.42.42,0,0,0,.14.27.55.55,0,0,0,.39.12l1,0,.07,1.39a6.51,6.51,0,0,1-1.32.19,2,2,0,0,1-1.6-.52,3.2,3.2,0,0,1-.43-1.95v-2.7H107v-1.48h.77v-1.81h1.74v1.81h1.6Z"/><path d="M111.68,217.81l.65-3.37h1.92l-1.17,3.37Z"/><path d="M123.17,211.34a20.65,20.65,0,0,0-2.26-.21,1.82,1.82,0,0,0-.83.12.4.4,0,0,0-.19.37.35.35,0,0,0,.26.35,9.11,9.11,0,0,0,1.3.29,2.76,2.76,0,0,1,1.48.62,1.83,1.83,0,0,1,.45,1.39c0,1.4-.88,2.1-2.62,2.1a11.92,11.92,0,0,1-2.08-.23l-.41-.08,0-1.46a20.41,20.41,0,0,0,2.24.21,2.07,2.07,0,0,0,.86-.12.4.4,0,0,0,.23-.37.39.39,0,0,0-.24-.37,6.9,6.9,0,0,0-1.25-.28,3.29,3.29,0,0,1-1.5-.57,1.78,1.78,0,0,1-.5-1.44,1.84,1.84,0,0,1,.7-1.56,3,3,0,0,1,1.81-.53,12.63,12.63,0,0,1,2.09.25l.43.08Z"/><path d="M126.39,214.57a1.26,1.26,0,0,0,.87.27c.81,0,1.53,0,2.16-.08l.36,0,0,1.29a11.69,11.69,0,0,1-2.7.36,2.68,2.68,0,0,1-2.14-.78,3.89,3.89,0,0,1-.66-2.53q0-3.5,2.87-3.5c1.89,0,2.84,1,2.84,2.94l-.13,1.21h-3.82A1.1,1.1,0,0,0,126.39,214.57Zm1.91-2.19a1.79,1.79,0,0,0-.24-1.08,1.36,1.36,0,0,0-1.74,0,1.79,1.79,0,0,0-.27,1.07Z"/><path d="M136.79,207.12v9.1h-1.73v-.28a3.72,3.72,0,0,1-1.57.43,2.22,2.22,0,0,1-2-.82A4.69,4.69,0,0,1,131,213a4.1,4.1,0,0,1,.67-2.59,2.48,2.48,0,0,1,2-.81,6.76,6.76,0,0,1,1.15.13l.25.05v-2.62Zm-1.92,7.54.18,0V211.2a6.92,6.92,0,0,0-1.27-.13c-.71,0-1.06.62-1.06,1.87a3.11,3.11,0,0,0,.24,1.44.8.8,0,0,0,.77.43A4.7,4.7,0,0,0,134.87,214.66Z"/><path d="M39.68,222.72v9.1H38v-.28a3.8,3.8,0,0,1-1.58.43,2.2,2.2,0,0,1-2-.82,4.61,4.61,0,0,1-.56-2.59,4,4,0,0,1,.67-2.59,2.46,2.46,0,0,1,2-.81,6.66,6.66,0,0,1,1.15.13l.25.05v-2.62Zm-1.92,7.54.18,0V226.8a6.83,6.83,0,0,0-1.27-.13c-.7,0-1.05.62-1.05,1.87a3.13,3.13,0,0,0,.23,1.44.8.8,0,0,0,.77.43A4.7,4.7,0,0,0,37.76,230.26Z"/><path d="M41.3,224.48v-1.76H43v1.76Zm0,7.34v-6.5H43v6.5Z"/><path d="M49.63,227.34v2.71a1.07,1.07,0,0,0,.1.43c.05.09.16.14.33.18L50,232a4.9,4.9,0,0,1-1.06-.09,2.36,2.36,0,0,1-.8-.36,4.38,4.38,0,0,1-1.91.45c-1.35,0-2-.71-2-2.13a1.78,1.78,0,0,1,.56-1.48,3.11,3.11,0,0,1,1.72-.51l1.39-.1v-.41a.67.67,0,0,0-.19-.55.9.9,0,0,0-.58-.15l-2.44.11-.06-1.21a10.21,10.21,0,0,1,2.65-.38,2.58,2.58,0,0,1,1.81.52A2.23,2.23,0,0,1,49.63,227.34Zm-2.93,1.72a.7.7,0,0,0-.72.78c0,.48.21.71.63.71a4.37,4.37,0,0,0,1.08-.15l.2-.05V229Z"/><path d="M53,231.82H51.29v-6.5H53v.36a3.18,3.18,0,0,1,1.54-.52,2.1,2.1,0,0,1,1.62.61,4.85,4.85,0,0,1,2.18-.61,2,2,0,0,1,1.79.75,4.33,4.33,0,0,1,.5,2.38v3.53H58.91v-3.48a3.1,3.1,0,0,0-.18-1.22.72.72,0,0,0-.73-.4,3.59,3.59,0,0,0-1,.18l-.2.07c0,.65.05,1.14.05,1.48v3.37H55.1v-3.34a3.62,3.62,0,0,0-.17-1.36.71.71,0,0,0-.74-.4,2.89,2.89,0,0,0-1,.18L53,227Z"/><path d="M66.8,231.82H65.06v-6.5h1.73v.36a3.22,3.22,0,0,1,1.62-.52,2,2,0,0,1,1.8.77,4.44,4.44,0,0,1,.49,2.36v3.53H69v-3.48a2.87,2.87,0,0,0-.2-1.22.78.78,0,0,0-.78-.4,3,3,0,0,0-1,.18l-.16,0Z"/><path d="M72.6,226.05a3.42,3.42,0,0,1,4.6,0,4,4,0,0,1,.69,2.5q0,3.42-3,3.42t-3-3.42A4,4,0,0,1,72.6,226.05Zm1.34,4a1.22,1.22,0,0,0,1.92,0,3.19,3.19,0,0,0,.26-1.47,3.09,3.09,0,0,0-.26-1.45,1.23,1.23,0,0,0-1.92,0,3.09,3.09,0,0,0-.26,1.45A3.19,3.19,0,0,0,73.94,230Z"/><path d="M80.91,231.82H79.16v-6.5h1.73v.36a3.22,3.22,0,0,1,1.63-.52,2,2,0,0,1,1.79.77,4.43,4.43,0,0,1,.5,2.36v3.53H83.06v-3.48a2.89,2.89,0,0,0-.19-1.22.78.78,0,0,0-.78-.4,3,3,0,0,0-1,.18l-.15,0Z"/><path d="M90.19,225.32h1.74v6.5H90.2v-.37a3.4,3.4,0,0,1-1.62.52,2,2,0,0,1-1.82-.75,4.83,4.83,0,0,1-.47-2.5v-3.4H88v3.43a3.5,3.5,0,0,0,.16,1.31c.1.23.35.35.75.35a3.22,3.22,0,0,0,1.08-.18l.17,0Z"/><path d="M95.28,231.82H93.54v-6.5h1.73v.36a3.18,3.18,0,0,1,1.54-.52,2.1,2.1,0,0,1,1.62.61,4.85,4.85,0,0,1,2.18-.61,2,2,0,0,1,1.79.75,4.33,4.33,0,0,1,.5,2.38v3.53h-1.74v-3.48a3.1,3.1,0,0,0-.18-1.22.72.72,0,0,0-.73-.4,3.54,3.54,0,0,0-1,.18L99,227c0,.65,0,1.14,0,1.48v3.37H97.35v-3.34a3.84,3.84,0,0,0-.17-1.36.71.71,0,0,0-.74-.4,2.89,2.89,0,0,0-1,.18l-.16,0Z"/><path d="M106.19,231.82h-1.74v-6.5h1.73v.36a3.18,3.18,0,0,1,1.53-.52,2.12,2.12,0,0,1,1.63.61,4.79,4.79,0,0,1,2.18-.61,2,2,0,0,1,1.79.75,4.42,4.42,0,0,1,.5,2.38v3.53h-1.74v-3.48a3.1,3.1,0,0,0-.18-1.22.73.73,0,0,0-.73-.4,3.66,3.66,0,0,0-1,.18L110,227c0,.65,0,1.14,0,1.48v3.37h-1.74v-3.34a3.84,3.84,0,0,0-.17-1.36.71.71,0,0,0-.74-.4,2.89,2.89,0,0,0-1,.18l-.16,0Z"/><path d="M114.69,225.32h1.72l1.18,5h.3l1.18-5h1.72l-2.29,9.23h-1.7l.71-2.73h-1.22Z"/><path d="M126.39,231.82h-1.74v-6.5h1.73v.36a3.22,3.22,0,0,1,1.62-.52,2,2,0,0,1,1.8.77,4.44,4.44,0,0,1,.49,2.36v3.53h-1.74v-3.48a2.89,2.89,0,0,0-.19-1.22.78.78,0,0,0-.78-.4,3,3,0,0,0-1,.18l-.16,0Z"/><path d="M131.84,224.48v-1.76h1.74v1.76Zm0,7.34v-6.5h1.74v6.5Z"/><path d="M138.34,225.16a2.45,2.45,0,0,1,2,.75,4.17,4.17,0,0,1,.64,2.67,3.8,3.8,0,0,1-.73,2.66,3.47,3.47,0,0,1-2.51.73c-.37,0-1,0-2-.13l-.5-.05v-9.07h1.75v2.79A3.8,3.8,0,0,1,138.34,225.16Zm-.61,5.25a1.36,1.36,0,0,0,1.17-.42,2.76,2.76,0,0,0,.3-1.51c0-1.18-.37-1.76-1.09-1.76a3.54,3.54,0,0,0-1,.13l-.18,0v3.47Z"/><path d="M144,231.82h-1.74v-9.1H144v2.91a3.57,3.57,0,0,1,1.61-.47,2,2,0,0,1,1.79.77,4.43,4.43,0,0,1,.5,2.36v3.53h-1.74v-3.49a2.85,2.85,0,0,0-.2-1.21.78.78,0,0,0-.78-.4,3.18,3.18,0,0,0-1,.16l-.17.05Z"/><path d="M35.91,245.77a1.27,1.27,0,0,0,.88.27c.8,0,1.52,0,2.15-.08l.37,0,0,1.29a11.55,11.55,0,0,1-2.7.36,2.64,2.64,0,0,1-2.13-.78,3.89,3.89,0,0,1-.67-2.53q0-3.49,2.88-3.5c1.89,0,2.83,1,2.83,2.94l-.13,1.21H35.59A1.1,1.1,0,0,0,35.91,245.77Zm1.92-2.19a1.78,1.78,0,0,0-.25-1.08,1.36,1.36,0,0,0-1.74,0,1.73,1.73,0,0,0-.26,1.07Z"/><path d="M44.62,240.92h1.75v6.5H44.64v-.37a3.47,3.47,0,0,1-1.63.52,2,2,0,0,1-1.82-.75,4.94,4.94,0,0,1-.47-2.5v-3.4h1.75v3.43a3.8,3.8,0,0,0,.15,1.31c.11.24.36.35.76.35a3.22,3.22,0,0,0,1.08-.18l.16-.05Z"/><path d="M48,240.08v-1.76h1.74v1.76Zm0,7.34v-6.5h1.74v6.5Z"/><path d="M56,242.54a20.65,20.65,0,0,0-2.26-.21,1.82,1.82,0,0,0-.83.12.42.42,0,0,0-.19.37.35.35,0,0,0,.26.35,9.49,9.49,0,0,0,1.3.29,2.76,2.76,0,0,1,1.48.62,1.83,1.83,0,0,1,.45,1.39c0,1.4-.87,2.1-2.62,2.1a11.92,11.92,0,0,1-2.08-.23l-.41-.08,0-1.46a20.41,20.41,0,0,0,2.24.21,2.07,2.07,0,0,0,.86-.12.4.4,0,0,0,.23-.37.39.39,0,0,0-.24-.37,6.9,6.9,0,0,0-1.25-.28,3.29,3.29,0,0,1-1.5-.57,1.78,1.78,0,0,1-.5-1.44,1.82,1.82,0,0,1,.71-1.56,2.91,2.91,0,0,1,1.8-.53,12.85,12.85,0,0,1,2.1.25l.42.08Z"/><path d="M59.21,247.42H57.47v-6.5H59.2v.36a3.15,3.15,0,0,1,1.53-.52,2.13,2.13,0,0,1,1.63.61,4.79,4.79,0,0,1,2.18-.61,2,2,0,0,1,1.79.75,4.42,4.42,0,0,1,.5,2.38v3.53H65.09v-3.48a3.06,3.06,0,0,0-.19-1.22.7.7,0,0,0-.72-.4,3.66,3.66,0,0,0-1,.18l-.19.07c0,.65.05,1.14.05,1.48v3.37H61.28v-3.34a3.84,3.84,0,0,0-.17-1.36.71.71,0,0,0-.74-.4,2.85,2.85,0,0,0-1,.18l-.16.05Z"/><path d="M68.73,241.65a3.42,3.42,0,0,1,4.6,0,4,4,0,0,1,.69,2.5q0,3.42-3,3.42c-2,0-3-1.14-3-3.42A4,4,0,0,1,68.73,241.65Zm1.34,4a1,1,0,0,0,1,.47,1,1,0,0,0,1-.47,3,3,0,0,0,.27-1.47A3,3,0,0,0,72,242.7a1,1,0,0,0-1-.46,1,1,0,0,0-1,.46,3,3,0,0,0-.27,1.45A3,3,0,0,0,70.07,245.62Z"/><path d="M80.82,238.32v9.1H79.09v-.28a3.76,3.76,0,0,1-1.58.43,2.2,2.2,0,0,1-2-.82,4.61,4.61,0,0,1-.56-2.59,4,4,0,0,1,.67-2.59,2.46,2.46,0,0,1,2-.81,6.86,6.86,0,0,1,1.16.13l.24.05v-2.62Zm-1.93,7.54.18,0V242.4a6.83,6.83,0,0,0-1.27-.13c-.7,0-1,.62-1,1.87a3.13,3.13,0,0,0,.23,1.44.8.8,0,0,0,.77.43A4.7,4.7,0,0,0,78.89,245.86Z"/><path d="M88.89,242.4h-1.6v2.66c0,.26,0,.45,0,.56a.47.47,0,0,0,.14.28.57.57,0,0,0,.38.11l1,0,.08,1.39a6.51,6.51,0,0,1-1.32.19,2,2,0,0,1-1.6-.52,3.2,3.2,0,0,1-.43-2v-2.7h-.77v-1.48h.77v-1.81h1.74v1.81h1.6Z"/><path d="M90,240.08v-1.76h1.74v1.76Zm0,7.34v-6.5h1.74v6.5Z"/><path d="M95.11,247.42H93.37v-6.5H95.1v.36a3.22,3.22,0,0,1,1.63-.52,2,2,0,0,1,1.79.77,4.43,4.43,0,0,1,.5,2.36v3.53H97.27v-3.48a2.89,2.89,0,0,0-.19-1.22.78.78,0,0,0-.78-.4,3,3,0,0,0-1,.18l-.16.05Z"/><path d="M103,240.76a9.2,9.2,0,0,1,1.73.21l.35.08,0,1.37c-.68-.07-1.19-.1-1.52-.1a1.47,1.47,0,0,0-1.19.38,2.6,2.6,0,0,0-.29,1.45,2.7,2.7,0,0,0,.29,1.47,1.46,1.46,0,0,0,1.2.39l1.51-.1,0,1.39a12,12,0,0,1-2.12.27,2.46,2.46,0,0,1-2.07-.81,4.28,4.28,0,0,1-.63-2.61,4.13,4.13,0,0,1,.65-2.59A2.54,2.54,0,0,1,103,240.76Z"/><path d="M106.36,240.08v-1.76h1.74v1.76Zm0,7.34v-6.5h1.74v6.5Z"/><path d="M115.24,238.32v9.1h-1.73v-.28a3.76,3.76,0,0,1-1.57.43,2.21,2.21,0,0,1-2-.82,4.69,4.69,0,0,1-.56-2.59,4,4,0,0,1,.67-2.59,2.47,2.47,0,0,1,2-.81,6.75,6.75,0,0,1,1.16.13l.25.05v-2.62Zm-1.93,7.54.19,0V242.4a6.93,6.93,0,0,0-1.28-.13c-.7,0-1,.62-1,1.87a3.28,3.28,0,0,0,.23,1.44.82.82,0,0,0,.78.43A4.56,4.56,0,0,0,113.31,245.86Z"/><path d="M120.69,240.92h1.74v6.5H120.7v-.37a3.47,3.47,0,0,1-1.63.52,2,2,0,0,1-1.82-.75,5,5,0,0,1-.46-2.5v-3.4h1.74v3.43a3.8,3.8,0,0,0,.15,1.31c.11.24.36.35.76.35a3.22,3.22,0,0,0,1.08-.18l.17-.05Z"/><path d="M125.78,247.42H124v-6.5h1.73v.36a3.22,3.22,0,0,1,1.62-.52,2,2,0,0,1,1.8.77,4.44,4.44,0,0,1,.49,2.36v3.53h-1.74v-3.48a2.87,2.87,0,0,0-.2-1.22.78.78,0,0,0-.78-.4,3,3,0,0,0-1,.18l-.16.05Z"/><path d="M134.83,242.4h-1.6v2.66c0,.26,0,.45,0,.56a.47.47,0,0,0,.14.28.6.6,0,0,0,.39.11l1,0,.08,1.39a6.51,6.51,0,0,1-1.32.19,2,2,0,0,1-1.6-.52,3.2,3.2,0,0,1-.43-2v-2.7h-.77v-1.48h.77v-1.81h1.74v1.81h1.6Z"/><path d="M142.66,240.92h1.74v6.5h-1.73v-.37a3.47,3.47,0,0,1-1.63.52,2,2,0,0,1-1.82-.75,5,5,0,0,1-.46-2.5v-3.4h1.74v3.43a3.8,3.8,0,0,0,.15,1.31c.11.24.36.35.76.35a3.22,3.22,0,0,0,1.08-.18l.17-.05Z"/><path d="M149.61,242.4H148v2.66c0,.26,0,.45,0,.56a.47.47,0,0,0,.14.28.6.6,0,0,0,.39.11l1,0,.08,1.39a6.51,6.51,0,0,1-1.32.19,2,2,0,0,1-1.6-.52,3.2,3.2,0,0,1-.43-2v-2.7h-.77v-1.48h.77v-1.81H148v1.81h1.6Z"/><path d="M34.24,263v-9.1H36V263Z"/><path d="M42.65,258.54v2.71a1.07,1.07,0,0,0,.1.43c0,.09.16.14.33.18L43,263.17a4.86,4.86,0,0,1-1.05-.09,2.28,2.28,0,0,1-.8-.36,4.42,4.42,0,0,1-1.92.45q-2,0-2-2.13a1.78,1.78,0,0,1,.56-1.48,3.1,3.1,0,0,1,1.71-.51l1.4-.1v-.41a.67.67,0,0,0-.19-.55.9.9,0,0,0-.58-.15l-2.45.11,0-1.21a10.21,10.21,0,0,1,2.65-.38,2.59,2.59,0,0,1,1.81.52A2.23,2.23,0,0,1,42.65,258.54Zm-2.93,1.72A.71.71,0,0,0,39,261c0,.48.22.71.64.71a4.37,4.37,0,0,0,1.08-.15l.2-.05v-1.39Z"/><path d="M44.66,257.25a2.75,2.75,0,0,1,2.3-.89,2.74,2.74,0,0,1,2.3.89,4,4,0,0,1,.69,2.5c0,2.28-1,3.42-3,3.42s-3-1.14-3-3.42A4,4,0,0,1,44.66,257.25Zm1.35,4a1,1,0,0,0,1,.47,1,1,0,0,0,1-.47,3,3,0,0,0,.27-1.47,3,3,0,0,0-.27-1.45,1,1,0,0,0-1-.46,1,1,0,0,0-1,.46,3,3,0,0,0-.27,1.45A3,3,0,0,0,46,261.22Z"/><path d="M51.23,263v-6.5H53v.69a6.4,6.4,0,0,1,2.08-.85v1.76a16.45,16.45,0,0,0-1.81.45l-.26.09V263Z"/><path d="M57.81,261.37a1.3,1.3,0,0,0,.88.27c.81,0,1.52,0,2.16-.08l.36,0,0,1.29a11.7,11.7,0,0,1-2.71.36,2.64,2.64,0,0,1-2.13-.78,3.89,3.89,0,0,1-.66-2.53q0-3.5,2.87-3.5c1.89,0,2.84,1,2.84,2.94l-.13,1.21H57.49A1.14,1.14,0,0,0,57.81,261.37Zm1.92-2.19a1.71,1.71,0,0,0-.25-1.08,1,1,0,0,0-.86-.31,1.06,1.06,0,0,0-.87.32,1.79,1.79,0,0,0-.27,1.07Z"/><path d="M64.44,261.37a1.3,1.3,0,0,0,.88.27c.8,0,1.52,0,2.16-.08l.36,0,0,1.29a11.7,11.7,0,0,1-2.71.36,2.64,2.64,0,0,1-2.13-.78,3.89,3.89,0,0,1-.66-2.53q0-3.5,2.87-3.5c1.89,0,2.84,1,2.84,2.94L68,260.51H64.12A1.14,1.14,0,0,0,64.44,261.37Zm1.92-2.19a1.71,1.71,0,0,0-.25-1.08,1,1,0,0,0-.86-.31,1.06,1.06,0,0,0-.87.32,1.79,1.79,0,0,0-.27,1.07Z"/><path d="M72.92,258H71.33v2.66c0,.26,0,.45,0,.56a.55.55,0,0,0,.15.28.57.57,0,0,0,.38.11l1,0,.08,1.39a6.59,6.59,0,0,1-1.33.19,2,2,0,0,1-1.6-.52,3.28,3.28,0,0,1-.43-1.95V258h-.76v-1.48h.76v-1.81h1.75v1.81h1.59Z"/><path d="M82.44,253.92V263H80.71v-.28a3.76,3.76,0,0,1-1.57.43,2.21,2.21,0,0,1-2-.82,4.69,4.69,0,0,1-.56-2.59,4.1,4.1,0,0,1,.67-2.59,2.47,2.47,0,0,1,2-.81,6.75,6.75,0,0,1,1.16.13l.25.05v-2.62Zm-1.92,7.54.18,0V258a6.93,6.93,0,0,0-1.28-.13c-.7,0-1,.62-1,1.87a3.28,3.28,0,0,0,.23,1.44.82.82,0,0,0,.78.43A4.7,4.7,0,0,0,80.52,261.46Z"/><path d="M84.4,257.25a3.42,3.42,0,0,1,4.6,0,4,4,0,0,1,.69,2.5c0,2.28-1,3.42-3,3.42s-3-1.14-3-3.42A4,4,0,0,1,84.4,257.25Zm1.35,4a1,1,0,0,0,1,.47,1,1,0,0,0,1-.47,3,3,0,0,0,.27-1.47,3,3,0,0,0-.27-1.45,1,1,0,0,0-1-.46,1,1,0,0,0-1,.46,3,3,0,0,0-.27,1.45A3,3,0,0,0,85.75,261.22Z"/><path d="M91.05,263v-9.1h1.74V263Z"/><path d="M94.83,257.25a3.42,3.42,0,0,1,4.6,0,4,4,0,0,1,.69,2.5q0,3.42-3,3.42t-3-3.42A4,4,0,0,1,94.83,257.25Zm1.34,4a1,1,0,0,0,1,.47,1,1,0,0,0,1-.47,3,3,0,0,0,.27-1.47,3,3,0,0,0-.27-1.45,1,1,0,0,0-1-.46,1,1,0,0,0-1,.46,3.09,3.09,0,0,0-.26,1.45A3.19,3.19,0,0,0,96.17,261.22Z"/><path d="M101.39,263v-6.5h1.73v.69a6.49,6.49,0,0,1,2.08-.85v1.76a16.81,16.81,0,0,0-1.8.45l-.26.09V263Z"/><path d="M108,261.37a1.27,1.27,0,0,0,.88.27c.8,0,1.52,0,2.15-.08l.37,0,0,1.29a11.55,11.55,0,0,1-2.7.36,2.64,2.64,0,0,1-2.13-.78,3.89,3.89,0,0,1-.67-2.53q0-3.5,2.88-3.5c1.89,0,2.83,1,2.83,2.94l-.13,1.21h-3.82A1.1,1.1,0,0,0,108,261.37Zm1.92-2.19a1.78,1.78,0,0,0-.25-1.08,1,1,0,0,0-.87-.31,1.06,1.06,0,0,0-.87.32,1.73,1.73,0,0,0-.26,1.07Z"/><path d="M117.46,263h-1.74v-6.5h1.73v.36a3.18,3.18,0,0,1,1.53-.52,2.12,2.12,0,0,1,1.63.61,4.79,4.79,0,0,1,2.18-.61,2,2,0,0,1,1.79.75,4.42,4.42,0,0,1,.5,2.38V263h-1.74v-3.48a3.1,3.1,0,0,0-.18-1.22.73.73,0,0,0-.73-.4,3.66,3.66,0,0,0-1,.18l-.19.07c0,.65,0,1.14,0,1.48V263h-1.74v-3.34a3.84,3.84,0,0,0-.17-1.36.71.71,0,0,0-.74-.4,2.89,2.89,0,0,0-1,.18l-.16,0Z"/><path d="M131.6,258.54v2.71a1,1,0,0,0,.11.43.47.47,0,0,0,.32.18l-.05,1.31a5,5,0,0,1-1.06-.09,2.45,2.45,0,0,1-.8-.36,4.35,4.35,0,0,1-1.91.45q-2,0-2-2.13a1.75,1.75,0,0,1,.56-1.48,3.1,3.1,0,0,1,1.71-.51l1.39-.1v-.41a.7.7,0,0,0-.18-.55.92.92,0,0,0-.58-.15l-2.45.11-.05-1.21a10.21,10.21,0,0,1,2.65-.38,2.56,2.56,0,0,1,1.8.52A2.19,2.19,0,0,1,131.6,258.54Zm-2.92,1.72a.7.7,0,0,0-.73.78c0,.48.21.71.64.71a4.37,4.37,0,0,0,1.08-.15l.19-.05v-1.39Z"/><path d="M139.16,263.83a1.79,1.79,0,0,1-.86,1.64A4.33,4.33,0,0,1,136,266a5.16,5.16,0,0,1-2.25-.39,1.46,1.46,0,0,1-.79-1.42,2,2,0,0,1,.94-1.55,1.1,1.1,0,0,1-.48-1,2,2,0,0,1,.39-.85l.12-.19a2.16,2.16,0,0,1-.89-1.87,2.09,2.09,0,0,1,.75-1.8,3.19,3.19,0,0,1,2-.56,4.67,4.67,0,0,1,1.11.13l.2,0,2.1-.07v1.39l-1-.08a1.65,1.65,0,0,1,.29.89,2.11,2.11,0,0,1-.66,1.79,3.52,3.52,0,0,1-2.08.5,2.23,2.23,0,0,1-.54-.06,1.82,1.82,0,0,0-.13.56.3.3,0,0,0,.22.29,4.58,4.58,0,0,0,1,.09,4.26,4.26,0,0,1,2.24.43A1.78,1.78,0,0,1,139.16,263.83Zm-4.5.19c0,.37.46.56,1.37.56s1.37-.22,1.37-.65c0-.24-.08-.39-.23-.45a3.21,3.21,0,0,0-1-.11l-1.17-.09A1,1,0,0,0,134.66,264Zm.1-5.33c0,.64.33,1,1,1a.86.86,0,0,0,1-1c0-.63-.33-.95-1-.95S134.76,258.06,134.76,258.69Z"/><path d="M142,263h-1.74v-6.5h1.73v.36a3.22,3.22,0,0,1,1.62-.52,2,2,0,0,1,1.8.77,4.44,4.44,0,0,1,.49,2.36V263h-1.74v-3.48a2.89,2.89,0,0,0-.19-1.22.78.78,0,0,0-.78-.4,3,3,0,0,0-1,.18l-.16,0Z"/><path d="M152.38,258.54v2.71a1.07,1.07,0,0,0,.1.43c.05.09.16.14.33.18l-.05,1.31a4.9,4.9,0,0,1-1.06-.09,2.28,2.28,0,0,1-.8-.36,4.38,4.38,0,0,1-1.91.45c-1.35,0-2-.71-2-2.13a1.78,1.78,0,0,1,.56-1.48,3.11,3.11,0,0,1,1.72-.51l1.39-.1v-.41a.67.67,0,0,0-.19-.55.9.9,0,0,0-.58-.15l-2.44.11-.06-1.21a10.21,10.21,0,0,1,2.65-.38,2.59,2.59,0,0,1,1.81.52A2.23,2.23,0,0,1,152.38,258.54Zm-2.93,1.72a.7.7,0,0,0-.72.78c0,.48.21.71.63.71a4.37,4.37,0,0,0,1.08-.15l.2-.05v-1.39Z"/><path d="M39.14,274.14v2.71a1.07,1.07,0,0,0,.1.43c0,.09.16.14.33.18l0,1.31a4.9,4.9,0,0,1-1.06-.09,2.28,2.28,0,0,1-.8-.36,4.38,4.38,0,0,1-1.91.45c-1.35,0-2-.71-2-2.13a1.8,1.8,0,0,1,.56-1.48,3.1,3.1,0,0,1,1.71-.51l1.4-.1v-.41a.67.67,0,0,0-.19-.55.9.9,0,0,0-.58-.15l-2.44.11-.06-1.21a10.21,10.21,0,0,1,2.65-.38,2.59,2.59,0,0,1,1.81.52A2.23,2.23,0,0,1,39.14,274.14Zm-2.93,1.72a.71.71,0,0,0-.73.78c0,.48.22.71.64.71a4.37,4.37,0,0,0,1.08-.15l.2-.05v-1.39Z"/><path d="M40.88,278.62v-9.1h1.74v9.1Z"/><path d="M44.31,271.28v-1.76h1.74v1.76Zm0,7.34v-6.5h1.74v6.5Z"/><path d="M50,278.77a2.44,2.44,0,0,1-2-.75,4.22,4.22,0,0,1-.63-2.67,3.77,3.77,0,0,1,.72-2.66,3.47,3.47,0,0,1,2.51-.73,20.11,20.11,0,0,1,2.06.13l.47,0v9.22H51.37v-2.93A3.61,3.61,0,0,1,50,278.77Zm.61-5.3a1.33,1.33,0,0,0-1.18.45,2.9,2.9,0,0,0-.3,1.54c0,1.17.36,1.75,1.1,1.75a3.66,3.66,0,0,0,1-.13l.17,0v-3.52C51.05,273.49,50.79,273.47,50.58,273.47Z"/><path d="M58.56,272.12H60.3v6.5H58.57v-.37a3.4,3.4,0,0,1-1.62.52,2,2,0,0,1-1.82-.75,4.94,4.94,0,0,1-.47-2.5v-3.4H56.4v3.43a3.5,3.5,0,0,0,.16,1.31c.1.24.35.35.75.35a3.22,3.22,0,0,0,1.08-.18l.17,0Z"/><path d="M66.89,274.14v2.71a.9.9,0,0,0,.11.43.47.47,0,0,0,.32.18l0,1.31a5,5,0,0,1-1.06-.09,2.45,2.45,0,0,1-.8-.36,4.35,4.35,0,0,1-1.91.45c-1.34,0-2-.71-2-2.13a1.8,1.8,0,0,1,.56-1.48,3.16,3.16,0,0,1,1.72-.51l1.39-.1v-.41a.7.7,0,0,0-.18-.55.93.93,0,0,0-.59-.15l-2.44.11,0-1.21a10.14,10.14,0,0,1,2.64-.38,2.58,2.58,0,0,1,1.81.52A2.19,2.19,0,0,1,66.89,274.14ZM64,275.86a.7.7,0,0,0-.73.78c0,.48.21.71.64.71A4.37,4.37,0,0,0,65,277.2l.19-.05v-1.39Z"/><path d="M70.3,278.62H68.56v-6.5h1.73v.36a3.12,3.12,0,0,1,1.53-.52,2.1,2.1,0,0,1,1.62.61,4.86,4.86,0,0,1,2.19-.61,2,2,0,0,1,1.79.75,4.42,4.42,0,0,1,.5,2.38v3.53H76.17v-3.47a3.12,3.12,0,0,0-.18-1.23.71.71,0,0,0-.73-.4,3.65,3.65,0,0,0-1,.18l-.19.07c0,.65,0,1.14,0,1.48v3.37H72.37v-3.34a3.84,3.84,0,0,0-.17-1.36.72.72,0,0,0-.74-.4,3,3,0,0,0-1,.18l-.15.05Z"/><path d="M84.07,277a1.29,1.29,0,0,0,.88.27c.8,0,1.52,0,2.16-.08l.36,0,0,1.29a11.7,11.7,0,0,1-2.71.36,2.64,2.64,0,0,1-2.13-.78,3.89,3.89,0,0,1-.66-2.53q0-3.49,2.87-3.5c1.89,0,2.84,1,2.84,2.94l-.13,1.21H83.75A1.14,1.14,0,0,0,84.07,277ZM86,274.78a1.71,1.71,0,0,0-.25-1.08,1,1,0,0,0-.86-.31,1.06,1.06,0,0,0-.87.32,1.79,1.79,0,0,0-.27,1.07Z"/><path d="M89,278.62v-6.5h1.73v.69a6.49,6.49,0,0,1,2.08-.85v1.76a16.81,16.81,0,0,0-1.8.45l-.27.09v4.36Z"/><path d="M98.77,274.14v2.71a1.07,1.07,0,0,0,.1.43c0,.09.16.14.33.18l0,1.31a4.9,4.9,0,0,1-1.06-.09,2.28,2.28,0,0,1-.8-.36,4.41,4.41,0,0,1-1.91.45c-1.35,0-2-.71-2-2.13a1.8,1.8,0,0,1,.56-1.48,3.1,3.1,0,0,1,1.71-.51l1.4-.1v-.41a.67.67,0,0,0-.19-.55.9.9,0,0,0-.58-.15l-2.45.11,0-1.21a10.21,10.21,0,0,1,2.65-.38,2.59,2.59,0,0,1,1.81.52A2.23,2.23,0,0,1,98.77,274.14Zm-2.93,1.72a.71.71,0,0,0-.73.78c0,.48.22.71.64.71a4.37,4.37,0,0,0,1.08-.15l.2-.05v-1.39Z"/><path d="M104,273.6h-1.6v2.66c0,.26,0,.45,0,.56a.49.49,0,0,0,.15.28.57.57,0,0,0,.38.11l1,0,.08,1.39a6.68,6.68,0,0,1-1.33.19,2,2,0,0,1-1.6-.52,3.2,3.2,0,0,1-.43-1.95v-2.7h-.77v-1.48h.77v-1.81h1.74v1.81H104Z"/><path d="M107.41,272.12h1.82l1,5h.37l1.09-5h1.77l-1.56,6.5h-3Z"/><path d="M114.76,272.85a3.42,3.42,0,0,1,4.6,0,4,4,0,0,1,.69,2.5q0,3.42-3,3.42c-2,0-3-1.14-3-3.42A4,4,0,0,1,114.76,272.85Zm1.34,4a1,1,0,0,0,1,.47,1,1,0,0,0,1-.47,3,3,0,0,0,.27-1.47,3,3,0,0,0-.27-1.45,1,1,0,0,0-1-.46,1,1,0,0,0-1,.46,3,3,0,0,0-.26,1.45A3.06,3.06,0,0,0,116.1,276.82Z"/><path d="M121.4,278.62v-9.1h1.74v9.1Z"/><path d="M128.67,272.12h1.74v6.5h-1.73v-.37a3.44,3.44,0,0,1-1.63.52,2,2,0,0,1-1.82-.75,5,5,0,0,1-.46-2.5v-3.4h1.74v3.43a3.5,3.5,0,0,0,.16,1.31c.1.24.35.35.75.35a3.22,3.22,0,0,0,1.08-.18l.17,0Z"/><path d="M135.62,273.6H134v2.66c0,.26,0,.45,0,.56a.49.49,0,0,0,.15.28.57.57,0,0,0,.38.11l1,0,.07,1.39a6.51,6.51,0,0,1-1.32.19,2,2,0,0,1-1.6-.52,3.2,3.2,0,0,1-.43-1.95v-2.7h-.77v-1.48h.77v-1.81H134v1.81h1.6Z"/><path d="M136.75,281.35v-9.23h1.73v.35A3,3,0,0,1,140,272a2.31,2.31,0,0,1,1.94.79,4.33,4.33,0,0,1,.62,2.67,3.91,3.91,0,0,1-.68,2.62,3,3,0,0,1-2.27.73,5.13,5.13,0,0,1-.92-.08l-.16,0v2.68Zm2.88-7.83a2.68,2.68,0,0,0-1,.2l-.16.06v3.41a7.68,7.68,0,0,0,.95.07,1.12,1.12,0,0,0,1-.44,3,3,0,0,0,.28-1.51C140.76,274.12,140.38,273.52,139.63,273.52Z"/><path d="M148.8,274.14v2.71a1,1,0,0,0,.11.43.47.47,0,0,0,.32.18l0,1.31a5,5,0,0,1-1.06-.09,2.45,2.45,0,0,1-.8-.36,4.35,4.35,0,0,1-1.91.45q-2,0-2-2.13a1.79,1.79,0,0,1,.55-1.48,3.16,3.16,0,0,1,1.72-.51l1.39-.1v-.41a.7.7,0,0,0-.18-.55.93.93,0,0,0-.59-.15l-2.44.11,0-1.21a10.2,10.2,0,0,1,2.64-.38,2.58,2.58,0,0,1,1.81.52A2.19,2.19,0,0,1,148.8,274.14Zm-2.92,1.72a.7.7,0,0,0-.73.78c0,.48.21.71.64.71a4.37,4.37,0,0,0,1.08-.15l.19-.05v-1.39Z"/><path d="M154.07,273.6h-1.6v2.66c0,.26,0,.45,0,.56a.47.47,0,0,0,.14.28.59.59,0,0,0,.39.11l1,0,.08,1.39a6.51,6.51,0,0,1-1.32.19,2,2,0,0,1-1.6-.52,3.2,3.2,0,0,1-.43-1.95v-2.7H150v-1.48h.77v-1.81h1.74v1.81h1.6Z"/><path d="M155.12,278.62v-2.16H157v2.16Z"/><path d="M36,291.26a1.38,1.38,0,0,0,1.57,1.55,1.38,1.38,0,0,0,1.58-1.55v-5.88H41v5.85a3.06,3.06,0,0,1-.84,2.38,3.65,3.65,0,0,1-2.53.76,3.62,3.62,0,0,1-2.52-.76,3.06,3.06,0,0,1-.84-2.38v-5.85H36Z"/><path d="M46.26,289.2h-1.6v2.66c0,.26,0,.45,0,.56a.43.43,0,0,0,.15.27.52.52,0,0,0,.38.12l1,0,.07,1.39a6.51,6.51,0,0,1-1.32.19,2,2,0,0,1-1.6-.52,3.2,3.2,0,0,1-.43-2v-2.7h-.77v-1.48h.77v-1.81h1.74v1.81h1.6Z"/><path d="M49.76,287.72h1.71l.8,5h.31l1-4.88h1.79l1,4.88h.31l.79-5h1.72l-1.23,6.5H55.21l-.75-4-.74,4H51Z"/><path d="M60.29,286.88v-1.76H62v1.76Zm0,7.34v-6.5H62v6.5Z"/><path d="M68.31,289.34a20.65,20.65,0,0,0-2.26-.21,1.82,1.82,0,0,0-.83.12.42.42,0,0,0-.19.37.35.35,0,0,0,.26.35,9.49,9.49,0,0,0,1.3.29,2.84,2.84,0,0,1,1.49.62,1.87,1.87,0,0,1,.44,1.39c0,1.4-.87,2.1-2.62,2.1a11.92,11.92,0,0,1-2.08-.23l-.41-.08.05-1.46a20.62,20.62,0,0,0,2.24.21,2.07,2.07,0,0,0,.86-.12.4.4,0,0,0,.23-.37.39.39,0,0,0-.24-.37,6.9,6.9,0,0,0-1.25-.28,3.29,3.29,0,0,1-1.5-.57,1.78,1.78,0,0,1-.5-1.44A1.82,1.82,0,0,1,64,288.1a2.91,2.91,0,0,1,1.8-.53,12.85,12.85,0,0,1,2.1.25l.43.08Z"/><path d="M69.78,286.88v-1.76h1.74v1.76Zm0,7.34v-6.5h1.74v6.5Z"/><path d="M77.74,292.57a1.29,1.29,0,0,0,.88.27c.8,0,1.52,0,2.16-.08l.36,0,0,1.29a11.7,11.7,0,0,1-2.71.36,2.64,2.64,0,0,1-2.13-.78,3.89,3.89,0,0,1-.66-2.53c0-2.33,1-3.5,2.87-3.5s2.83,1,2.83,2.94l-.13,1.21H77.42A1.14,1.14,0,0,0,77.74,292.57Zm1.92-2.19a1.71,1.71,0,0,0-.25-1.08,1,1,0,0,0-.86-.31,1,1,0,0,0-.87.32,1.79,1.79,0,0,0-.27,1.07Z"/><path d="M84.36,294.22H82.62v-6.5h1.73v.36a3.22,3.22,0,0,1,1.63-.52,2,2,0,0,1,1.79.77,4.44,4.44,0,0,1,.49,2.36v3.53H86.52v-3.48a2.89,2.89,0,0,0-.19-1.22.78.78,0,0,0-.78-.4,3,3,0,0,0-1,.18l-.16.05Z"/><path d="M89.81,286.88v-1.76h1.74v1.76Zm0,7.34v-6.5h1.74v6.5Z"/><path d="M94.91,294.22H93.17v-6.5h1.72v.36a3.18,3.18,0,0,1,1.54-.52,2.1,2.1,0,0,1,1.62.61,4.86,4.86,0,0,1,2.19-.61,2,2,0,0,1,1.78.75,4.33,4.33,0,0,1,.5,2.38v3.53h-1.74v-3.48a3.1,3.1,0,0,0-.18-1.22.71.71,0,0,0-.73-.4,3.65,3.65,0,0,0-1,.18l-.2.07c0,.65.06,1.14.06,1.48v3.37H97v-3.34a3.62,3.62,0,0,0-.17-1.36.7.7,0,0,0-.74-.4,2.94,2.94,0,0,0-1,.18l-.15.05Z"/><path d="M111.91,289.74v2.71a1.07,1.07,0,0,0,.1.43.5.5,0,0,0,.33.18l0,1.31a5,5,0,0,1-1.06-.09,2.36,2.36,0,0,1-.8-.36,4.38,4.38,0,0,1-1.91.45c-1.35,0-2-.71-2-2.13a1.78,1.78,0,0,1,.56-1.48,3.13,3.13,0,0,1,1.72-.51l1.39-.1v-.41a.7.7,0,0,0-.18-.55.93.93,0,0,0-.59-.15l-2.44.11,0-1.21a10.08,10.08,0,0,1,2.64-.38,2.58,2.58,0,0,1,1.81.52A2.19,2.19,0,0,1,111.91,289.74ZM109,291.46a.7.7,0,0,0-.73.78c0,.48.21.71.63.71a4.37,4.37,0,0,0,1.08-.15l.2-.05v-1.39Z"/><path d="M119.1,285.12v9.1h-1.73v-.28a3.76,3.76,0,0,1-1.57.43,2.21,2.21,0,0,1-2-.82,4.69,4.69,0,0,1-.56-2.59,4,4,0,0,1,.67-2.59,2.47,2.47,0,0,1,2-.81,6.75,6.75,0,0,1,1.16.13l.25.05v-2.62Zm-1.92,7.54.18,0V289.2a6.93,6.93,0,0,0-1.28-.13c-.7,0-1,.62-1,1.87a3.28,3.28,0,0,0,.23,1.44.82.82,0,0,0,.78.43A4.7,4.7,0,0,0,117.18,292.66Z"/><rect class="cls-9" x="252.21" y="271.52" width="107.64" height="24.73" rx="4.39"/><rect class="cls-9" x="367.61" y="271.52" width="107.64" height="24.73" rx="4.39"/><rect class="cls-9" x="483.01" y="271.52" width="107.64" height="24.73" rx="4.39"/><path d="M42.6,155.88H34.47V141.6h2.9v11.72H42.6Z"/><path d="M44.7,146.57a4.4,4.4,0,0,1,3.71-1.44,4.41,4.41,0,0,1,3.72,1.44,6.47,6.47,0,0,1,1.11,4q0,5.52-4.83,5.52t-4.83-5.52A6.47,6.47,0,0,1,44.7,146.57ZM46.87,153A2,2,0,0,0,50,153a5,5,0,0,0,.43-2.37,4.92,4.92,0,0,0-.43-2.35,2,2,0,0,0-3.09,0,4.8,4.8,0,0,0-.43,2.35A4.92,4.92,0,0,0,46.87,153Z"/><path d="M55.3,155.88v-10.5h2.8v1.11a10.56,10.56,0,0,1,3.36-1.36V148c-1.14.24-2.11.49-2.92.74l-.42.15v7Z"/><path d="M65.94,153.22a2.08,2.08,0,0,0,1.42.43q2,0,3.48-.12l.59-.06,0,2.07a18.2,18.2,0,0,1-4.37.59,4.27,4.27,0,0,1-3.44-1.26,6.3,6.3,0,0,1-1.07-4.09q0-5.66,4.64-5.65t4.58,4.74l-.21,2H65.42A1.82,1.82,0,0,0,65.94,153.22Zm3.1-3.53a2.94,2.94,0,0,0-.4-1.76,1.71,1.71,0,0,0-1.4-.49,1.73,1.73,0,0,0-1.41.51,3,3,0,0,0-.43,1.74Z"/><path d="M76.64,155.88H73.82v-10.5h2.8V146a5.16,5.16,0,0,1,2.48-.84,3.41,3.41,0,0,1,2.62,1,7.84,7.84,0,0,1,3.53-1,3.22,3.22,0,0,1,2.89,1.21,7.18,7.18,0,0,1,.8,3.85v5.69H86.13v-5.61a5.16,5.16,0,0,0-.29-2,1.17,1.17,0,0,0-1.18-.64,6,6,0,0,0-1.64.29l-.31.11c.05,1,.08,1.85.08,2.39v5.44H80v-5.4a6,6,0,0,0-.28-2.19,1.15,1.15,0,0,0-1.19-.64,4.77,4.77,0,0,0-1.62.29l-.25.09Z"/><path d="M96.06,144v-2.86h2.82V144Zm0,11.84v-10.5h2.82v10.5Z"/><path d="M101.48,160.29V145.38h2.79V146a4.8,4.8,0,0,1,2.4-.82,3.76,3.76,0,0,1,3.13,1.27,7.08,7.08,0,0,1,1,4.31c0,2-.37,3.45-1.11,4.24a4.82,4.82,0,0,1-3.65,1.18,10,10,0,0,1-1.49-.12l-.26,0v4.33Zm4.64-12.64a4.22,4.22,0,0,0-1.57.31l-.26.11v5.5a13.2,13.2,0,0,0,1.54.13,1.82,1.82,0,0,0,1.67-.72,4.8,4.8,0,0,0,.45-2.43C108,148.61,107.34,147.65,106.12,147.65Z"/><path d="M120.44,148a32.12,32.12,0,0,0-3.64-.34,2.93,2.93,0,0,0-1.34.19.63.63,0,0,0-.31.6.56.56,0,0,0,.41.56,15.58,15.58,0,0,0,2.1.47,4.56,4.56,0,0,1,2.4,1,3,3,0,0,1,.72,2.25q0,3.41-4.22,3.4a17.57,17.57,0,0,1-3.36-.38l-.67-.12.08-2.35a34.11,34.11,0,0,0,3.62.33,3.18,3.18,0,0,0,1.39-.2.65.65,0,0,0,.37-.6.61.61,0,0,0-.39-.58,10.11,10.11,0,0,0-2-.47,5.21,5.21,0,0,1-2.42-.92,2.83,2.83,0,0,1-.8-2.32,3,3,0,0,1,1.13-2.52,4.73,4.73,0,0,1,2.92-.85,19.21,19.21,0,0,1,3.38.4l.69.12Z"/><path d="M129,145.38h2.81v10.5H129v-.59a5.61,5.61,0,0,1-2.62.84c-1.46,0-2.44-.4-2.94-1.21a7.9,7.9,0,0,1-.76-4v-5.5h2.81v5.54a5.92,5.92,0,0,0,.26,2.13c.16.37.57.56,1.21.56a5.31,5.31,0,0,0,1.75-.29l.27-.09Z"/><path d="M137.24,155.88h-2.81v-10.5h2.79V146a5.19,5.19,0,0,1,2.48-.84,3.4,3.4,0,0,1,2.62,1,7.87,7.87,0,0,1,3.53-1,3.21,3.21,0,0,1,2.89,1.21,7.07,7.07,0,0,1,.81,3.85v5.69h-2.82v-5.61a5,5,0,0,0-.29-2,1.17,1.17,0,0,0-1.18-.64,6,6,0,0,0-1.63.29l-.32.11c.06,1,.09,1.85.09,2.39v5.44h-2.82v-5.4a6.25,6.25,0,0,0-.27-2.19,1.15,1.15,0,0,0-1.2-.64,4.86,4.86,0,0,0-1.62.29l-.25.09Z"/><path d="M165.59,141.18v14.7H162.8v-.44a6.19,6.19,0,0,1-2.54.69,3.58,3.58,0,0,1-3.19-1.32,7.5,7.5,0,0,1-.91-4.19,6.56,6.56,0,0,1,1.08-4.18,4,4,0,0,1,3.27-1.31,11.57,11.57,0,0,1,1.87.21l.4.08v-4.24Zm-3.11,12.18.3-.06v-5.53a11.68,11.68,0,0,0-2.06-.21c-1.13,0-1.7,1-1.7,3a5.08,5.08,0,0,0,.38,2.33,1.3,1.3,0,0,0,1.25.69A7.12,7.12,0,0,0,162.48,153.36Z"/><path d="M168.76,146.57a5.52,5.52,0,0,1,7.44,0,6.47,6.47,0,0,1,1.11,4q0,5.52-4.83,5.52t-4.83-5.52A6.47,6.47,0,0,1,168.76,146.57Zm2.18,6.41a1.94,1.94,0,0,0,3.08,0,4.92,4.92,0,0,0,.43-2.37,4.8,4.8,0,0,0-.43-2.35,2,2,0,0,0-3.08,0,4.8,4.8,0,0,0-.43,2.35A4.92,4.92,0,0,0,170.94,153Z"/><path d="M179.49,155.88v-14.7h2.82v14.7Z"/><path d="M185.6,146.57a5.52,5.52,0,0,1,7.44,0,6.47,6.47,0,0,1,1.11,4q0,5.52-4.83,5.52t-4.83-5.52A6.47,6.47,0,0,1,185.6,146.57Zm2.18,6.41a1.94,1.94,0,0,0,3.08,0,4.9,4.9,0,0,0,.44-2.37,4.79,4.79,0,0,0-.44-2.35,2,2,0,0,0-3.08,0,4.8,4.8,0,0,0-.43,2.35A4.92,4.92,0,0,0,187.78,153Z"/><path d="M196.21,155.88v-10.5H199v1.11a10.74,10.74,0,0,1,3.36-1.36V148c-1.13.24-2.11.49-2.92.74l-.42.15v7Z"/><path class="cls-6" d="M529,285.61h-1.23v2.18h-1.52v-7.48H529a2.33,2.33,0,0,1,2.66,2.6,2.71,2.71,0,0,1-.68,2A2.61,2.61,0,0,1,529,285.61Zm-1.23-1.3H529c.75,0,1.13-.46,1.13-1.4a1.48,1.48,0,0,0-.27-1,1.12,1.12,0,0,0-.86-.3h-1.22Z"/><path class="cls-6" d="M537,287.79h-4.25v-7.48h1.52v6.14H537Z"/><path class="cls-6" d="M537.27,287.79l1.69-7.48h2.88l1.68,7.48H542l-.29-1.35h-2.62l-.3,1.35Zm2.86-6.23-.76,3.56h2l-.76-3.56Z"/><path class="cls-6" d="M544.52,287.79v-7.48h2.56l1.81,6.16H549v-6.16h1.52v7.48H548l-1.87-6.16H546v6.16Z"/><path class="cls-6" d="M552.14,287.79v-7.48H557v1.32h-3.32v1.75h2.66v1.3h-2.66v1.79H557v1.32Z"/><path class="cls-6" d="M560.54,281.5c-.8,0-1.2.26-1.2.79a.6.6,0,0,0,.29.54,8.86,8.86,0,0,0,1.4.54,3.7,3.7,0,0,1,1.53.8,1.88,1.88,0,0,1,.44,1.37,2.22,2.22,0,0,1-.71,1.78,2.82,2.82,0,0,1-1.87.6,10.83,10.83,0,0,1-2.11-.26l-.39-.08.15-1.18a17.08,17.08,0,0,0,2.26.2c.77,0,1.16-.32,1.16-1a.67.67,0,0,0-.27-.56,3.73,3.73,0,0,0-1.07-.42,4.41,4.41,0,0,1-1.8-.87,1.81,1.81,0,0,1-.52-1.39,2,2,0,0,1,.68-1.67,2.89,2.89,0,0,1,1.87-.55,12.16,12.16,0,0,1,2.07.22l.4.08-.12,1.19C561.69,281.56,561,281.5,560.54,281.5Z"/><path class="cls-6" d="M520.69,277.64c0,.17,0,.34,0,.52a.82.82,0,0,1-1.62.08,6,6,0,0,1,0-.61h-.86v.46a.87.87,0,0,1-.77.85.85.85,0,0,1-.88-.82c0-.16,0-.32,0-.49h-.88c0,.15,0,.31,0,.46a.85.85,0,0,1-.72.84.8.8,0,0,1-.91-.68,4.26,4.26,0,0,1,0-.62h-.87a5.65,5.65,0,0,1,0,.59.8.8,0,0,1-.88.71.82.82,0,0,1-.74-.77c0-.18,0-.35,0-.53a3.23,3.23,0,0,0-.44,0,.5.5,0,0,0-.39.53c0,.6,0,1.21,0,1.82v3.64s0,.1,0,.13-.11.16-.17.16-.14-.08-.19-.14,0-.1,0-.15c0-1.8,0-3.59,0-5.39a.91.91,0,0,1,1-1h.22v-.35a.84.84,0,0,1,.8-.82.83.83,0,0,1,.83.8c0,.11,0,.23,0,.36h.9c0-.11,0-.21,0-.31a.82.82,0,0,1,1.63-.1c0,.14,0,.27,0,.41h.89c0-.12,0-.23,0-.33a.8.8,0,0,1,.47-.75.75.75,0,0,1,.81.06.83.83,0,0,1,.35.68c0,.1,0,.21,0,.33h.9c0-.1,0-.2,0-.3a.82.82,0,1,1,1.63,0v.29H521a.88.88,0,0,1,.93.94v12.56a.88.88,0,0,1-1,1h-9.73a.89.89,0,0,1-.95-.95V285.3c0-.05,0-.11,0-.14s.13-.14.19-.14.13.1.17.16a.4.4,0,0,1,0,.16v5.37c0,.43.18.61.61.61h9.66c.43,0,.62-.18.62-.61,0-4.14,0-8.28,0-12.42C521.53,277.74,521.24,277.54,520.69,277.64Zm-5.44-.12h0v-.31c0-.1,0-.21,0-.31a.45.45,0,1,0-.89,0v1.13a.48.48,0,0,0,.45.5.46.46,0,0,0,.43-.49C515.26,277.88,515.25,277.7,515.25,277.52Zm2.54,0h0v-.6a.48.48,0,0,0-.44-.47.45.45,0,0,0-.44.43c0,.44,0,.87,0,1.31a.45.45,0,0,0,.38.38.44.44,0,0,0,.43-.27.76.76,0,0,0,.06-.27C517.8,277.85,517.79,277.68,517.79,277.51Zm-5.95,0h0c0,.21,0,.41,0,.61a.47.47,0,0,0,.43.45.45.45,0,0,0,.44-.42c0-.41,0-.83,0-1.24a.45.45,0,0,0-.43-.46.46.46,0,0,0-.44.47C511.84,277.11,511.84,277.31,511.84,277.5Zm7.59,0h0v.56a.46.46,0,0,0,.44.48.45.45,0,0,0,.43-.48c0-.38,0-.75,0-1.13a.45.45,0,1,0-.89,0Z"/><path class="cls-6" d="M519.72,281.71h.47a.56.56,0,0,1,.57.57v2.9a.54.54,0,0,1-.57.56h-.47v.31a.62.62,0,0,1-.67.67h-.31a.62.62,0,0,1-.66-.65v-1.5h-4a1,1,0,0,0,0,.17V286a.62.62,0,0,1-.69.69h-.33a.62.62,0,0,1-.62-.61v-.37H512a.56.56,0,0,1-.59-.58v-2.87a.57.57,0,0,1,.58-.58h.46v-.31a.62.62,0,0,1,.67-.67h.31a.62.62,0,0,1,.66.66v1.49h4v-1.46a.63.63,0,0,1,.7-.69h.31a.62.62,0,0,1,.63.63Zm-6.9,2h0v2.33c0,.21.08.3.29.3h.33c.17,0,.26-.09.26-.26,0-.56,0-1.13,0-1.69v-1.34c0-.57,0-1.13,0-1.7,0-.17-.09-.25-.26-.25h-.28c-.27,0-.34.07-.34.34Zm6.52,0h0v-2.29c0-.26-.07-.33-.34-.33h-.2c-.27,0-.35.07-.34.34,0,.75,0,1.5,0,2.25s0,1.55,0,2.32c0,.26.07.33.33.33h.2c.28,0,.35-.07.35-.35Zm-5.25.45h4v-.91h-4Zm-1.65-.45v-1.38c0-.2-.06-.26-.26-.26H512c-.19,0-.25.06-.25.25v2.77c0,.2.06.26.25.26h.16c.19,0,.25-.06.25-.25Zm7.28,0v1.38c0,.07,0,.19.06.19a1.63,1.63,0,0,0,.49,0c.14,0,.12-.17.12-.27v-2.65c0-.3,0-.33-.34-.33h0c-.22,0-.28.05-.28.27Z"/><path class="cls-6" d="M516.08,288.09h2.71c.05,0,.11,0,.15,0s.13.11.13.17-.07.13-.13.18-.1,0-.15,0h-5.42s-.1,0-.13,0-.15-.12-.15-.18.09-.13.15-.18.09,0,.13,0Z"/><path class="cls-6" d="M516.08,290h-1.51a.29.29,0,0,1-.21-.11c-.08-.11,0-.25.18-.26h3a.32.32,0,0,1,.23.11c.09.12,0,.25-.21.26Z"/><path class="cls-6" d="M510.64,284.48c0,.23-.05.31-.19.31s-.19-.09-.19-.31v-.15c0-.12.08-.19.2-.18s.17.07.18.19Z"/><path class="cls-6" d="M404.3,287.79v-7.48h4.84v1.32h-3.32v1.75h2.66v1.3h-2.66v1.79h3.32v1.32Z"/><path class="cls-6" d="M409.79,288.56v-1.32a1,1,0,0,0,.63-.16.76.76,0,0,0,.2-.62v-6.15h1.51v6.22a2,2,0,0,1-.53,1.61A3,3,0,0,1,409.79,288.56Z"/><path class="cls-6" d="M413.71,287.79v-7.48h4.84v1.32h-3.32v1.75h2.66v1.3h-2.66v1.79h3.32v1.32Z"/><path class="cls-6" d="M421.33,285.28v2.51h-1.52v-7.48h2.9q2.64,0,2.64,2.46a2.37,2.37,0,0,1-1.1,2.16l1.07,2.86h-1.66l-.87-2.51Zm2.21-1.63a1.34,1.34,0,0,0,.26-.86,1.24,1.24,0,0,0-.28-.86,1,1,0,0,0-.81-.32h-1.38V284h1.4A1,1,0,0,0,423.54,283.65Z"/><path class="cls-6" d="M431.37,287.67a9.93,9.93,0,0,1-2.1.25,3.91,3.91,0,0,1-1.5-.23,1.86,1.86,0,0,1-.88-.73,3.38,3.38,0,0,1-.44-1.19,10.26,10.26,0,0,1-.12-1.72,5.43,5.43,0,0,1,.61-3,2.6,2.6,0,0,1,2.25-.85,9.5,9.5,0,0,1,2.19.3l-.05,1.21a12.41,12.41,0,0,0-1.8-.17,2.1,2.1,0,0,0-1,.19,1.21,1.21,0,0,0-.46.73,7.8,7.8,0,0,0-.15,1.84,3.77,3.77,0,0,0,.3,1.8,1.32,1.32,0,0,0,1.21.5,13.26,13.26,0,0,0,1.93-.15Z"/><path class="cls-6" d="M432.6,287.79v-7.48h1.52v7.48Z"/><path class="cls-6" d="M440.49,287.67a9.93,9.93,0,0,1-2.1.25,3.87,3.87,0,0,1-1.5-.23A1.86,1.86,0,0,1,436,287a3.38,3.38,0,0,1-.44-1.19,10.26,10.26,0,0,1-.12-1.72,5.43,5.43,0,0,1,.61-3,2.6,2.6,0,0,1,2.25-.85,9.5,9.5,0,0,1,2.19.3l-.05,1.21a12.53,12.53,0,0,0-1.81-.17,2.08,2.08,0,0,0-1,.19,1.21,1.21,0,0,0-.46.73,7.8,7.8,0,0,0-.15,1.84,3.77,3.77,0,0,0,.3,1.8,1.31,1.31,0,0,0,1.21.5,13.26,13.26,0,0,0,1.93-.15Z"/><path class="cls-6" d="M441.72,287.79v-7.48h1.52v7.48Z"/><path class="cls-6" d="M450,287a3.57,3.57,0,0,1-4.81,0,4.91,4.91,0,0,1-.69-2.91,5.06,5.06,0,0,1,.69-2.94,3.49,3.49,0,0,1,4.81,0,5,5,0,0,1,.7,2.94A4.83,4.83,0,0,1,450,287Zm-3.62-1a1.28,1.28,0,0,0,1.22.57,1.26,1.26,0,0,0,1.21-.57,4.17,4.17,0,0,0,.33-1.94,4.37,4.37,0,0,0-.33-2,1.49,1.49,0,0,0-2.42,0,6,6,0,0,0,0,3.91Z"/><path class="cls-6" d="M454.34,281.5c-.8,0-1.2.26-1.2.79a.6.6,0,0,0,.29.54,8.86,8.86,0,0,0,1.4.54,3.77,3.77,0,0,1,1.53.8,1.88,1.88,0,0,1,.44,1.37,2.19,2.19,0,0,1-.72,1.78,2.78,2.78,0,0,1-1.87.6,10.83,10.83,0,0,1-2.1-.26l-.39-.08.15-1.18a17,17,0,0,0,2.26.2c.77,0,1.16-.32,1.16-1a.67.67,0,0,0-.27-.56,3.73,3.73,0,0,0-1.07-.42,4.41,4.41,0,0,1-1.8-.87,1.81,1.81,0,0,1-.52-1.39,2,2,0,0,1,.68-1.67,2.89,2.89,0,0,1,1.87-.55,12.16,12.16,0,0,1,2.07.22l.4.08-.13,1.19C455.49,281.56,454.76,281.5,454.34,281.5Z"/><path class="cls-6" d="M386.6,291.79v-.47h1.55l0,0-.11-.09a5.92,5.92,0,0,1-.87-7.79.4.4,0,0,0,.08-.26q0-1.56-.12-3.12a2.26,2.26,0,0,1,.63-1.84,2.05,2.05,0,0,1,1.48-.6h5.54a2.12,2.12,0,0,1,2.13,2.17c0,1-.07,2-.13,3a1.53,1.53,0,0,0,.24,1,5.74,5.74,0,0,1,.69,4.74s0,.08,0,.13l.62.26.38.17a1.11,1.11,0,0,1,.68,1c0,.43,0,.85,0,1.29h.48v.47Zm10.65-3.41s0-.06,0-.08a5.38,5.38,0,0,0-.62-4.37,1.44,1.44,0,0,1-.32-1.23q.09-1.47.12-2.94a1.64,1.64,0,0,0-1.63-1.7h-5.57a1.54,1.54,0,0,0-.93.3,1.73,1.73,0,0,0-.7,1.62c.06,1.1.09,2.21.13,3.31a.49.49,0,0,1-.09.28,5.45,5.45,0,0,0,1.23,7.69.34.34,0,0,0,.2.06H394l-.15-.12L389,287.12a.7.7,0,0,1-.06-1.07q1.56-1.59,3.14-3.15a.24.24,0,0,1,.4,0c.22.21.44.42.64.65a.37.37,0,0,1,.1.24,1.9,1.9,0,0,0,1.5,1.8,5,5,0,0,0,.87,0c.27,0,.32,0,.38.3l.51,2a.24.24,0,0,0,.08.13Zm-4.94-5-1.1,1.1,0,.07a2.48,2.48,0,0,1,.55,1.71,5,5,0,0,1-.16.94.25.25,0,0,0,.1.28l3.13,2.61.17.14a1.39,1.39,0,0,1,1-.78c.14,0,.28,0,.41,0a.88.88,0,0,0,.68-.56c-.26-.11-.5-.23-.75-.31a.47.47,0,0,1-.37-.43c0-.09,0-.11-.14-.11h-1.47v-.47h1.46c0-.13-.06-.23-.08-.34a.15.15,0,0,0-.17-.14h-1.45v-.47h1.47l-.12-.47h-.38a4,4,0,0,1-.5-.05,2.36,2.36,0,0,1-1.89-2.12.18.18,0,0,0,0-.13Zm-2.85,2.82-.1.08c-.23.24-.23.33,0,.54l5.24,4.41a.37.37,0,0,0,.27.09h3.77a.24.24,0,0,0,.25-.24v-.23h-3.69a.49.49,0,0,1-.32-.12l-4.58-3.82Zm9.45,4.17v-.26a.74.74,0,0,0-.48-.73l-.44-.18-.39-.16a1.45,1.45,0,0,1-1.38.87.78.78,0,0,0-.62.33.74.74,0,0,0-.08.13Zm-8-5.55-1.06,1.05,1.38,1.15A2.26,2.26,0,0,0,390.87,284.82Z"/><path class="cls-6" d="M385.65,291.79v-.46h.47v.46Z"/><path class="cls-6" d="M398.87,287.55l-.41,0s0-.08,0-.12c0-.43,0-.87,0-1.3a6.11,6.11,0,0,0-1-2.82l-.06-.09.38-.28A6.85,6.85,0,0,1,398.87,287.55Z"/><path class="cls-6" d="M388.32,280a1.16,1.16,0,0,1,1.16-1.21h5.14a1.16,1.16,0,0,1,1.15,1.27c0,.7-.09,1.4-.14,2.1a.37.37,0,0,1-.09.25c-.08.1-.19.09-.33,0a5.1,5.1,0,0,0-1.45-.74,5.38,5.38,0,0,0-4.81.69l-.11.07a.23.23,0,0,1-.38-.19l-.09-1.34C388.35,280.58,388.34,280.29,388.32,280Zm6.86,1.79a.2.2,0,0,1,0,0c0-.58.08-1.16.11-1.75a.7.7,0,0,0-.7-.73h-5.1a.7.7,0,0,0-.71.74l0,.4.09,1.39A6,6,0,0,1,395.18,281.78Z"/><path class="cls-6" d="M388,284.8a4.27,4.27,0,0,0-.48,2,4.44,4.44,0,0,0,.48,2l-.41.21a4.84,4.84,0,0,1,0-4.46Z"/><path class="cls-6" d="M388.62,289.75l-.36.31-.37-.5.39-.26Z"/><path class="cls-6" d="M287.19,285.61H286v2.18h-1.51v-7.48h2.75a2.33,2.33,0,0,1,2.66,2.6,2.75,2.75,0,0,1-.68,2A2.61,2.61,0,0,1,287.19,285.61Zm-1.24-1.3h1.23c.75,0,1.13-.46,1.13-1.4a1.42,1.42,0,0,0-.28-1,1.1,1.1,0,0,0-.85-.3H286Z"/><path class="cls-6" d="M292.43,285.28v2.51h-1.51v-7.48h2.9q2.64,0,2.64,2.46a2.37,2.37,0,0,1-1.1,2.16l1.07,2.86h-1.66l-.87-2.51Zm2.21-1.63a1.48,1.48,0,0,0,0-1.72,1,1,0,0,0-.81-.32h-1.39V284h1.41A.92.92,0,0,0,294.64,283.65Z"/><path class="cls-6" d="M302.91,287a3.57,3.57,0,0,1-4.81,0,4.91,4.91,0,0,1-.7-2.91,5.05,5.05,0,0,1,.7-2.94,3.49,3.49,0,0,1,4.81,0,5,5,0,0,1,.7,2.94A4.83,4.83,0,0,1,302.91,287Zm-3.62-1a1.28,1.28,0,0,0,1.22.57,1.26,1.26,0,0,0,1.21-.57,4.17,4.17,0,0,0,.33-1.94,4.37,4.37,0,0,0-.33-2,1.49,1.49,0,0,0-2.42,0,6,6,0,0,0,0,3.91Z"/><path class="cls-6" d="M308,285.11v-1.32h2.18v3.88a16.59,16.59,0,0,1-2.55.25,2.76,2.76,0,0,1-2.41-.93,5.34,5.34,0,0,1-.65-3,4.9,4.9,0,0,1,.68-2.94,2.73,2.73,0,0,1,2.32-.9,12,12,0,0,1,2.21.23l.4.08-.05,1.17c-.88-.09-1.6-.14-2.16-.14a2.55,2.55,0,0,0-1.18.2,1.17,1.17,0,0,0-.5.73,7.08,7.08,0,0,0-.16,1.83,3.73,3.73,0,0,0,.32,1.81,1.44,1.44,0,0,0,1.32.51l.91,0v-1.45Z"/><path class="cls-6" d="M313.15,285.28v2.51h-1.52v-7.48h2.9q2.64,0,2.64,2.46a2.35,2.35,0,0,1-1.1,2.16l1.07,2.86h-1.66l-.87-2.51Zm2.21-1.63a1.34,1.34,0,0,0,.26-.86,1.24,1.24,0,0,0-.28-.86,1,1,0,0,0-.81-.32h-1.38V284h1.4A1,1,0,0,0,315.36,283.65Z"/><path class="cls-6" d="M317.73,287.79l1.69-7.48h2.88l1.68,7.48h-1.52l-.29-1.35h-2.62l-.3,1.35Zm2.86-6.23-.76,3.56h2.05l-.76-3.56Z"/><path class="cls-6" d="M325,287.79v-7.48h2.59l1.32,5.46,1.32-5.46h2.58v7.48h-1.52V282h-.16l-1.46,5.46h-1.52L326.67,282h-.17v5.79Z"/><path class="cls-6" d="M333.79,287.79l1.69-7.48h2.88l1.68,7.48h-1.52l-.29-1.35h-2.62l-.3,1.35Zm2.86-6.23-.76,3.56h2.05l-.76-3.56Z"/><path class="cls-6" d="M343.26,281.5c-.8,0-1.2.26-1.2.79a.59.59,0,0,0,.3.54,8.6,8.6,0,0,0,1.39.54,3.82,3.82,0,0,1,1.54.8,1.88,1.88,0,0,1,.44,1.37,2.19,2.19,0,0,1-.72,1.78,2.8,2.8,0,0,1-1.87.6,10.83,10.83,0,0,1-2.1-.26l-.39-.08.15-1.18a16.83,16.83,0,0,0,2.25.2q1.17,0,1.17-1a.67.67,0,0,0-.27-.56,3.86,3.86,0,0,0-1.07-.42,4.41,4.41,0,0,1-1.8-.87,1.81,1.81,0,0,1-.52-1.39,2,2,0,0,1,.68-1.67,2.87,2.87,0,0,1,1.87-.55,12.16,12.16,0,0,1,2.07.22l.39.08-.12,1.19C344.42,281.56,343.69,281.5,343.26,281.5Z"/><path class="cls-6" d="M269.28,291.77a6.6,6.6,0,0,1-.77-.17,3.52,3.52,0,0,1-1.59-1,.22.22,0,0,1-.05-.29.2.2,0,0,1,.24-.08.39.39,0,0,1,.15.11,3.3,3.3,0,0,0,2.21,1,3.25,3.25,0,1,0-3.12-3,3.76,3.76,0,0,0,.35,1.27.4.4,0,0,1,0,.24.21.21,0,0,1-.17.12.28.28,0,0,1-.2-.13,3.11,3.11,0,0,1-.38-1.07,3.67,3.67,0,1,1,4.11,3l-.2,0Z"/><path class="cls-6" d="M280.15,280.12l-.06.26a2.25,2.25,0,0,1-.6,1.14c-.14.15-.24.15-.38,0-1-1-2-2-2.95-2.95-.15-.15-.14-.25,0-.4a2.37,2.37,0,0,1,3-.19l.17.12.21-.25a.21.21,0,1,1,.3.3l-.24.22.16.23a2.34,2.34,0,0,1,.37,1,.32.32,0,0,0,0,.09Zm-.85,1a1.92,1.92,0,0,0-.22-2.63,1.9,1.9,0,0,0-2.48-.07Z"/><path class="cls-6" d="M277.76,286.55l.74.73.08.08a.21.21,0,0,1,0,.31.2.2,0,0,1-.31,0l-.69-.69-.11-.13-.3.23a4.42,4.42,0,0,1-3.54.87c-.18,0-.26-.12-.23-.25s.13-.19.31-.16a4.08,4.08,0,0,0,1.42-8,4.09,4.09,0,0,0-4.72,3.29,4.18,4.18,0,0,0,0,1.17c0,.17-.05.28-.18.3s-.22-.07-.24-.25a4.5,4.5,0,0,1,4.63-5,4.5,4.5,0,0,1,3.23,7.45Z"/><path class="cls-6" d="M270.5,288.77h-1.82v.51c0,.24-.06.3-.29.3h-1.1c-.19,0-.26-.08-.26-.26v-2.43c0-.2.07-.27.27-.27h1.11c.2,0,.27.07.27.27v.54h1.82v-.52c0-.22.07-.29.28-.29h1.1c.21,0,.27.07.27.27v2.42c0,.2-.07.27-.26.27h-1.13c-.18,0-.26-.08-.26-.27Zm-2.25.38v-2.1h-.79v2.1Zm3.47,0v-2.1h-.79v2.1Zm-3-.82h1.81v-.46h-1.81Z"/><path class="cls-6" d="M270.7,283.52a3.73,3.73,0,0,1,7.41-.55,4.32,4.32,0,0,1,0,.5c0,.16-.07.25-.19.25s-.22-.08-.22-.24a3.31,3.31,0,0,0-4.13-3.14,3.16,3.16,0,0,0-2.41,2.6,3.09,3.09,0,0,0,0,1.25c0,.11,0,.21-.06.28a.2.2,0,0,1-.34-.13C270.76,284.07,270.73,283.79,270.7,283.52Z"/><path class="cls-6" d="M272.23,278.38a1.94,1.94,0,0,0-3.12,1.2c0,.21-.11.31-.26.29s-.19-.13-.15-.34a2.43,2.43,0,0,1,.53-1.17c-.08-.07-.17-.13-.25-.21a.21.21,0,0,1,0-.32c.09-.09.21-.09.33,0l.21.2,0,0a2.28,2.28,0,0,1,.93-.47,2.33,2.33,0,0,1,2.18.56c.17.15.17.25,0,.42l-2.92,2.92c-.16.16-.26.16-.41,0a2.32,2.32,0,0,1-.56-1c0-.15,0-.27.13-.3s.23,0,.28.2a1.81,1.81,0,0,0,.36.72Z"/><path class="cls-6" d="M273.41,284.88h.32a.21.21,0,0,1,.24.21.21.21,0,0,1-.23.21h-.86a.21.21,0,0,1-.24-.24v-.84a.22.22,0,0,1,.22-.25.22.22,0,0,1,.2.25v.34l.1-.07.59-.59a.15.15,0,0,0,0-.18.66.66,0,0,1,.35-.81.15.15,0,0,0,.09-.16V280.9c0-.07,0-.16.06-.19a.27.27,0,0,1,.21-.07c.1,0,.15.1.15.21v1.9a.15.15,0,0,0,.1.16.66.66,0,0,1,.32.87.68.68,0,0,1-.85.38.19.19,0,0,0-.13,0l-.69.68Zm1-1.11a.26.26,0,1,0-.27-.26A.26.26,0,0,0,274.44,283.77Z"/><path class="cls-6" d="M274.43,287.26l-.94-.15c-.17,0-.24-.15-.2-.28s.14-.17.3-.13a3.32,3.32,0,0,0,4.06-2.44.27.27,0,0,1,.14-.2.19.19,0,0,1,.27.22,2.62,2.62,0,0,1-.13.48A3.77,3.77,0,0,1,274.43,287.26Z"/></svg>