<?xml version="1.0" encoding="utf-8"?>
<!-- Generator: Adobe Illustrator 25.0.0, SVG Export Plug-In . SVG Version: 6.00 Build 0)  -->
<svg version="1.1" id="Capa_1" xmlns="http://www.w3.org/2000/svg" xmlns:xlink="http://www.w3.org/1999/xlink" x="0px" y="0px"
	 viewBox="0 0 26.9 36.02" style="enable-background:new 0 0 26.9 36.02;" xml:space="preserve">
<g>
	<path d="M24.11,3.65c0,0.39,0.02,0.8,0,1.2c-0.05,0.94-0.83,1.75-1.7,1.79c-1.05,0.05-1.9-0.61-2.04-1.61
		c-0.06-0.46-0.06-0.93-0.09-1.41c-0.66,0-1.31,0-2,0c0,0.37,0,0.72,0,1.08c-0.01,1.04-0.81,1.89-1.78,1.95
		c-1.01,0.06-1.96-0.73-2.03-1.89c-0.02-0.37,0-0.74,0-1.14c-0.68,0-1.33,0-2.02,0c0,0.36,0.01,0.72,0,1.07
		c-0.02,1-0.78,1.87-1.68,1.94c-1.05,0.08-1.92-0.55-2.1-1.59C8.6,4.6,8.66,4.12,8.66,3.63c-0.69,0-1.34,0-2.02,0
		C6.61,4.08,6.62,4.55,6.55,5.01C6.41,6.04,5.57,6.7,4.5,6.64C3.64,6.6,2.86,5.78,2.81,4.85c-0.02-0.4,0-0.81,0-1.22
		c-0.38,0-0.71-0.04-1.02,0.01C1.25,3.71,0.88,4.22,0.88,4.84c0,1.4,0,2.8,0,4.21c0,2.8,0,5.61,0,8.41c0,0.11,0.04,0.25-0.01,0.32
		c-0.11,0.15-0.26,0.36-0.4,0.36c-0.14,0-0.32-0.18-0.43-0.33c-0.06-0.08-0.02-0.23-0.02-0.35c0-4.15,0.02-8.29-0.01-12.44
		c-0.01-1.29,0.86-2.39,2.3-2.29c0.15,0.01,0.31,0,0.51,0c0-0.29-0.01-0.55,0-0.81c0.03-1.04,0.84-1.87,1.84-1.9
		C5.66,0.01,6.5,0.8,6.57,1.87c0.02,0.27,0,0.55,0,0.84c0.71,0,1.37,0,2.07,0c0-0.25,0-0.49,0-0.73c0.02-1.05,0.8-1.9,1.78-1.95
		c1-0.05,1.85,0.68,1.98,1.74c0.04,0.3,0.01,0.62,0.01,0.94c0.15,0.01,0.24,0.03,0.34,0.03c0.56,0,1.12,0,1.73,0
		c0-0.28-0.01-0.53,0-0.78c0.04-0.78,0.38-1.38,1.09-1.74c0.65-0.32,1.28-0.26,1.87,0.15c0.54,0.38,0.79,0.91,0.83,1.56
		c0.01,0.25,0,0.5,0,0.78c0.69,0,1.35,0,2.06,0c0-0.24-0.01-0.47,0-0.69c0.03-1.14,0.84-1.99,1.89-1.99c1.07,0,1.87,0.87,1.89,2.03
		c0,0.21,0,0.42,0,0.68c0.24,0,0.44,0,0.64,0c1.31,0.01,2.15,0.84,2.15,2.17c0,7.75,0,15.51,0,23.26c0,1.92,0,3.84,0,5.75
		c0,1.38-0.83,2.21-2.22,2.21c-7.49,0-14.98,0-22.47,0c-1.36,0-2.2-0.84-2.2-2.19c0-4.19,0-8.39,0-12.58c0-0.11-0.03-0.25,0.02-0.32
		c0.12-0.14,0.29-0.33,0.43-0.33c0.14,0.01,0.29,0.22,0.39,0.37c0.06,0.08,0.01,0.23,0.01,0.35c0,4.13,0,8.27,0,12.4
		c0,1.01,0.42,1.43,1.41,1.43c7.44,0,14.88,0,22.33,0c1,0,1.42-0.42,1.42-1.41c0-9.56-0.01-19.13,0.01-28.69
		C26.05,3.89,25.38,3.42,24.11,3.65z M11.55,3.38c0.01,0,0.02,0,0.02,0c0-0.24,0-0.48,0-0.72c0-0.24,0.01-0.48-0.01-0.72
		c-0.06-0.63-0.51-1.07-1.06-1.05c-0.55,0.02-0.99,0.49-1,1.11c-0.01,0.87-0.02,1.75,0,2.62c0.01,0.66,0.48,1.16,1.04,1.15
		c0.55-0.01,0.97-0.49,1-1.14C11.56,4.22,11.55,3.8,11.55,3.38z M17.41,3.36C17.41,3.36,17.41,3.36,17.41,3.36c0-0.23,0-0.45,0-0.68
		c0-0.24,0.01-0.48,0-0.72c-0.03-0.6-0.47-1.05-1.01-1.07c-0.53-0.01-1.01,0.4-1.03,0.99c-0.03,1-0.01,2.01,0.03,3.01
		c0.02,0.44,0.43,0.81,0.87,0.88c0.38,0.06,0.83-0.2,1-0.61c0.08-0.19,0.12-0.41,0.13-0.62C17.42,4.15,17.41,3.75,17.41,3.36z
		 M3.67,3.34C3.67,3.34,3.67,3.34,3.67,3.34c0.01,0.47-0.01,0.93,0.01,1.4C3.7,5.3,4.16,5.77,4.67,5.78c0.5,0.01,1-0.43,1.01-0.97
		C5.71,3.86,5.72,2.9,5.7,1.94C5.69,1.33,5.23,0.89,4.69,0.89c-0.56,0-1,0.46-1.02,1.08C3.66,2.43,3.67,2.88,3.67,3.34z M21.2,3.37
		c0.01,0,0.01,0,0.02,0c0,0.22,0,0.43,0,0.65c0,0.22,0,0.43,0,0.65c0.01,0.64,0.46,1.13,1.02,1.12c0.55-0.01,1-0.5,1-1.11
		c0.01-0.87,0.01-1.75,0.01-2.62c0-0.68-0.43-1.16-1.01-1.16c-0.58,0-1.01,0.47-1.03,1.15C21.19,2.48,21.2,2.93,21.2,3.37z"/>
	<path d="M21.86,13.06c0.39,0,0.73-0.01,1.08,0c0.78,0.03,1.32,0.54,1.32,1.32c0.01,2.23,0.01,4.46,0,6.69c0,0.76-0.53,1.27-1.3,1.3
		c-0.35,0.02-0.69,0-1.1,0c0,0.21,0,0.46,0,0.72c-0.01,0.96-0.58,1.54-1.55,1.55c-0.24,0-0.48,0-0.72,0
		c-0.92-0.01-1.5-0.58-1.51-1.51c-0.01-1.02,0-2.04,0-3.06c0-0.13,0-0.26,0-0.4c-3.09,0-6.14,0-9.23,0
		c-0.01,0.13-0.02,0.25-0.02,0.38c0,0.99,0,1.99,0,2.98c0,1.04-0.57,1.6-1.6,1.6c-0.25,0-0.5,0.01-0.75,0
		c-0.81-0.02-1.39-0.6-1.42-1.41c-0.01-0.3,0-0.59,0-0.85c-0.38,0-0.71,0.01-1.04,0c-0.82-0.02-1.35-0.54-1.36-1.36
		c-0.01-2.21-0.01-4.41,0-6.62c0-0.8,0.54-1.31,1.34-1.34c0.33-0.01,0.67,0,1.06,0c0-0.21,0-0.47,0-0.72
		c0.01-0.96,0.58-1.54,1.55-1.54c0.24,0,0.48,0,0.72,0c0.92,0.01,1.5,0.58,1.51,1.51c0.01,1.02,0,2.04,0,3.06c0,0.13,0,0.26,0,0.4
		c3.09,0,6.14,0,9.25,0c0-0.13,0-0.26,0-0.38c0-0.99,0-1.99,0-2.98c0-1.04,0.56-1.59,1.6-1.6c0.24,0,0.48,0,0.72,0
		c0.85,0.02,1.44,0.6,1.46,1.45C21.87,12.54,21.86,12.82,21.86,13.06z M5.91,17.7C5.92,17.7,5.92,17.7,5.91,17.7
		c0.01,0.41,0.01,0.81,0.01,1.22c0,1.39-0.01,2.78-0.01,4.17c0,0.48,0.2,0.67,0.68,0.68c0.25,0,0.5,0.01,0.75,0
		c0.4-0.01,0.61-0.2,0.62-0.59c0.01-1.31,0-2.61-0.01-3.92c0-1.03,0-2.06,0-3.09c0-1.31,0.01-2.61,0.01-3.92
		c0-0.4-0.22-0.58-0.62-0.59c-0.22-0.01-0.43,0-0.65,0c-0.62,0-0.78,0.17-0.78,0.79C5.91,14.2,5.91,15.95,5.91,17.7z M21,17.73
		C21,17.73,21,17.73,21,17.73c-0.01-0.71-0.01-1.41,0-2.12c0-1.05,0-2.11,0-3.16c0-0.61-0.17-0.78-0.79-0.78c-0.16,0-0.31,0-0.47,0
		c-0.63,0-0.79,0.16-0.79,0.78c0.01,1.74,0.03,3.47,0.03,5.21c0,1.79-0.02,3.57-0.02,5.36c0,0.6,0.17,0.76,0.77,0.77
		c0.16,0,0.31,0,0.47,0c0.65,0,0.81-0.16,0.81-0.8C21,21.23,21,19.48,21,17.73z M8.86,18.77c3.08,0,6.13,0,9.18,0
		c0-0.71,0-1.4,0-2.1c-3.07,0-6.12,0-9.18,0C8.86,17.38,8.86,18.06,8.86,18.77z M5.04,17.73c0-1.07,0-2.13,0-3.2
		c0-0.46-0.13-0.6-0.59-0.6c-0.12,0-0.24,0-0.36,0c-0.44,0.01-0.58,0.14-0.58,0.59c0,2.13,0,4.26,0,6.4c0,0.46,0.14,0.6,0.6,0.6
		c0.12,0,0.24,0,0.36,0c0.44-0.01,0.57-0.15,0.58-0.59C5.05,19.86,5.04,18.79,5.04,17.73z M21.87,17.72c0,1.07-0.01,2.13,0.01,3.2
		c0,0.16,0.06,0.43,0.13,0.44c0.37,0.07,0.77,0.13,1.14,0.08c0.31-0.04,0.26-0.38,0.26-0.63c0-2.04,0-4.07,0-6.11
		c0-0.7-0.08-0.78-0.79-0.78c-0.04,0-0.07,0-0.11,0c-0.51,0-0.64,0.13-0.64,0.63C21.87,15.61,21.87,16.67,21.87,17.72z"/>
	<path d="M13.46,27.79c2.08,0,4.17,0,6.25,0c0.12,0,0.27-0.04,0.35,0.02c0.14,0.1,0.32,0.27,0.32,0.41c0,0.14-0.18,0.3-0.32,0.41
		c-0.08,0.06-0.23,0.02-0.35,0.02c-4.17,0-8.33,0-12.5,0c-0.11,0-0.25,0.04-0.32-0.02c-0.14-0.11-0.35-0.27-0.35-0.42
		c0-0.14,0.2-0.3,0.35-0.42c0.07-0.05,0.21-0.02,0.32-0.02C9.29,27.79,11.37,27.79,13.46,27.79z"/>
	<path d="M13.46,32.25c-1.16,0-2.32,0.01-3.49-0.01c-0.17,0-0.4-0.12-0.5-0.25C9.3,31.72,9.53,31.4,9.9,31.39
		c0.62-0.01,1.25,0,1.87,0c1.71,0,3.43-0.01,5.14,0.01c0.18,0,0.43,0.11,0.53,0.26c0.19,0.28-0.08,0.59-0.49,0.6
		C15.78,32.25,14.62,32.25,13.46,32.25z"/>
	<path d="M0.88,19.45c0,0.53-0.11,0.72-0.42,0.72c-0.31,0-0.44-0.2-0.44-0.71c0-0.12-0.01-0.24,0-0.36
		c0.03-0.26,0.18-0.43,0.44-0.42c0.26,0.01,0.41,0.17,0.41,0.44C0.88,19.24,0.88,19.34,0.88,19.45z"/>
</g>
</svg>
