<?xml version="1.0" encoding="utf-8"?>
<!-- Generator: Adobe Illustrator 25.0.0, SVG Export Plug-In . SVG Version: 6.00 Build 0)  -->
<svg version="1.1" id="Capa_1" xmlns="http://www.w3.org/2000/svg" xmlns:xlink="http://www.w3.org/1999/xlink" x="0px" y="0px"
	 viewBox="0 0 36 36.02" style="enable-background:new 0 0 36 36.02;" xml:space="preserve">
<style type="text/css">
	.st0{fill:#FFFFFF;}
</style>
<g>
	<path d="M8.5,36.02c-0.65-0.14-1.31-0.24-1.95-0.43c-1.56-0.46-2.89-1.31-4.02-2.48c-0.21-0.22-0.3-0.45-0.13-0.73
		c0.14-0.23,0.37-0.3,0.61-0.21c0.13,0.05,0.25,0.16,0.36,0.27c1.54,1.56,3.42,2.4,5.61,2.5c3.86,0.19,7.45-2.56,8.3-6.33
		c1.07-4.72-2.02-9.27-6.79-10.02c-5.14-0.8-9.8,3.51-9.4,8.7c0.09,1.13,0.39,2.18,0.88,3.2c0.09,0.18,0.13,0.44,0.08,0.62
		c-0.04,0.13-0.28,0.31-0.42,0.29c-0.19-0.02-0.43-0.16-0.52-0.32c-0.49-0.84-0.78-1.75-0.96-2.7c-0.73-4.06,1.28-8.08,4.95-9.95
		c5.52-2.81,12.26,0.55,13.33,6.65c0.92,5.22-2.64,10.13-7.86,10.85c-0.17,0.02-0.34,0.06-0.52,0.08
		C9.53,36.02,9.02,36.02,8.5,36.02z"/>
	<path d="M36,6.54c-0.05,0.21-0.09,0.43-0.14,0.64c-0.23,1.11-0.74,2.07-1.51,2.89c-0.36,0.38-0.61,0.38-0.98,0
		c-2.49-2.48-4.97-4.97-7.46-7.46c-0.38-0.38-0.37-0.63,0.03-1.01c2.06-1.93,5.24-2.14,7.54-0.5c0.11,0.08,0.23,0.16,0.42,0.3
		c0.18-0.21,0.35-0.43,0.54-0.63c0.27-0.27,0.57-0.28,0.8-0.05c0.23,0.23,0.22,0.53-0.06,0.81c-0.19,0.19-0.39,0.37-0.6,0.56
		c0.15,0.21,0.28,0.39,0.4,0.57c0.5,0.76,0.82,1.6,0.94,2.51c0.01,0.08,0.04,0.16,0.06,0.23C36,5.79,36,6.17,36,6.54z M33.86,8.98
		c1.61-1.89,1.36-4.91-0.56-6.65c-1.98-1.79-4.84-1.49-6.28-0.19C29.29,4.41,31.57,6.69,33.86,8.98z"/>
	<path d="M29.97,22.8c0.64,0.64,1.25,1.25,1.87,1.86c0.07,0.07,0.14,0.13,0.2,0.2c0.23,0.26,0.25,0.57,0.04,0.79
		c-0.23,0.23-0.53,0.23-0.81-0.04c-0.59-0.57-1.16-1.16-1.74-1.74c-0.1-0.1-0.18-0.22-0.28-0.34c-0.28,0.22-0.5,0.42-0.74,0.6
		c-2.68,2.01-5.67,2.75-8.98,2.19c-0.44-0.07-0.64-0.31-0.58-0.64c0.06-0.35,0.34-0.49,0.8-0.41c2.43,0.42,4.73,0.02,6.89-1.18
		c3.54-1.98,5.6-5.97,5.17-10c-0.5-4.66-3.85-8.28-8.47-9.14c-5.5-1.03-11,2.81-11.95,8.33c-0.17,0.99-0.2,1.98-0.09,2.98
		c0.05,0.42-0.13,0.7-0.46,0.74c-0.33,0.04-0.56-0.18-0.6-0.62c-0.32-3.16,0.47-6.01,2.5-8.46c2.38-2.88,5.49-4.26,9.22-4.19
		c5.18,0.1,9.81,4.05,10.75,9.16c0.66,3.63-0.19,6.87-2.58,9.7C30.08,22.65,30.04,22.71,29.97,22.8z"/>
	<path d="M11.6,28.42c-1.55,0-3.05,0-4.62,0c0,0.43,0,0.86,0,1.29c0,0.6-0.15,0.75-0.74,0.75c-0.93,0-1.85,0-2.78,0
		c-0.47,0-0.66-0.19-0.66-0.66c0-2.05,0-4.1,0-6.15c0-0.49,0.18-0.67,0.68-0.67c0.94,0,1.87,0,2.81,0c0.51,0,0.67,0.17,0.68,0.67
		c0,0.45,0,0.91,0,1.38c1.55,0,3.06,0,4.62,0c0-0.44,0-0.88,0-1.32c0-0.55,0.17-0.72,0.7-0.73c0.93,0,1.85,0,2.78,0
		c0.53,0,0.7,0.16,0.7,0.69c0,2.04,0,4.08,0,6.12c0,0.5-0.18,0.68-0.67,0.68c-0.95,0-1.9,0-2.85,0c-0.47,0-0.65-0.19-0.65-0.67
		C11.59,29.35,11.6,28.91,11.6,28.42z M5.88,29.38c0-1.79,0-3.55,0-5.3c-0.68,0-1.34,0-2,0c0,1.78,0,3.53,0,5.3
		C4.56,29.38,5.21,29.38,5.88,29.38z M14.68,29.39c0-1.79,0-3.55,0-5.32c-0.68,0-1.33,0-1.99,0c0,1.79,0,3.55,0,5.32
		C13.36,29.39,14,29.39,14.68,29.39z M7,27.31c1.55,0,3.07,0,4.58,0c0-0.41,0-0.79,0-1.17c-1.54,0-3.05,0-4.58,0
		C7,26.54,7,26.91,7,27.31z"/>
	<path d="M12.08,15.13c0.05-4.89,3.82-8.98,8.67-9.37c4.97-0.4,9.37,3.09,10.09,8c0.06,0.42,0.08,0.84,0.09,1.26
		c0.01,0.39-0.18,0.62-0.5,0.63c-0.33,0.02-0.55-0.22-0.56-0.62c-0.04-1.9-0.61-3.63-1.83-5.09c-2.27-2.72-5.2-3.75-8.62-2.85
		c-3.35,0.88-5.38,3.17-6.09,6.58c-0.22,1.06-0.18,2.12,0.04,3.18c0.06,0.26,0.08,0.51-0.15,0.71c-0.32,0.26-0.78,0.1-0.86-0.34
		C12.26,16.52,12.18,15.82,12.08,15.13z"/>
	<path d="M15.96,2.12c-1.49-1.08-3.09-1.38-4.79-0.72C9.45,2.07,8.43,3.35,8.09,5.16c-0.1,0.54-0.3,0.79-0.66,0.73
		c-0.35-0.06-0.49-0.33-0.4-0.86c0.16-1.07,0.61-2.01,1.35-2.94C8.16,1.91,7.94,1.74,7.74,1.55c-0.28-0.27-0.3-0.57-0.08-0.8
		C7.9,0.5,8.2,0.52,8.5,0.8c0.18,0.17,0.35,0.35,0.53,0.52c0.02,0.02,0.04,0.02,0.09,0.04c0.69-0.55,1.47-0.98,2.35-1.18
		c2.08-0.48,3.92-0.01,5.51,1.42c0.44,0.39,0.43,0.64,0.02,1.06c-2.47,2.47-4.94,4.94-7.41,7.41c-0.4,0.4-0.65,0.39-1.03-0.02
		C7.86,9.29,7.38,8.43,7.13,7.45c-0.1-0.4,0.02-0.68,0.33-0.77c0.34-0.09,0.58,0.08,0.7,0.5C8.35,7.85,8.63,8.47,9.07,9
		C11.37,6.71,13.65,4.43,15.96,2.12z"/>
	<path d="M18.95,18.58c0.27,0,0.54,0,0.8,0c0.38,0.01,0.62,0.21,0.62,0.52c0.01,0.31-0.23,0.54-0.6,0.54
		c-0.73,0.01-1.45,0.01-2.18,0c-0.4-0.01-0.59-0.2-0.59-0.62c0-0.7,0-1.41,0-2.11c0-0.4,0.22-0.64,0.55-0.63
		c0.32,0.01,0.51,0.24,0.52,0.62c0,0.27,0,0.54,0,0.87c0.1-0.08,0.18-0.12,0.24-0.18c0.5-0.5,0.99-1,1.49-1.49
		c0.15-0.14,0.16-0.26,0.1-0.46c-0.27-0.84,0.08-1.67,0.87-2.07c0.19-0.1,0.24-0.21,0.24-0.4c-0.01-1.56-0.01-3.12,0-4.67
		c0-0.17,0.02-0.39,0.13-0.48c0.14-0.12,0.38-0.2,0.55-0.17c0.25,0.03,0.38,0.26,0.38,0.52c0,0.54,0,1.08,0,1.62
		c0,1.07,0,2.13,0,3.2c0,0.2,0.05,0.3,0.24,0.4c0.84,0.42,1.18,1.36,0.83,2.2c-0.35,0.84-1.26,1.25-2.15,0.98
		c-0.1-0.03-0.27-0.04-0.34,0.02c-0.59,0.56-1.17,1.14-1.74,1.72C18.92,18.53,18.94,18.55,18.95,18.58z M21.56,15.77
		c0.36-0.01,0.65-0.3,0.65-0.65c0-0.36-0.31-0.66-0.68-0.66c-0.36,0.01-0.64,0.29-0.65,0.65C20.88,15.48,21.18,15.78,21.56,15.77z"
		/>
	<path d="M21.53,24.6c-0.79-0.13-1.59-0.25-2.38-0.4c-0.42-0.08-0.6-0.37-0.51-0.69c0.09-0.31,0.37-0.43,0.77-0.34
		c2.67,0.64,5.12,0.16,7.29-1.52c1.53-1.19,2.49-2.77,2.97-4.65c0.05-0.19,0.19-0.42,0.36-0.51c0.36-0.2,0.78,0.14,0.7,0.57
		c-0.07,0.41-0.19,0.82-0.33,1.22C29.05,22.03,25.53,24.52,21.53,24.6z"/>
	<path class="st0" d="M33.86,8.98c-2.29-2.29-4.57-4.57-6.84-6.84c1.44-1.31,4.3-1.6,6.28,0.19C35.22,4.07,35.47,7.09,33.86,8.98z"
		/>
	<path class="st0" d="M5.88,29.38c-0.68,0-1.33,0-2,0c0-1.77,0-3.52,0-5.3c0.66,0,1.32,0,2,0C5.88,25.84,5.88,27.6,5.88,29.38z"/>
	<path class="st0" d="M14.68,29.39c-0.68,0-1.32,0-1.99,0c0-1.77,0-3.53,0-5.32c0.65,0,1.31,0,1.99,0
		C14.68,25.84,14.68,27.6,14.68,29.39z"/>
	<path class="st0" d="M7,27.31c0-0.4,0-0.77,0-1.17c1.53,0,3.04,0,4.58,0c0,0.38,0,0.76,0,1.17C10.06,27.31,8.55,27.31,7,27.31z"/>
	<path class="st0" d="M21.56,15.77c-0.37,0.01-0.68-0.29-0.67-0.65c0-0.35,0.29-0.64,0.65-0.65c0.37-0.01,0.68,0.29,0.68,0.66
		C22.2,15.48,21.91,15.76,21.56,15.77z"/>
</g>
</svg>
