<?xml version="1.0" encoding="utf-8"?>
<!-- Generator: Adobe Illustrator 25.0.0, SVG Export Plug-In . SVG Version: 6.00 Build 0)  -->
<svg version="1.1" id="Capa_1" xmlns="http://www.w3.org/2000/svg" xmlns:xlink="http://www.w3.org/1999/xlink" x="0px" y="0px"
	 viewBox="0 0 9.88 9.88" style="enable-background:new 0 0 9.88 9.88;" xml:space="preserve">
<style type="text/css">
	.st0{fill:#FFFFFF;}
</style>
<g>
	<polygon class="st0" points="4.28,5.93 5.99,4.94 4.28,3.95 	"/>
	<path class="st0" d="M4.94,0C2.21,0,0,2.21,0,4.94c0,2.73,2.21,4.94,4.94,4.94c2.73,0,4.94-2.21,4.94-4.94C9.88,2.21,7.67,0,4.94,0
		z M8.09,6.52C8.02,6.81,7.8,7.03,7.51,7.11C7,7.24,4.94,7.24,4.94,7.24s-2.06,0-2.57-0.14c-0.28-0.08-0.51-0.3-0.58-0.58
		C1.65,6.01,1.65,4.94,1.65,4.94s0-1.07,0.14-1.59c0.08-0.28,0.3-0.51,0.58-0.58c0.51-0.14,2.57-0.14,2.57-0.14s2.06,0,2.57,0.14
		c0.28,0.08,0.51,0.3,0.58,0.58c0.14,0.51,0.14,1.59,0.14,1.59S8.23,6.01,8.09,6.52z"/>
</g>
</svg>
