<?xml version="1.0" encoding="utf-8"?>
<!-- Generator: Adobe Illustrator 25.0.0, SVG Export Plug-In . SVG Version: 6.00 Build 0)  -->
<svg version="1.1" id="Capa_1" xmlns="http://www.w3.org/2000/svg" xmlns:xlink="http://www.w3.org/1999/xlink" x="0px" y="0px"
	 viewBox="0 0 296.2 296.2" style="enable-background:new 0 0 296.2 296.2;" xml:space="preserve">
<style type="text/css">
	.st0{fill:#FFFFFF;}
	.st1{fill:#231815;}
	.st2{fill:none;}
	.st3{fill:#2EA7E0;}
</style>
<g id="图层_1">
	<path class="st0" d="M223.7,199.4c28.6,0,51.8-23.2,51.8-51.7c0-24.6-17.3-45.8-41.4-50.7c-12-38.9-53.3-60.7-92.2-48.6
		c-16.2,5-30.2,15.5-39.6,29.6c-32.7-10.6-67.8,7.3-78.4,40s7.3,67.8,40,78.4c6.2,2,12.7,3,19.2,3"/>
	<path class="st1" d="M223.7,206.9c29.9-0.3,55-22.7,58.8-52.3c3.7-30-17-58.5-46.5-64.9l5.2,5.2c-9.1-28.4-33.2-50.8-62.8-56
		c-32.1-5.7-64.5,8.2-82.7,35.2l8.5-3.4c-31.4-9.7-66.4,3.8-82.3,32.8c-15.2,27.6-9.6,63.4,13.7,84.8c13,11.9,29.9,18.5,47.4,18.6
		c9.7,0.1,9.7-14.9,0-15c-24.5-0.3-46.4-16.6-52.8-40.4c-6.3-24,4.1-49.3,25.6-61.8c13.6-7.8,29.5-9.1,44.4-4.5
		c3.3,1,6.6-0.7,8.5-3.4c14.6-21.5,41.4-33.1,67.1-28.1c24,4.7,43.5,22,51,45.3c0.7,2.5,2.7,4.5,5.2,5.2c22.5,4.9,38.5,25.8,35.6,49
		c-2.7,22.1-22,38.4-44,38.7C214,192,214,207,223.7,206.9L223.7,206.9z"/>
	<line class="st2" x1="103.1" y1="165.4" x2="95.7" y2="146.2"/>
	<path class="st3" d="M110.3,163.4l-7.4-19.2c-1.4-3.8-5-6.4-9.2-5.2c-3.6,1-6.7,5.4-5.2,9.2l7.4,19.2c1.4,3.8,5,6.4,9.2,5.2
		C108.7,171.7,111.8,167.2,110.3,163.4L110.3,163.4z"/>
	<line class="st2" x1="141" y1="165.4" x2="133.7" y2="146.2"/>
	<path class="st3" d="M148.3,163.4l-7.4-19.2c-1.4-3.8-5-6.4-9.2-5.2c-3.6,1-6.7,5.4-5.2,9.2l7.4,19.2c1.4,3.8,5,6.4,9.2,5.2
		C146.6,171.7,149.7,167.3,148.3,163.4L148.3,163.4z"/>
	<line class="st2" x1="179" y1="165.4" x2="171.6" y2="146.2"/>
	<path class="st3" d="M186.2,163.4l-7.4-19.2c-1.5-3.8-5-6.4-9.2-5.2c-3.6,1-6.7,5.4-5.2,9.2l7.4,19.2c1.5,3.8,5,6.4,9.2,5.2
		C184.6,171.7,187.7,167.3,186.2,163.4L186.2,163.4z"/>
	<line class="st2" x1="119.6" y1="208.3" x2="112.2" y2="189.1"/>
	<path class="st3" d="M126.8,206.3l-7.4-19.2c-1.4-3.8-5-6.4-9.2-5.2c-3.6,1-6.7,5.4-5.2,9.2l7.4,19.2c1.4,3.8,5,6.4,9.2,5.2
		C125.1,214.5,128.2,210.1,126.8,206.3L126.8,206.3z"/>
	<line class="st2" x1="157.5" y1="208.3" x2="150.1" y2="189.1"/>
	<path class="st3" d="M164.7,206.3l-7.4-19.2c-1.5-3.8-5-6.4-9.2-5.2c-3.6,1-6.7,5.4-5.2,9.2l7.4,19.2c1.4,3.8,5,6.4,9.2,5.2
		C163.1,214.5,166.2,210.1,164.7,206.3L164.7,206.3z"/>
	<line class="st2" x1="195.5" y1="208.3" x2="188.1" y2="189.1"/>
	<path class="st3" d="M202.7,206.3l-7.4-19.2c-1.5-3.8-5-6.4-9.2-5.2c-3.6,1-6.7,5.4-5.2,9.2l7.4,19.2c1.5,3.8,5,6.4,9.2,5.2
		C201.1,214.5,204.2,210.1,202.7,206.3L202.7,206.3z"/>
	<line class="st2" x1="136" y1="251.2" x2="128.6" y2="232"/>
	<path class="st3" d="M143.3,249.2l-7.4-19.2c-1.4-3.8-5-6.4-9.2-5.2c-3.6,1-6.7,5.4-5.2,9.2l7.4,19.2c1.4,3.8,5,6.4,9.2,5.2
		C141.6,257.4,144.7,253,143.3,249.2z"/>
	<line class="st2" x1="174" y1="251.2" x2="166.6" y2="232"/>
	<path class="st3" d="M181.2,249.2l-7.4-19.2c-1.5-3.8-5-6.4-9.2-5.2c-3.6,1-6.7,5.4-5.2,9.2l7.4,19.2c1.5,3.8,5,6.4,9.2,5.2
		C179.6,257.4,182.7,253,181.2,249.2z"/>
	<line class="st2" x1="211.9" y1="251.2" x2="204.6" y2="232"/>
	<path class="st3" d="M219.2,249.2l-7.4-19.2c-1.5-3.8-5-6.4-9.2-5.2c-3.6,1-6.7,5.4-5.2,9.2l7.4,19.2c1.5,3.8,5,6.4,9.2,5.2
		C217.5,257.4,220.6,253,219.2,249.2z"/>
</g>
</svg>
